ISO-10303-21;
HEADER;
FILE_DESCRIPTION(('FreeCAD Model'),'2;1');
FILE_NAME('Open CASCADE Shape Model','2026-01-24T12:15:55',(''),(''),
  'Open CASCADE STEP processor 7.8','FreeCAD','Unknown');
FILE_SCHEMA(('AUTOMOTIVE_DESIGN { 1 0 10303 214 1 1 1 1 }'));
ENDSEC;
DATA;
#1 = APPLICATION_PROTOCOL_DEFINITION('international standard',
  'automotive_design',2000,#2);
#2 = APPLICATION_CONTEXT(
  'core data for automotive mechanical design processes');
#3 = SHAPE_DEFINITION_REPRESENTATION(#4,#10);
#4 = PRODUCT_DEFINITION_SHAPE('','',#5);
#5 = PRODUCT_DEFINITION('design','',#6,#9);
#6 = PRODUCT_DEFINITION_FORMATION('','',#7);
#7 = PRODUCT('Pocket001','Pocket001','',(#8));
#8 = PRODUCT_CONTEXT('',#2,'mechanical');
#9 = PRODUCT_DEFINITION_CONTEXT('part definition',#2,'design');
#10 = ADVANCED_BREP_SHAPE_REPRESENTATION('',(#11,#15),#1591);
#11 = AXIS2_PLACEMENT_3D('',#12,#13,#14);
#12 = CARTESIAN_POINT('',(0.,0.,0.));
#13 = DIRECTION('',(0.,0.,1.));
#14 = DIRECTION('',(1.,0.,-0.));
#15 = MANIFOLD_SOLID_BREP('',#16);
#16 = CLOSED_SHELL('',(#17,#57,#332,#357,#382,#422,#447,#481,#505,#564,
    #589,#623,#647,#679,#704,#729,#746,#770,#795,#819,#844,#861,#893,
    #917,#942,#966,#991,#1009,#1040,#1065,#1089,#1114,#1139,#1157,#1267,
    #1299,#1365,#1387,#1404,#1426,#1443,#1455,#1467,#1484,#1506,#1518,
    #1535,#1547));
#17 = ADVANCED_FACE('',(#18),#52,.T.);
#18 = FACE_BOUND('',#19,.T.);
#19 = EDGE_LOOP('',(#20,#30,#38,#46));
#20 = ORIENTED_EDGE('',*,*,#21,.T.);
#21 = EDGE_CURVE('',#22,#24,#26,.T.);
#22 = VERTEX_POINT('',#23);
#23 = CARTESIAN_POINT('',(25.1,40.,25.));
#24 = VERTEX_POINT('',#25);
#25 = CARTESIAN_POINT('',(-25.1,40.,25.));
#26 = LINE('',#27,#28);
#27 = CARTESIAN_POINT('',(49.999999999999,40.,25.));
#28 = VECTOR('',#29,1.);
#29 = DIRECTION('',(-1.,0.,0.));
#30 = ORIENTED_EDGE('',*,*,#31,.F.);
#31 = EDGE_CURVE('',#32,#24,#34,.T.);
#32 = VERTEX_POINT('',#33);
#33 = CARTESIAN_POINT('',(-25.1,39.,25.));
#34 = LINE('',#35,#36);
#35 = CARTESIAN_POINT('',(-25.1,39.,25.));
#36 = VECTOR('',#37,1.);
#37 = DIRECTION('',(0.,1.,0.));
#38 = ORIENTED_EDGE('',*,*,#39,.F.);
#39 = EDGE_CURVE('',#40,#32,#42,.T.);
#40 = VERTEX_POINT('',#41);
#41 = CARTESIAN_POINT('',(25.1,39.,25.));
#42 = LINE('',#43,#44);
#43 = CARTESIAN_POINT('',(49.999999999999,39.,25.));
#44 = VECTOR('',#45,1.);
#45 = DIRECTION('',(-1.,0.,0.));
#46 = ORIENTED_EDGE('',*,*,#47,.F.);
#47 = EDGE_CURVE('',#22,#40,#48,.T.);
#48 = LINE('',#49,#50);
#49 = CARTESIAN_POINT('',(25.1,40.,25.));
#50 = VECTOR('',#51,1.);
#51 = DIRECTION('',(0.,-1.,0.));
#52 = PLANE('',#53);
#53 = AXIS2_PLACEMENT_3D('',#54,#55,#56);
#54 = CARTESIAN_POINT('',(-5.637979976046E-13,-1.495403527947E-13,25.));
#55 = DIRECTION('',(0.,0.,1.));
#56 = DIRECTION('',(1.,0.,0.));
#57 = ADVANCED_FACE('',(#58,#219,#273),#327,.T.);
#58 = FACE_BOUND('',#59,.T.);
#59 = EDGE_LOOP('',(#60,#70,#79,#87,#96,#104,#113,#121,#128,#129,#138,
    #146,#155,#163,#172,#180,#189,#197,#205,#213));
#60 = ORIENTED_EDGE('',*,*,#61,.F.);
#61 = EDGE_CURVE('',#62,#64,#66,.T.);
#62 = VERTEX_POINT('',#63);
#63 = CARTESIAN_POINT('',(-49.9,40.,25.));
#64 = VERTEX_POINT('',#65);
#65 = CARTESIAN_POINT('',(-50.,40.,25.));
#66 = LINE('',#67,#68);
#67 = CARTESIAN_POINT('',(49.999999999999,40.,25.));
#68 = VECTOR('',#69,1.);
#69 = DIRECTION('',(-1.,0.,0.));
#70 = ORIENTED_EDGE('',*,*,#71,.T.);
#71 = EDGE_CURVE('',#62,#72,#74,.T.);
#72 = VERTEX_POINT('',#73);
#73 = CARTESIAN_POINT('',(-45.,40.,29.9));
#74 = CIRCLE('',#75,4.9);
#75 = AXIS2_PLACEMENT_3D('',#76,#77,#78);
#76 = CARTESIAN_POINT('',(-49.9,40.,29.9));
#77 = DIRECTION('',(0.,-1.,0.));
#78 = DIRECTION('',(0.,0.,-1.));
#79 = ORIENTED_EDGE('',*,*,#80,.T.);
#80 = EDGE_CURVE('',#72,#81,#83,.T.);
#81 = VERTEX_POINT('',#82);
#82 = CARTESIAN_POINT('',(-45.,40.,35.1));
#83 = LINE('',#84,#85);
#84 = CARTESIAN_POINT('',(-45.,40.,25.));
#85 = VECTOR('',#86,1.);
#86 = DIRECTION('',(0.,0.,1.));
#87 = ORIENTED_EDGE('',*,*,#88,.T.);
#88 = EDGE_CURVE('',#81,#89,#91,.T.);
#89 = VERTEX_POINT('',#90);
#90 = CARTESIAN_POINT('',(-40.1,40.,40.));
#91 = CIRCLE('',#92,4.9);
#92 = AXIS2_PLACEMENT_3D('',#93,#94,#95);
#93 = CARTESIAN_POINT('',(-40.1,40.,35.1));
#94 = DIRECTION('',(-0.,1.,0.));
#95 = DIRECTION('',(0.,0.,-1.));
#96 = ORIENTED_EDGE('',*,*,#97,.F.);
#97 = EDGE_CURVE('',#98,#89,#100,.T.);
#98 = VERTEX_POINT('',#99);
#99 = CARTESIAN_POINT('',(-34.9,40.,40.));
#100 = LINE('',#101,#102);
#101 = CARTESIAN_POINT('',(-30.,40.,40.));
#102 = VECTOR('',#103,1.);
#103 = DIRECTION('',(-1.,0.,0.));
#104 = ORIENTED_EDGE('',*,*,#105,.T.);
#105 = EDGE_CURVE('',#98,#106,#108,.T.);
#106 = VERTEX_POINT('',#107);
#107 = CARTESIAN_POINT('',(-30.,40.,35.1));
#108 = CIRCLE('',#109,4.9);
#109 = AXIS2_PLACEMENT_3D('',#110,#111,#112);
#110 = CARTESIAN_POINT('',(-34.9,40.,35.1));
#111 = DIRECTION('',(0.,1.,0.));
#112 = DIRECTION('',(0.,0.,1.));
#113 = ORIENTED_EDGE('',*,*,#114,.F.);
#114 = EDGE_CURVE('',#115,#106,#117,.T.);
#115 = VERTEX_POINT('',#116);
#116 = CARTESIAN_POINT('',(-30.,40.,29.9));
#117 = LINE('',#118,#119);
#118 = CARTESIAN_POINT('',(-30.,40.,25.));
#119 = VECTOR('',#120,1.);
#120 = DIRECTION('',(0.,0.,1.));
#121 = ORIENTED_EDGE('',*,*,#122,.F.);
#122 = EDGE_CURVE('',#24,#115,#123,.T.);
#123 = CIRCLE('',#124,4.9);
#124 = AXIS2_PLACEMENT_3D('',#125,#126,#127);
#125 = CARTESIAN_POINT('',(-25.1,40.,29.9));
#126 = DIRECTION('',(0.,1.,0.));
#127 = DIRECTION('',(0.,0.,1.));
#128 = ORIENTED_EDGE('',*,*,#21,.F.);
#129 = ORIENTED_EDGE('',*,*,#130,.T.);
#130 = EDGE_CURVE('',#22,#131,#133,.T.);
#131 = VERTEX_POINT('',#132);
#132 = CARTESIAN_POINT('',(30.,40.,29.9));
#133 = CIRCLE('',#134,4.9);
#134 = AXIS2_PLACEMENT_3D('',#135,#136,#137);
#135 = CARTESIAN_POINT('',(25.1,40.,29.9));
#136 = DIRECTION('',(0.,-1.,0.));
#137 = DIRECTION('',(0.,0.,-1.));
#138 = ORIENTED_EDGE('',*,*,#139,.T.);
#139 = EDGE_CURVE('',#131,#140,#142,.T.);
#140 = VERTEX_POINT('',#141);
#141 = CARTESIAN_POINT('',(30.,40.,35.1));
#142 = LINE('',#143,#144);
#143 = CARTESIAN_POINT('',(30.,40.,25.));
#144 = VECTOR('',#145,1.);
#145 = DIRECTION('',(0.,0.,1.));
#146 = ORIENTED_EDGE('',*,*,#147,.T.);
#147 = EDGE_CURVE('',#140,#148,#150,.T.);
#148 = VERTEX_POINT('',#149);
#149 = CARTESIAN_POINT('',(34.9,40.,40.));
#150 = CIRCLE('',#151,4.9);
#151 = AXIS2_PLACEMENT_3D('',#152,#153,#154);
#152 = CARTESIAN_POINT('',(34.9,40.,35.1));
#153 = DIRECTION('',(-0.,1.,0.));
#154 = DIRECTION('',(0.,0.,-1.));
#155 = ORIENTED_EDGE('',*,*,#156,.F.);
#156 = EDGE_CURVE('',#157,#148,#159,.T.);
#157 = VERTEX_POINT('',#158);
#158 = CARTESIAN_POINT('',(40.1,40.,40.));
#159 = LINE('',#160,#161);
#160 = CARTESIAN_POINT('',(45.,40.,40.));
#161 = VECTOR('',#162,1.);
#162 = DIRECTION('',(-1.,0.,0.));
#163 = ORIENTED_EDGE('',*,*,#164,.F.);
#164 = EDGE_CURVE('',#165,#157,#167,.T.);
#165 = VERTEX_POINT('',#166);
#166 = CARTESIAN_POINT('',(45.,40.,35.1));
#167 = CIRCLE('',#168,4.9);
#168 = AXIS2_PLACEMENT_3D('',#169,#170,#171);
#169 = CARTESIAN_POINT('',(40.1,40.,35.1));
#170 = DIRECTION('',(0.,-1.,0.));
#171 = DIRECTION('',(0.,0.,1.));
#172 = ORIENTED_EDGE('',*,*,#173,.F.);
#173 = EDGE_CURVE('',#174,#165,#176,.T.);
#174 = VERTEX_POINT('',#175);
#175 = CARTESIAN_POINT('',(45.,40.,29.9));
#176 = LINE('',#177,#178);
#177 = CARTESIAN_POINT('',(45.,40.,25.));
#178 = VECTOR('',#179,1.);
#179 = DIRECTION('',(0.,0.,1.));
#180 = ORIENTED_EDGE('',*,*,#181,.F.);
#181 = EDGE_CURVE('',#182,#174,#184,.T.);
#182 = VERTEX_POINT('',#183);
#183 = CARTESIAN_POINT('',(49.9,40.,25.));
#184 = CIRCLE('',#185,4.9);
#185 = AXIS2_PLACEMENT_3D('',#186,#187,#188);
#186 = CARTESIAN_POINT('',(49.9,40.,29.9));
#187 = DIRECTION('',(0.,1.,0.));
#188 = DIRECTION('',(0.,0.,1.));
#189 = ORIENTED_EDGE('',*,*,#190,.F.);
#190 = EDGE_CURVE('',#191,#182,#193,.T.);
#191 = VERTEX_POINT('',#192);
#192 = CARTESIAN_POINT('',(49.999999999999,40.,25.));
#193 = LINE('',#194,#195);
#194 = CARTESIAN_POINT('',(49.999999999999,40.,25.));
#195 = VECTOR('',#196,1.);
#196 = DIRECTION('',(-1.,0.,0.));
#197 = ORIENTED_EDGE('',*,*,#198,.F.);
#198 = EDGE_CURVE('',#199,#191,#201,.T.);
#199 = VERTEX_POINT('',#200);
#200 = CARTESIAN_POINT('',(49.999999999999,40.,0.));
#201 = LINE('',#202,#203);
#202 = CARTESIAN_POINT('',(49.999999999999,40.,0.));
#203 = VECTOR('',#204,1.);
#204 = DIRECTION('',(0.,0.,1.));
#205 = ORIENTED_EDGE('',*,*,#206,.T.);
#206 = EDGE_CURVE('',#199,#207,#209,.T.);
#207 = VERTEX_POINT('',#208);
#208 = CARTESIAN_POINT('',(-50.,40.,0.));
#209 = LINE('',#210,#211);
#210 = CARTESIAN_POINT('',(49.999999999999,40.,0.));
#211 = VECTOR('',#212,1.);
#212 = DIRECTION('',(-1.,0.,0.));
#213 = ORIENTED_EDGE('',*,*,#214,.T.);
#214 = EDGE_CURVE('',#207,#64,#215,.T.);
#215 = LINE('',#216,#217);
#216 = CARTESIAN_POINT('',(-50.,40.,0.));
#217 = VECTOR('',#218,1.);
#218 = DIRECTION('',(0.,0.,1.));
#219 = FACE_BOUND('',#220,.T.);
#220 = EDGE_LOOP('',(#221,#232,#241,#250,#258,#267));
#221 = ORIENTED_EDGE('',*,*,#222,.F.);
#222 = EDGE_CURVE('',#223,#225,#227,.T.);
#223 = VERTEX_POINT('',#224);
#224 = CARTESIAN_POINT('',(-39.9,40.,32.300000000001));
#225 = VERTEX_POINT('',#226);
#226 = CARTESIAN_POINT('',(-39.5,40.,33.1));
#227 = CIRCLE('',#228,0.999999999998);
#228 = AXIS2_PLACEMENT_3D('',#229,#230,#231);
#229 = CARTESIAN_POINT('',(-40.49999999999,40.,33.1));
#230 = DIRECTION('',(0.,-1.,2.22044604925E-16));
#231 = DIRECTION('',(1.,0.,0.));
#232 = ORIENTED_EDGE('',*,*,#233,.T.);
#233 = EDGE_CURVE('',#223,#234,#236,.T.);
#234 = VERTEX_POINT('',#235);
#235 = CARTESIAN_POINT('',(-35.1,40.,32.3));
#236 = CIRCLE('',#237,4.);
#237 = AXIS2_PLACEMENT_3D('',#238,#239,#240);
#238 = CARTESIAN_POINT('',(-37.5,40.,29.1));
#239 = DIRECTION('',(0.,-1.,2.22044604925E-16));
#240 = DIRECTION('',(1.,0.,0.));
#241 = ORIENTED_EDGE('',*,*,#242,.F.);
#242 = EDGE_CURVE('',#243,#234,#245,.T.);
#243 = VERTEX_POINT('',#244);
#244 = CARTESIAN_POINT('',(-35.5,40.,33.1));
#245 = CIRCLE('',#246,1.);
#246 = AXIS2_PLACEMENT_3D('',#247,#248,#249);
#247 = CARTESIAN_POINT('',(-34.5,40.,33.1));
#248 = DIRECTION('',(0.,-1.,2.22044604925E-16));
#249 = DIRECTION('',(1.,0.,0.));
#250 = ORIENTED_EDGE('',*,*,#251,.T.);
#251 = EDGE_CURVE('',#243,#252,#254,.T.);
#252 = VERTEX_POINT('',#253);
#253 = CARTESIAN_POINT('',(-35.5,40.,35.1));
#254 = LINE('',#255,#256);
#255 = CARTESIAN_POINT('',(-35.5,40.,26.461290322581));
#256 = VECTOR('',#257,1.);
#257 = DIRECTION('',(0.,0.,1.));
#258 = ORIENTED_EDGE('',*,*,#259,.T.);
#259 = EDGE_CURVE('',#252,#260,#262,.T.);
#260 = VERTEX_POINT('',#261);
#261 = CARTESIAN_POINT('',(-39.5,40.,35.1));
#262 = CIRCLE('',#263,2.);
#263 = AXIS2_PLACEMENT_3D('',#264,#265,#266);
#264 = CARTESIAN_POINT('',(-37.5,40.,35.1));
#265 = DIRECTION('',(0.,-1.,2.22044604925E-16));
#266 = DIRECTION('',(1.,0.,0.));
#267 = ORIENTED_EDGE('',*,*,#268,.F.);
#268 = EDGE_CURVE('',#225,#260,#269,.T.);
#269 = LINE('',#270,#271);
#270 = CARTESIAN_POINT('',(-39.5,40.,26.461290322581));
#271 = VECTOR('',#272,1.);
#272 = DIRECTION('',(0.,0.,1.));
#273 = FACE_BOUND('',#274,.T.);
#274 = EDGE_LOOP('',(#275,#285,#294,#303,#312,#320));
#275 = ORIENTED_EDGE('',*,*,#276,.F.);
#276 = EDGE_CURVE('',#277,#279,#281,.T.);
#277 = VERTEX_POINT('',#278);
#278 = CARTESIAN_POINT('',(35.5,40.,33.1));
#279 = VERTEX_POINT('',#280);
#280 = CARTESIAN_POINT('',(35.5,40.,35.1));
#281 = LINE('',#282,#283);
#282 = CARTESIAN_POINT('',(35.5,40.,26.461290322581));
#283 = VECTOR('',#284,1.);
#284 = DIRECTION('',(0.,0.,1.));
#285 = ORIENTED_EDGE('',*,*,#286,.F.);
#286 = EDGE_CURVE('',#287,#277,#289,.T.);
#287 = VERTEX_POINT('',#288);
#288 = CARTESIAN_POINT('',(35.1,40.,32.3));
#289 = CIRCLE('',#290,1.);
#290 = AXIS2_PLACEMENT_3D('',#291,#292,#293);
#291 = CARTESIAN_POINT('',(34.5,40.,33.1));
#292 = DIRECTION('',(0.,-1.,2.22044604925E-16));
#293 = DIRECTION('',(1.,0.,0.));
#294 = ORIENTED_EDGE('',*,*,#295,.T.);
#295 = EDGE_CURVE('',#287,#296,#298,.T.);
#296 = VERTEX_POINT('',#297);
#297 = CARTESIAN_POINT('',(39.9,40.,32.3));
#298 = CIRCLE('',#299,4.);
#299 = AXIS2_PLACEMENT_3D('',#300,#301,#302);
#300 = CARTESIAN_POINT('',(37.5,40.,29.1));
#301 = DIRECTION('',(0.,-1.,2.22044604925E-16));
#302 = DIRECTION('',(1.,0.,0.));
#303 = ORIENTED_EDGE('',*,*,#304,.F.);
#304 = EDGE_CURVE('',#305,#296,#307,.T.);
#305 = VERTEX_POINT('',#306);
#306 = CARTESIAN_POINT('',(39.5,40.,33.1));
#307 = CIRCLE('',#308,1.);
#308 = AXIS2_PLACEMENT_3D('',#309,#310,#311);
#309 = CARTESIAN_POINT('',(40.5,40.,33.1));
#310 = DIRECTION('',(0.,-1.,2.22044604925E-16));
#311 = DIRECTION('',(1.,0.,0.));
#312 = ORIENTED_EDGE('',*,*,#313,.F.);
#313 = EDGE_CURVE('',#314,#305,#316,.T.);
#314 = VERTEX_POINT('',#315);
#315 = CARTESIAN_POINT('',(39.5,40.,35.1));
#316 = LINE('',#317,#318);
#317 = CARTESIAN_POINT('',(39.5,40.,25.461290322581));
#318 = VECTOR('',#319,1.);
#319 = DIRECTION('',(0.,0.,-1.));
#320 = ORIENTED_EDGE('',*,*,#321,.T.);
#321 = EDGE_CURVE('',#314,#279,#322,.T.);
#322 = CIRCLE('',#323,2.);
#323 = AXIS2_PLACEMENT_3D('',#324,#325,#326);
#324 = CARTESIAN_POINT('',(37.5,40.,35.1));
#325 = DIRECTION('',(0.,-1.,2.22044604925E-16));
#326 = DIRECTION('',(1.,0.,0.));
#327 = PLANE('',#328);
#328 = AXIS2_PLACEMENT_3D('',#329,#330,#331);
#329 = CARTESIAN_POINT('',(-5.040727691883E-13,40.,17.822580645161));
#330 = DIRECTION('',(0.,1.,0.));
#331 = DIRECTION('',(0.,0.,1.));
#332 = ADVANCED_FACE('',(#333),#352,.F.);
#333 = FACE_BOUND('',#334,.F.);
#334 = EDGE_LOOP('',(#335,#336,#344,#351));
#335 = ORIENTED_EDGE('',*,*,#130,.T.);
#336 = ORIENTED_EDGE('',*,*,#337,.T.);
#337 = EDGE_CURVE('',#131,#338,#340,.T.);
#338 = VERTEX_POINT('',#339);
#339 = CARTESIAN_POINT('',(30.,39.,29.9));
#340 = LINE('',#341,#342);
#341 = CARTESIAN_POINT('',(30.,40.,29.9));
#342 = VECTOR('',#343,1.);
#343 = DIRECTION('',(0.,-1.,0.));
#344 = ORIENTED_EDGE('',*,*,#345,.F.);
#345 = EDGE_CURVE('',#40,#338,#346,.T.);
#346 = CIRCLE('',#347,4.9);
#347 = AXIS2_PLACEMENT_3D('',#348,#349,#350);
#348 = CARTESIAN_POINT('',(25.1,39.,29.9));
#349 = DIRECTION('',(0.,-1.,0.));
#350 = DIRECTION('',(0.,0.,-1.));
#351 = ORIENTED_EDGE('',*,*,#47,.F.);
#352 = CYLINDRICAL_SURFACE('',#353,4.9);
#353 = AXIS2_PLACEMENT_3D('',#354,#355,#356);
#354 = CARTESIAN_POINT('',(25.1,40.,29.9));
#355 = DIRECTION('',(0.,-1.,0.));
#356 = DIRECTION('',(-0.,-0.,-1.));
#357 = ADVANCED_FACE('',(#358),#377,.F.);
#358 = FACE_BOUND('',#359,.F.);
#359 = EDGE_LOOP('',(#360,#369,#375,#376));
#360 = ORIENTED_EDGE('',*,*,#361,.T.);
#361 = EDGE_CURVE('',#32,#362,#364,.T.);
#362 = VERTEX_POINT('',#363);
#363 = CARTESIAN_POINT('',(-30.,39.,29.9));
#364 = CIRCLE('',#365,4.9);
#365 = AXIS2_PLACEMENT_3D('',#366,#367,#368);
#366 = CARTESIAN_POINT('',(-25.1,39.,29.9));
#367 = DIRECTION('',(0.,1.,0.));
#368 = DIRECTION('',(0.,0.,1.));
#369 = ORIENTED_EDGE('',*,*,#370,.T.);
#370 = EDGE_CURVE('',#362,#115,#371,.T.);
#371 = LINE('',#372,#373);
#372 = CARTESIAN_POINT('',(-30.,39.,29.9));
#373 = VECTOR('',#374,1.);
#374 = DIRECTION('',(0.,1.,0.));
#375 = ORIENTED_EDGE('',*,*,#122,.F.);
#376 = ORIENTED_EDGE('',*,*,#31,.F.);
#377 = CYLINDRICAL_SURFACE('',#378,4.9);
#378 = AXIS2_PLACEMENT_3D('',#379,#380,#381);
#379 = CARTESIAN_POINT('',(-25.1,39.,29.9));
#380 = DIRECTION('',(0.,1.,0.));
#381 = DIRECTION('',(0.,0.,-1.));
#382 = ADVANCED_FACE('',(#383),#417,.T.);
#383 = FACE_BOUND('',#384,.T.);
#384 = EDGE_LOOP('',(#385,#393,#394,#403,#411));
#385 = ORIENTED_EDGE('',*,*,#386,.F.);
#386 = EDGE_CURVE('',#62,#387,#389,.T.);
#387 = VERTEX_POINT('',#388);
#388 = CARTESIAN_POINT('',(-49.9,39.,25.));
#389 = LINE('',#390,#391);
#390 = CARTESIAN_POINT('',(-49.9,40.,25.));
#391 = VECTOR('',#392,1.);
#392 = DIRECTION('',(0.,-1.,0.));
#393 = ORIENTED_EDGE('',*,*,#61,.T.);
#394 = ORIENTED_EDGE('',*,*,#395,.T.);
#395 = EDGE_CURVE('',#64,#396,#398,.T.);
#396 = VERTEX_POINT('',#397);
#397 = CARTESIAN_POINT('',(-54.35889894354,39.,25.));
#398 = CIRCLE('',#399,10.);
#399 = AXIS2_PLACEMENT_3D('',#400,#401,#402);
#400 = CARTESIAN_POINT('',(-50.,30.,25.));
#401 = DIRECTION('',(0.,0.,1.));
#402 = DIRECTION('',(1.,0.,0.));
#403 = ORIENTED_EDGE('',*,*,#404,.F.);
#404 = EDGE_CURVE('',#405,#396,#407,.T.);
#405 = VERTEX_POINT('',#406);
#406 = CARTESIAN_POINT('',(-50.,39.,25.));
#407 = LINE('',#408,#409);
#408 = CARTESIAN_POINT('',(59.999999999999,39.,25.));
#409 = VECTOR('',#410,1.);
#410 = DIRECTION('',(-1.,-0.,-0.));
#411 = ORIENTED_EDGE('',*,*,#412,.F.);
#412 = EDGE_CURVE('',#387,#405,#413,.T.);
#413 = LINE('',#414,#415);
#414 = CARTESIAN_POINT('',(49.999999999999,39.,25.));
#415 = VECTOR('',#416,1.);
#416 = DIRECTION('',(-1.,0.,0.));
#417 = PLANE('',#418);
#418 = AXIS2_PLACEMENT_3D('',#419,#420,#421);
#419 = CARTESIAN_POINT('',(-5.637979976046E-13,-1.495403527947E-13,25.)
  );
#420 = DIRECTION('',(0.,0.,1.));
#421 = DIRECTION('',(1.,0.,0.));
#422 = ADVANCED_FACE('',(#423),#442,.F.);
#423 = FACE_BOUND('',#424,.F.);
#424 = EDGE_LOOP('',(#425,#426,#434,#441));
#425 = ORIENTED_EDGE('',*,*,#71,.T.);
#426 = ORIENTED_EDGE('',*,*,#427,.T.);
#427 = EDGE_CURVE('',#72,#428,#430,.T.);
#428 = VERTEX_POINT('',#429);
#429 = CARTESIAN_POINT('',(-45.,39.,29.9));
#430 = LINE('',#431,#432);
#431 = CARTESIAN_POINT('',(-45.,40.,29.9));
#432 = VECTOR('',#433,1.);
#433 = DIRECTION('',(0.,-1.,0.));
#434 = ORIENTED_EDGE('',*,*,#435,.F.);
#435 = EDGE_CURVE('',#387,#428,#436,.T.);
#436 = CIRCLE('',#437,4.9);
#437 = AXIS2_PLACEMENT_3D('',#438,#439,#440);
#438 = CARTESIAN_POINT('',(-49.9,39.,29.9));
#439 = DIRECTION('',(0.,-1.,0.));
#440 = DIRECTION('',(0.,0.,-1.));
#441 = ORIENTED_EDGE('',*,*,#386,.F.);
#442 = CYLINDRICAL_SURFACE('',#443,4.9);
#443 = AXIS2_PLACEMENT_3D('',#444,#445,#446);
#444 = CARTESIAN_POINT('',(-49.9,40.,29.9));
#445 = DIRECTION('',(0.,-1.,0.));
#446 = DIRECTION('',(-0.,-0.,-1.));
#447 = ADVANCED_FACE('',(#448),#476,.T.);
#448 = FACE_BOUND('',#449,.F.);
#449 = EDGE_LOOP('',(#450,#459,#460,#461,#470));
#450 = ORIENTED_EDGE('',*,*,#451,.F.);
#451 = EDGE_CURVE('',#207,#452,#454,.T.);
#452 = VERTEX_POINT('',#453);
#453 = CARTESIAN_POINT('',(-60.,30.000000000002,0.));
#454 = CIRCLE('',#455,10.);
#455 = AXIS2_PLACEMENT_3D('',#456,#457,#458);
#456 = CARTESIAN_POINT('',(-50.,30.,0.));
#457 = DIRECTION('',(0.,0.,1.));
#458 = DIRECTION('',(1.,0.,0.));
#459 = ORIENTED_EDGE('',*,*,#214,.T.);
#460 = ORIENTED_EDGE('',*,*,#395,.T.);
#461 = ORIENTED_EDGE('',*,*,#462,.F.);
#462 = EDGE_CURVE('',#463,#396,#465,.T.);
#463 = VERTEX_POINT('',#464);
#464 = CARTESIAN_POINT('',(-60.,30.000000000002,22.265822784811));
#465 = ELLIPSE('',#466,10.451281748085,10.);
#466 = AXIS2_PLACEMENT_3D('',#467,#468,#469);
#467 = CARTESIAN_POINT('',(-50.,30.,22.26582278481));
#468 = DIRECTION('',(0.,0.290679627319,-0.956820439927));
#469 = DIRECTION('',(0.,-0.956820439927,-0.290679627319));
#470 = ORIENTED_EDGE('',*,*,#471,.F.);
#471 = EDGE_CURVE('',#452,#463,#472,.T.);
#472 = LINE('',#473,#474);
#473 = CARTESIAN_POINT('',(-60.,30.000000000002,0.));
#474 = VECTOR('',#475,1.);
#475 = DIRECTION('',(0.,0.,1.));
#476 = CYLINDRICAL_SURFACE('',#477,10.);
#477 = AXIS2_PLACEMENT_3D('',#478,#479,#480);
#478 = CARTESIAN_POINT('',(-50.,30.,0.));
#479 = DIRECTION('',(-0.,-0.,-1.));
#480 = DIRECTION('',(1.,0.,0.));
#481 = ADVANCED_FACE('',(#482),#500,.F.);
#482 = FACE_BOUND('',#483,.F.);
#483 = EDGE_LOOP('',(#484,#485,#493,#499));
#484 = ORIENTED_EDGE('',*,*,#80,.T.);
#485 = ORIENTED_EDGE('',*,*,#486,.T.);
#486 = EDGE_CURVE('',#81,#487,#489,.T.);
#487 = VERTEX_POINT('',#488);
#488 = CARTESIAN_POINT('',(-45.,39.,35.1));
#489 = LINE('',#490,#491);
#490 = CARTESIAN_POINT('',(-45.,40.,35.1));
#491 = VECTOR('',#492,1.);
#492 = DIRECTION('',(0.,-1.,0.));
#493 = ORIENTED_EDGE('',*,*,#494,.F.);
#494 = EDGE_CURVE('',#428,#487,#495,.T.);
#495 = LINE('',#496,#497);
#496 = CARTESIAN_POINT('',(-45.,39.,25.));
#497 = VECTOR('',#498,1.);
#498 = DIRECTION('',(0.,0.,1.));
#499 = ORIENTED_EDGE('',*,*,#427,.F.);
#500 = PLANE('',#501);
#501 = AXIS2_PLACEMENT_3D('',#502,#503,#504);
#502 = CARTESIAN_POINT('',(-45.,40.,25.));
#503 = DIRECTION('',(1.,0.,0.));
#504 = DIRECTION('',(0.,-1.,0.));
#505 = ADVANCED_FACE('',(#506),#559,.F.);
#506 = FACE_BOUND('',#507,.F.);
#507 = EDGE_LOOP('',(#508,#518,#527,#535,#542,#543,#544,#552));
#508 = ORIENTED_EDGE('',*,*,#509,.T.);
#509 = EDGE_CURVE('',#510,#512,#514,.T.);
#510 = VERTEX_POINT('',#511);
#511 = CARTESIAN_POINT('',(-50.,-40.,0.));
#512 = VERTEX_POINT('',#513);
#513 = CARTESIAN_POINT('',(49.999999999999,-40.,0.));
#514 = LINE('',#515,#516);
#515 = CARTESIAN_POINT('',(-50.,-40.,0.));
#516 = VECTOR('',#517,1.);
#517 = DIRECTION('',(1.,0.,0.));
#518 = ORIENTED_EDGE('',*,*,#519,.T.);
#519 = EDGE_CURVE('',#512,#520,#522,.T.);
#520 = VERTEX_POINT('',#521);
#521 = CARTESIAN_POINT('',(59.999999999999,-30.,0.));
#522 = CIRCLE('',#523,10.);
#523 = AXIS2_PLACEMENT_3D('',#524,#525,#526);
#524 = CARTESIAN_POINT('',(49.999999999999,-30.,0.));
#525 = DIRECTION('',(0.,0.,1.));
#526 = DIRECTION('',(1.,0.,0.));
#527 = ORIENTED_EDGE('',*,*,#528,.T.);
#528 = EDGE_CURVE('',#520,#529,#531,.T.);
#529 = VERTEX_POINT('',#530);
#530 = CARTESIAN_POINT('',(59.999999999999,30.000000000002,0.));
#531 = LINE('',#532,#533);
#532 = CARTESIAN_POINT('',(59.999999999999,-30.,0.));
#533 = VECTOR('',#534,1.);
#534 = DIRECTION('',(0.,1.,0.));
#535 = ORIENTED_EDGE('',*,*,#536,.T.);
#536 = EDGE_CURVE('',#529,#199,#537,.T.);
#537 = CIRCLE('',#538,10.);
#538 = AXIS2_PLACEMENT_3D('',#539,#540,#541);
#539 = CARTESIAN_POINT('',(49.999999999999,30.,0.));
#540 = DIRECTION('',(0.,0.,1.));
#541 = DIRECTION('',(1.,0.,0.));
#542 = ORIENTED_EDGE('',*,*,#206,.T.);
#543 = ORIENTED_EDGE('',*,*,#451,.T.);
#544 = ORIENTED_EDGE('',*,*,#545,.T.);
#545 = EDGE_CURVE('',#452,#546,#548,.T.);
#546 = VERTEX_POINT('',#547);
#547 = CARTESIAN_POINT('',(-60.,-30.,0.));
#548 = LINE('',#549,#550);
#549 = CARTESIAN_POINT('',(-60.,30.000000000002,0.));
#550 = VECTOR('',#551,1.);
#551 = DIRECTION('',(0.,-1.,0.));
#552 = ORIENTED_EDGE('',*,*,#553,.T.);
#553 = EDGE_CURVE('',#546,#510,#554,.T.);
#554 = CIRCLE('',#555,10.);
#555 = AXIS2_PLACEMENT_3D('',#556,#557,#558);
#556 = CARTESIAN_POINT('',(-50.,-30.,0.));
#557 = DIRECTION('',(0.,0.,1.));
#558 = DIRECTION('',(1.,0.,0.));
#559 = PLANE('',#560);
#560 = AXIS2_PLACEMENT_3D('',#561,#562,#563);
#561 = CARTESIAN_POINT('',(-5.637979976046E-13,-1.495403527947E-13,0.));
#562 = DIRECTION('',(0.,0.,1.));
#563 = DIRECTION('',(1.,0.,0.));
#564 = ADVANCED_FACE('',(#565),#584,.T.);
#565 = FACE_BOUND('',#566,.F.);
#566 = EDGE_LOOP('',(#567,#568,#576,#583));
#567 = ORIENTED_EDGE('',*,*,#88,.T.);
#568 = ORIENTED_EDGE('',*,*,#569,.T.);
#569 = EDGE_CURVE('',#89,#570,#572,.T.);
#570 = VERTEX_POINT('',#571);
#571 = CARTESIAN_POINT('',(-40.1,39.,40.));
#572 = LINE('',#573,#574);
#573 = CARTESIAN_POINT('',(-40.1,40.,40.));
#574 = VECTOR('',#575,1.);
#575 = DIRECTION('',(0.,-1.,0.));
#576 = ORIENTED_EDGE('',*,*,#577,.F.);
#577 = EDGE_CURVE('',#487,#570,#578,.T.);
#578 = CIRCLE('',#579,4.9);
#579 = AXIS2_PLACEMENT_3D('',#580,#581,#582);
#580 = CARTESIAN_POINT('',(-40.1,39.,35.1));
#581 = DIRECTION('',(-0.,1.,0.));
#582 = DIRECTION('',(0.,0.,-1.));
#583 = ORIENTED_EDGE('',*,*,#486,.F.);
#584 = CYLINDRICAL_SURFACE('',#585,4.9);
#585 = AXIS2_PLACEMENT_3D('',#586,#587,#588);
#586 = CARTESIAN_POINT('',(-40.1,40.,35.1));
#587 = DIRECTION('',(0.,-1.,0.));
#588 = DIRECTION('',(-1.,0.,0.));
#589 = ADVANCED_FACE('',(#590),#618,.T.);
#590 = FACE_BOUND('',#591,.F.);
#591 = EDGE_LOOP('',(#592,#593,#601,#610,#617));
#592 = ORIENTED_EDGE('',*,*,#536,.F.);
#593 = ORIENTED_EDGE('',*,*,#594,.T.);
#594 = EDGE_CURVE('',#529,#595,#597,.T.);
#595 = VERTEX_POINT('',#596);
#596 = CARTESIAN_POINT('',(59.999999999999,30.000000000002,
    22.265822784811));
#597 = LINE('',#598,#599);
#598 = CARTESIAN_POINT('',(59.999999999999,30.000000000002,0.));
#599 = VECTOR('',#600,1.);
#600 = DIRECTION('',(0.,0.,1.));
#601 = ORIENTED_EDGE('',*,*,#602,.F.);
#602 = EDGE_CURVE('',#603,#595,#605,.T.);
#603 = VERTEX_POINT('',#604);
#604 = CARTESIAN_POINT('',(54.35889894354,39.,25.));
#605 = ELLIPSE('',#606,10.451281748085,10.);
#606 = AXIS2_PLACEMENT_3D('',#607,#608,#609);
#607 = CARTESIAN_POINT('',(49.999999999999,30.,22.26582278481));
#608 = DIRECTION('',(0.,0.290679627319,-0.956820439927));
#609 = DIRECTION('',(0.,-0.956820439927,-0.290679627319));
#610 = ORIENTED_EDGE('',*,*,#611,.T.);
#611 = EDGE_CURVE('',#603,#191,#612,.T.);
#612 = CIRCLE('',#613,10.);
#613 = AXIS2_PLACEMENT_3D('',#614,#615,#616);
#614 = CARTESIAN_POINT('',(49.999999999999,30.,25.));
#615 = DIRECTION('',(0.,0.,1.));
#616 = DIRECTION('',(1.,0.,0.));
#617 = ORIENTED_EDGE('',*,*,#198,.F.);
#618 = CYLINDRICAL_SURFACE('',#619,10.);
#619 = AXIS2_PLACEMENT_3D('',#620,#621,#622);
#620 = CARTESIAN_POINT('',(49.999999999999,30.,0.));
#621 = DIRECTION('',(-0.,-0.,-1.));
#622 = DIRECTION('',(1.,0.,0.));
#623 = ADVANCED_FACE('',(#624),#642,.T.);
#624 = FACE_BOUND('',#625,.T.);
#625 = EDGE_LOOP('',(#626,#634,#640,#641));
#626 = ORIENTED_EDGE('',*,*,#627,.T.);
#627 = EDGE_CURVE('',#570,#628,#630,.T.);
#628 = VERTEX_POINT('',#629);
#629 = CARTESIAN_POINT('',(-34.9,39.,40.));
#630 = LINE('',#631,#632);
#631 = CARTESIAN_POINT('',(-45.,39.,40.));
#632 = VECTOR('',#633,1.);
#633 = DIRECTION('',(1.,0.,0.));
#634 = ORIENTED_EDGE('',*,*,#635,.T.);
#635 = EDGE_CURVE('',#628,#98,#636,.T.);
#636 = LINE('',#637,#638);
#637 = CARTESIAN_POINT('',(-34.9,39.,40.));
#638 = VECTOR('',#639,1.);
#639 = DIRECTION('',(0.,1.,0.));
#640 = ORIENTED_EDGE('',*,*,#97,.T.);
#641 = ORIENTED_EDGE('',*,*,#569,.T.);
#642 = PLANE('',#643);
#643 = AXIS2_PLACEMENT_3D('',#644,#645,#646);
#644 = CARTESIAN_POINT('',(-1.665334536938E-15,39.5,40.));
#645 = DIRECTION('',(0.,0.,1.));
#646 = DIRECTION('',(1.,0.,0.));
#647 = ADVANCED_FACE('',(#648),#674,.T.);
#648 = FACE_BOUND('',#649,.T.);
#649 = EDGE_LOOP('',(#650,#658,#659,#660,#668));
#650 = ORIENTED_EDGE('',*,*,#651,.F.);
#651 = EDGE_CURVE('',#603,#652,#654,.T.);
#652 = VERTEX_POINT('',#653);
#653 = CARTESIAN_POINT('',(49.999999999999,39.,25.));
#654 = LINE('',#655,#656);
#655 = CARTESIAN_POINT('',(59.999999999999,39.,25.));
#656 = VECTOR('',#657,1.);
#657 = DIRECTION('',(-1.,-0.,-0.));
#658 = ORIENTED_EDGE('',*,*,#611,.T.);
#659 = ORIENTED_EDGE('',*,*,#190,.T.);
#660 = ORIENTED_EDGE('',*,*,#661,.F.);
#661 = EDGE_CURVE('',#662,#182,#664,.T.);
#662 = VERTEX_POINT('',#663);
#663 = CARTESIAN_POINT('',(49.9,39.,25.));
#664 = LINE('',#665,#666);
#665 = CARTESIAN_POINT('',(49.9,39.,25.));
#666 = VECTOR('',#667,1.);
#667 = DIRECTION('',(0.,1.,0.));
#668 = ORIENTED_EDGE('',*,*,#669,.F.);
#669 = EDGE_CURVE('',#652,#662,#670,.T.);
#670 = LINE('',#671,#672);
#671 = CARTESIAN_POINT('',(49.999999999999,39.,25.));
#672 = VECTOR('',#673,1.);
#673 = DIRECTION('',(-1.,0.,0.));
#674 = PLANE('',#675);
#675 = AXIS2_PLACEMENT_3D('',#676,#677,#678);
#676 = CARTESIAN_POINT('',(-5.637979976046E-13,-1.495403527947E-13,25.)
  );
#677 = DIRECTION('',(0.,0.,1.));
#678 = DIRECTION('',(1.,0.,0.));
#679 = ADVANCED_FACE('',(#680),#699,.T.);
#680 = FACE_BOUND('',#681,.T.);
#681 = EDGE_LOOP('',(#682,#691,#697,#698));
#682 = ORIENTED_EDGE('',*,*,#683,.T.);
#683 = EDGE_CURVE('',#628,#684,#686,.T.);
#684 = VERTEX_POINT('',#685);
#685 = CARTESIAN_POINT('',(-30.,39.,35.1));
#686 = CIRCLE('',#687,4.9);
#687 = AXIS2_PLACEMENT_3D('',#688,#689,#690);
#688 = CARTESIAN_POINT('',(-34.9,39.,35.1));
#689 = DIRECTION('',(0.,1.,0.));
#690 = DIRECTION('',(0.,0.,1.));
#691 = ORIENTED_EDGE('',*,*,#692,.T.);
#692 = EDGE_CURVE('',#684,#106,#693,.T.);
#693 = LINE('',#694,#695);
#694 = CARTESIAN_POINT('',(-30.,39.,35.1));
#695 = VECTOR('',#696,1.);
#696 = DIRECTION('',(0.,1.,0.));
#697 = ORIENTED_EDGE('',*,*,#105,.F.);
#698 = ORIENTED_EDGE('',*,*,#635,.F.);
#699 = CYLINDRICAL_SURFACE('',#700,4.9);
#700 = AXIS2_PLACEMENT_3D('',#701,#702,#703);
#701 = CARTESIAN_POINT('',(-34.9,39.,35.1));
#702 = DIRECTION('',(0.,1.,0.));
#703 = DIRECTION('',(0.,0.,1.));
#704 = ADVANCED_FACE('',(#705),#724,.F.);
#705 = FACE_BOUND('',#706,.F.);
#706 = EDGE_LOOP('',(#707,#716,#722,#723));
#707 = ORIENTED_EDGE('',*,*,#708,.T.);
#708 = EDGE_CURVE('',#662,#709,#711,.T.);
#709 = VERTEX_POINT('',#710);
#710 = CARTESIAN_POINT('',(45.,39.,29.9));
#711 = CIRCLE('',#712,4.9);
#712 = AXIS2_PLACEMENT_3D('',#713,#714,#715);
#713 = CARTESIAN_POINT('',(49.9,39.,29.9));
#714 = DIRECTION('',(0.,1.,0.));
#715 = DIRECTION('',(0.,0.,1.));
#716 = ORIENTED_EDGE('',*,*,#717,.T.);
#717 = EDGE_CURVE('',#709,#174,#718,.T.);
#718 = LINE('',#719,#720);
#719 = CARTESIAN_POINT('',(45.,39.,29.9));
#720 = VECTOR('',#721,1.);
#721 = DIRECTION('',(0.,1.,0.));
#722 = ORIENTED_EDGE('',*,*,#181,.F.);
#723 = ORIENTED_EDGE('',*,*,#661,.F.);
#724 = CYLINDRICAL_SURFACE('',#725,4.9);
#725 = AXIS2_PLACEMENT_3D('',#726,#727,#728);
#726 = CARTESIAN_POINT('',(49.9,39.,29.9));
#727 = DIRECTION('',(0.,1.,0.));
#728 = DIRECTION('',(0.,0.,-1.));
#729 = ADVANCED_FACE('',(#730),#741,.F.);
#730 = FACE_BOUND('',#731,.F.);
#731 = EDGE_LOOP('',(#732,#738,#739,#740));
#732 = ORIENTED_EDGE('',*,*,#733,.T.);
#733 = EDGE_CURVE('',#362,#684,#734,.T.);
#734 = LINE('',#735,#736);
#735 = CARTESIAN_POINT('',(-30.,39.,25.));
#736 = VECTOR('',#737,1.);
#737 = DIRECTION('',(0.,0.,1.));
#738 = ORIENTED_EDGE('',*,*,#692,.T.);
#739 = ORIENTED_EDGE('',*,*,#114,.F.);
#740 = ORIENTED_EDGE('',*,*,#370,.F.);
#741 = PLANE('',#742);
#742 = AXIS2_PLACEMENT_3D('',#743,#744,#745);
#743 = CARTESIAN_POINT('',(-30.,39.,25.));
#744 = DIRECTION('',(-1.,0.,0.));
#745 = DIRECTION('',(0.,1.,0.));
#746 = ADVANCED_FACE('',(#747),#765,.F.);
#747 = FACE_BOUND('',#748,.F.);
#748 = EDGE_LOOP('',(#749,#757,#763,#764));
#749 = ORIENTED_EDGE('',*,*,#750,.T.);
#750 = EDGE_CURVE('',#709,#751,#753,.T.);
#751 = VERTEX_POINT('',#752);
#752 = CARTESIAN_POINT('',(45.,39.,35.1));
#753 = LINE('',#754,#755);
#754 = CARTESIAN_POINT('',(45.,39.,25.));
#755 = VECTOR('',#756,1.);
#756 = DIRECTION('',(0.,0.,1.));
#757 = ORIENTED_EDGE('',*,*,#758,.T.);
#758 = EDGE_CURVE('',#751,#165,#759,.T.);
#759 = LINE('',#760,#761);
#760 = CARTESIAN_POINT('',(45.,39.,35.1));
#761 = VECTOR('',#762,1.);
#762 = DIRECTION('',(0.,1.,0.));
#763 = ORIENTED_EDGE('',*,*,#173,.F.);
#764 = ORIENTED_EDGE('',*,*,#717,.F.);
#765 = PLANE('',#766);
#766 = AXIS2_PLACEMENT_3D('',#767,#768,#769);
#767 = CARTESIAN_POINT('',(45.,39.,25.));
#768 = DIRECTION('',(-1.,0.,0.));
#769 = DIRECTION('',(0.,1.,0.));
#770 = ADVANCED_FACE('',(#771),#790,.T.);
#771 = FACE_BOUND('',#772,.F.);
#772 = EDGE_LOOP('',(#773,#782,#788,#789));
#773 = ORIENTED_EDGE('',*,*,#774,.T.);
#774 = EDGE_CURVE('',#751,#775,#777,.T.);
#775 = VERTEX_POINT('',#776);
#776 = CARTESIAN_POINT('',(40.1,39.,40.));
#777 = CIRCLE('',#778,4.9);
#778 = AXIS2_PLACEMENT_3D('',#779,#780,#781);
#779 = CARTESIAN_POINT('',(40.1,39.,35.1));
#780 = DIRECTION('',(0.,-1.,0.));
#781 = DIRECTION('',(0.,0.,1.));
#782 = ORIENTED_EDGE('',*,*,#783,.T.);
#783 = EDGE_CURVE('',#775,#157,#784,.T.);
#784 = LINE('',#785,#786);
#785 = CARTESIAN_POINT('',(40.1,39.,40.));
#786 = VECTOR('',#787,1.);
#787 = DIRECTION('',(0.,1.,0.));
#788 = ORIENTED_EDGE('',*,*,#164,.F.);
#789 = ORIENTED_EDGE('',*,*,#758,.F.);
#790 = CYLINDRICAL_SURFACE('',#791,4.9);
#791 = AXIS2_PLACEMENT_3D('',#792,#793,#794);
#792 = CARTESIAN_POINT('',(40.1,39.,35.1));
#793 = DIRECTION('',(0.,1.,0.));
#794 = DIRECTION('',(1.,0.,0.));
#795 = ADVANCED_FACE('',(#796),#814,.T.);
#796 = FACE_BOUND('',#797,.T.);
#797 = EDGE_LOOP('',(#798,#806,#807,#808));
#798 = ORIENTED_EDGE('',*,*,#799,.T.);
#799 = EDGE_CURVE('',#800,#775,#802,.T.);
#800 = VERTEX_POINT('',#801);
#801 = CARTESIAN_POINT('',(34.9,39.,40.));
#802 = LINE('',#803,#804);
#803 = CARTESIAN_POINT('',(30.,39.,40.));
#804 = VECTOR('',#805,1.);
#805 = DIRECTION('',(1.,0.,0.));
#806 = ORIENTED_EDGE('',*,*,#783,.T.);
#807 = ORIENTED_EDGE('',*,*,#156,.T.);
#808 = ORIENTED_EDGE('',*,*,#809,.T.);
#809 = EDGE_CURVE('',#148,#800,#810,.T.);
#810 = LINE('',#811,#812);
#811 = CARTESIAN_POINT('',(34.9,40.,40.));
#812 = VECTOR('',#813,1.);
#813 = DIRECTION('',(0.,-1.,0.));
#814 = PLANE('',#815);
#815 = AXIS2_PLACEMENT_3D('',#816,#817,#818);
#816 = CARTESIAN_POINT('',(-1.665334536938E-15,39.5,40.));
#817 = DIRECTION('',(0.,0.,1.));
#818 = DIRECTION('',(1.,0.,0.));
#819 = ADVANCED_FACE('',(#820),#839,.T.);
#820 = FACE_BOUND('',#821,.F.);
#821 = EDGE_LOOP('',(#822,#823,#824,#833));
#822 = ORIENTED_EDGE('',*,*,#147,.T.);
#823 = ORIENTED_EDGE('',*,*,#809,.T.);
#824 = ORIENTED_EDGE('',*,*,#825,.F.);
#825 = EDGE_CURVE('',#826,#800,#828,.T.);
#826 = VERTEX_POINT('',#827);
#827 = CARTESIAN_POINT('',(30.,39.,35.1));
#828 = CIRCLE('',#829,4.9);
#829 = AXIS2_PLACEMENT_3D('',#830,#831,#832);
#830 = CARTESIAN_POINT('',(34.9,39.,35.1));
#831 = DIRECTION('',(-0.,1.,0.));
#832 = DIRECTION('',(0.,0.,-1.));
#833 = ORIENTED_EDGE('',*,*,#834,.F.);
#834 = EDGE_CURVE('',#140,#826,#835,.T.);
#835 = LINE('',#836,#837);
#836 = CARTESIAN_POINT('',(30.,40.,35.1));
#837 = VECTOR('',#838,1.);
#838 = DIRECTION('',(0.,-1.,0.));
#839 = CYLINDRICAL_SURFACE('',#840,4.9);
#840 = AXIS2_PLACEMENT_3D('',#841,#842,#843);
#841 = CARTESIAN_POINT('',(34.9,40.,35.1));
#842 = DIRECTION('',(0.,-1.,0.));
#843 = DIRECTION('',(-1.,0.,0.));
#844 = ADVANCED_FACE('',(#845),#856,.F.);
#845 = FACE_BOUND('',#846,.F.);
#846 = EDGE_LOOP('',(#847,#848,#849,#855));
#847 = ORIENTED_EDGE('',*,*,#139,.T.);
#848 = ORIENTED_EDGE('',*,*,#834,.T.);
#849 = ORIENTED_EDGE('',*,*,#850,.F.);
#850 = EDGE_CURVE('',#338,#826,#851,.T.);
#851 = LINE('',#852,#853);
#852 = CARTESIAN_POINT('',(30.,39.,25.));
#853 = VECTOR('',#854,1.);
#854 = DIRECTION('',(0.,0.,1.));
#855 = ORIENTED_EDGE('',*,*,#337,.F.);
#856 = PLANE('',#857);
#857 = AXIS2_PLACEMENT_3D('',#858,#859,#860);
#858 = CARTESIAN_POINT('',(30.,40.,25.));
#859 = DIRECTION('',(1.,0.,0.));
#860 = DIRECTION('',(0.,-1.,0.));
#861 = ADVANCED_FACE('',(#862),#888,.T.);
#862 = FACE_BOUND('',#863,.T.);
#863 = EDGE_LOOP('',(#864,#875,#881,#882));
#864 = ORIENTED_EDGE('',*,*,#865,.F.);
#865 = EDGE_CURVE('',#866,#868,#870,.T.);
#866 = VERTEX_POINT('',#867);
#867 = CARTESIAN_POINT('',(-39.9,39.,32.300000000001));
#868 = VERTEX_POINT('',#869);
#869 = CARTESIAN_POINT('',(-39.5,39.,33.1));
#870 = CIRCLE('',#871,0.999999999998);
#871 = AXIS2_PLACEMENT_3D('',#872,#873,#874);
#872 = CARTESIAN_POINT('',(-40.49999999999,39.,33.1));
#873 = DIRECTION('',(0.,-1.,2.22044604925E-16));
#874 = DIRECTION('',(1.,0.,0.));
#875 = ORIENTED_EDGE('',*,*,#876,.T.);
#876 = EDGE_CURVE('',#866,#223,#877,.T.);
#877 = LINE('',#878,#879);
#878 = CARTESIAN_POINT('',(-39.9,39.,32.300000000001));
#879 = VECTOR('',#880,1.);
#880 = DIRECTION('',(0.,1.,-2.22044604925E-16));
#881 = ORIENTED_EDGE('',*,*,#222,.T.);
#882 = ORIENTED_EDGE('',*,*,#883,.F.);
#883 = EDGE_CURVE('',#868,#225,#884,.T.);
#884 = LINE('',#885,#886);
#885 = CARTESIAN_POINT('',(-39.5,39.,33.1));
#886 = VECTOR('',#887,1.);
#887 = DIRECTION('',(0.,1.,-2.22044604925E-16));
#888 = CYLINDRICAL_SURFACE('',#889,0.999999999998);
#889 = AXIS2_PLACEMENT_3D('',#890,#891,#892);
#890 = CARTESIAN_POINT('',(-40.49999999999,39.,33.1));
#891 = DIRECTION('',(0.,-1.,2.22044604925E-16));
#892 = DIRECTION('',(1.,0.,0.));
#893 = ADVANCED_FACE('',(#894),#912,.F.);
#894 = FACE_BOUND('',#895,.F.);
#895 = EDGE_LOOP('',(#896,#904,#910,#911));
#896 = ORIENTED_EDGE('',*,*,#897,.F.);
#897 = EDGE_CURVE('',#898,#868,#900,.T.);
#898 = VERTEX_POINT('',#899);
#899 = CARTESIAN_POINT('',(-39.5,39.,35.1));
#900 = LINE('',#901,#902);
#901 = CARTESIAN_POINT('',(-39.5,39.,35.1));
#902 = VECTOR('',#903,1.);
#903 = DIRECTION('',(0.,-2.22044604925E-16,-1.));
#904 = ORIENTED_EDGE('',*,*,#905,.T.);
#905 = EDGE_CURVE('',#898,#260,#906,.T.);
#906 = LINE('',#907,#908);
#907 = CARTESIAN_POINT('',(-39.5,39.,35.1));
#908 = VECTOR('',#909,1.);
#909 = DIRECTION('',(0.,1.,-2.22044604925E-16));
#910 = ORIENTED_EDGE('',*,*,#268,.F.);
#911 = ORIENTED_EDGE('',*,*,#883,.F.);
#912 = PLANE('',#913);
#913 = AXIS2_PLACEMENT_3D('',#914,#915,#916);
#914 = CARTESIAN_POINT('',(-39.5,39.,35.1));
#915 = DIRECTION('',(-1.,0.,0.));
#916 = DIRECTION('',(0.,-2.22044604925E-16,-1.));
#917 = ADVANCED_FACE('',(#918),#937,.F.);
#918 = FACE_BOUND('',#919,.F.);
#919 = EDGE_LOOP('',(#920,#929,#935,#936));
#920 = ORIENTED_EDGE('',*,*,#921,.F.);
#921 = EDGE_CURVE('',#922,#898,#924,.T.);
#922 = VERTEX_POINT('',#923);
#923 = CARTESIAN_POINT('',(-35.5,39.,35.1));
#924 = CIRCLE('',#925,2.);
#925 = AXIS2_PLACEMENT_3D('',#926,#927,#928);
#926 = CARTESIAN_POINT('',(-37.5,39.,35.1));
#927 = DIRECTION('',(0.,-1.,2.22044604925E-16));
#928 = DIRECTION('',(1.,0.,0.));
#929 = ORIENTED_EDGE('',*,*,#930,.T.);
#930 = EDGE_CURVE('',#922,#252,#931,.T.);
#931 = LINE('',#932,#933);
#932 = CARTESIAN_POINT('',(-35.5,39.,35.1));
#933 = VECTOR('',#934,1.);
#934 = DIRECTION('',(0.,1.,-2.22044604925E-16));
#935 = ORIENTED_EDGE('',*,*,#259,.T.);
#936 = ORIENTED_EDGE('',*,*,#905,.F.);
#937 = CYLINDRICAL_SURFACE('',#938,2.);
#938 = AXIS2_PLACEMENT_3D('',#939,#940,#941);
#939 = CARTESIAN_POINT('',(-37.5,39.,35.1));
#940 = DIRECTION('',(0.,-1.,2.22044604925E-16));
#941 = DIRECTION('',(1.,0.,0.));
#942 = ADVANCED_FACE('',(#943),#961,.T.);
#943 = FACE_BOUND('',#944,.T.);
#944 = EDGE_LOOP('',(#945,#953,#954,#955));
#945 = ORIENTED_EDGE('',*,*,#946,.F.);
#946 = EDGE_CURVE('',#922,#947,#949,.T.);
#947 = VERTEX_POINT('',#948);
#948 = CARTESIAN_POINT('',(-35.5,39.,33.1));
#949 = LINE('',#950,#951);
#950 = CARTESIAN_POINT('',(-35.5,39.,35.1));
#951 = VECTOR('',#952,1.);
#952 = DIRECTION('',(0.,-2.22044604925E-16,-1.));
#953 = ORIENTED_EDGE('',*,*,#930,.T.);
#954 = ORIENTED_EDGE('',*,*,#251,.F.);
#955 = ORIENTED_EDGE('',*,*,#956,.F.);
#956 = EDGE_CURVE('',#947,#243,#957,.T.);
#957 = LINE('',#958,#959);
#958 = CARTESIAN_POINT('',(-35.5,39.,33.1));
#959 = VECTOR('',#960,1.);
#960 = DIRECTION('',(0.,1.,-2.22044604925E-16));
#961 = PLANE('',#962);
#962 = AXIS2_PLACEMENT_3D('',#963,#964,#965);
#963 = CARTESIAN_POINT('',(-35.5,39.,35.1));
#964 = DIRECTION('',(-1.,0.,0.));
#965 = DIRECTION('',(0.,-2.22044604925E-16,-1.));
#966 = ADVANCED_FACE('',(#967),#986,.T.);
#967 = FACE_BOUND('',#968,.T.);
#968 = EDGE_LOOP('',(#969,#978,#979,#980));
#969 = ORIENTED_EDGE('',*,*,#970,.F.);
#970 = EDGE_CURVE('',#947,#971,#973,.T.);
#971 = VERTEX_POINT('',#972);
#972 = CARTESIAN_POINT('',(-35.1,39.,32.3));
#973 = CIRCLE('',#974,1.);
#974 = AXIS2_PLACEMENT_3D('',#975,#976,#977);
#975 = CARTESIAN_POINT('',(-34.5,39.,33.1));
#976 = DIRECTION('',(0.,-1.,2.22044604925E-16));
#977 = DIRECTION('',(1.,0.,0.));
#978 = ORIENTED_EDGE('',*,*,#956,.T.);
#979 = ORIENTED_EDGE('',*,*,#242,.T.);
#980 = ORIENTED_EDGE('',*,*,#981,.F.);
#981 = EDGE_CURVE('',#971,#234,#982,.T.);
#982 = LINE('',#983,#984);
#983 = CARTESIAN_POINT('',(-35.1,39.,32.3));
#984 = VECTOR('',#985,1.);
#985 = DIRECTION('',(0.,1.,-2.22044604925E-16));
#986 = CYLINDRICAL_SURFACE('',#987,1.);
#987 = AXIS2_PLACEMENT_3D('',#988,#989,#990);
#988 = CARTESIAN_POINT('',(-34.5,39.,33.1));
#989 = DIRECTION('',(0.,-1.,2.22044604925E-16));
#990 = DIRECTION('',(1.,0.,0.));
#991 = ADVANCED_FACE('',(#992),#1004,.F.);
#992 = FACE_BOUND('',#993,.F.);
#993 = EDGE_LOOP('',(#994,#1001,#1002,#1003));
#994 = ORIENTED_EDGE('',*,*,#995,.F.);
#995 = EDGE_CURVE('',#866,#971,#996,.T.);
#996 = CIRCLE('',#997,4.);
#997 = AXIS2_PLACEMENT_3D('',#998,#999,#1000);
#998 = CARTESIAN_POINT('',(-37.5,39.,29.1));
#999 = DIRECTION('',(0.,-1.,2.22044604925E-16));
#1000 = DIRECTION('',(1.,0.,0.));
#1001 = ORIENTED_EDGE('',*,*,#876,.T.);
#1002 = ORIENTED_EDGE('',*,*,#233,.T.);
#1003 = ORIENTED_EDGE('',*,*,#981,.F.);
#1004 = CYLINDRICAL_SURFACE('',#1005,4.);
#1005 = AXIS2_PLACEMENT_3D('',#1006,#1007,#1008);
#1006 = CARTESIAN_POINT('',(-37.5,39.,29.1));
#1007 = DIRECTION('',(0.,-1.,2.22044604925E-16));
#1008 = DIRECTION('',(1.,0.,0.));
#1009 = ADVANCED_FACE('',(#1010),#1035,.F.);
#1010 = FACE_BOUND('',#1011,.F.);
#1011 = EDGE_LOOP('',(#1012,#1022,#1028,#1029));
#1012 = ORIENTED_EDGE('',*,*,#1013,.F.);
#1013 = EDGE_CURVE('',#1014,#1016,#1018,.T.);
#1014 = VERTEX_POINT('',#1015);
#1015 = CARTESIAN_POINT('',(35.5,39.,35.1));
#1016 = VERTEX_POINT('',#1017);
#1017 = CARTESIAN_POINT('',(35.5,39.,33.1));
#1018 = LINE('',#1019,#1020);
#1019 = CARTESIAN_POINT('',(35.5,39.,35.1));
#1020 = VECTOR('',#1021,1.);
#1021 = DIRECTION('',(0.,-2.22044604925E-16,-1.));
#1022 = ORIENTED_EDGE('',*,*,#1023,.T.);
#1023 = EDGE_CURVE('',#1014,#279,#1024,.T.);
#1024 = LINE('',#1025,#1026);
#1025 = CARTESIAN_POINT('',(35.5,39.,35.1));
#1026 = VECTOR('',#1027,1.);
#1027 = DIRECTION('',(0.,1.,-2.22044604925E-16));
#1028 = ORIENTED_EDGE('',*,*,#276,.F.);
#1029 = ORIENTED_EDGE('',*,*,#1030,.F.);
#1030 = EDGE_CURVE('',#1016,#277,#1031,.T.);
#1031 = LINE('',#1032,#1033);
#1032 = CARTESIAN_POINT('',(35.5,39.,33.1));
#1033 = VECTOR('',#1034,1.);
#1034 = DIRECTION('',(0.,1.,-2.22044604925E-16));
#1035 = PLANE('',#1036);
#1036 = AXIS2_PLACEMENT_3D('',#1037,#1038,#1039);
#1037 = CARTESIAN_POINT('',(35.5,39.,35.1));
#1038 = DIRECTION('',(-1.,0.,0.));
#1039 = DIRECTION('',(0.,-2.22044604925E-16,-1.));
#1040 = ADVANCED_FACE('',(#1041),#1060,.F.);
#1041 = FACE_BOUND('',#1042,.F.);
#1042 = EDGE_LOOP('',(#1043,#1052,#1058,#1059));
#1043 = ORIENTED_EDGE('',*,*,#1044,.F.);
#1044 = EDGE_CURVE('',#1045,#1014,#1047,.T.);
#1045 = VERTEX_POINT('',#1046);
#1046 = CARTESIAN_POINT('',(39.5,39.,35.1));
#1047 = CIRCLE('',#1048,2.);
#1048 = AXIS2_PLACEMENT_3D('',#1049,#1050,#1051);
#1049 = CARTESIAN_POINT('',(37.5,39.,35.1));
#1050 = DIRECTION('',(0.,-1.,2.22044604925E-16));
#1051 = DIRECTION('',(1.,0.,0.));
#1052 = ORIENTED_EDGE('',*,*,#1053,.T.);
#1053 = EDGE_CURVE('',#1045,#314,#1054,.T.);
#1054 = LINE('',#1055,#1056);
#1055 = CARTESIAN_POINT('',(39.5,39.,35.1));
#1056 = VECTOR('',#1057,1.);
#1057 = DIRECTION('',(0.,1.,-2.22044604925E-16));
#1058 = ORIENTED_EDGE('',*,*,#321,.T.);
#1059 = ORIENTED_EDGE('',*,*,#1023,.F.);
#1060 = CYLINDRICAL_SURFACE('',#1061,2.);
#1061 = AXIS2_PLACEMENT_3D('',#1062,#1063,#1064);
#1062 = CARTESIAN_POINT('',(37.5,39.,35.1));
#1063 = DIRECTION('',(0.,-1.,2.22044604925E-16));
#1064 = DIRECTION('',(1.,0.,0.));
#1065 = ADVANCED_FACE('',(#1066),#1084,.F.);
#1066 = FACE_BOUND('',#1067,.F.);
#1067 = EDGE_LOOP('',(#1068,#1076,#1082,#1083));
#1068 = ORIENTED_EDGE('',*,*,#1069,.F.);
#1069 = EDGE_CURVE('',#1070,#1045,#1072,.T.);
#1070 = VERTEX_POINT('',#1071);
#1071 = CARTESIAN_POINT('',(39.5,39.,33.1));
#1072 = LINE('',#1073,#1074);
#1073 = CARTESIAN_POINT('',(39.5,39.,33.1));
#1074 = VECTOR('',#1075,1.);
#1075 = DIRECTION('',(0.,2.22044604925E-16,1.));
#1076 = ORIENTED_EDGE('',*,*,#1077,.T.);
#1077 = EDGE_CURVE('',#1070,#305,#1078,.T.);
#1078 = LINE('',#1079,#1080);
#1079 = CARTESIAN_POINT('',(39.5,39.,33.1));
#1080 = VECTOR('',#1081,1.);
#1081 = DIRECTION('',(0.,1.,-2.22044604925E-16));
#1082 = ORIENTED_EDGE('',*,*,#313,.F.);
#1083 = ORIENTED_EDGE('',*,*,#1053,.F.);
#1084 = PLANE('',#1085);
#1085 = AXIS2_PLACEMENT_3D('',#1086,#1087,#1088);
#1086 = CARTESIAN_POINT('',(39.5,39.,33.1));
#1087 = DIRECTION('',(1.,0.,0.));
#1088 = DIRECTION('',(0.,2.22044604925E-16,1.));
#1089 = ADVANCED_FACE('',(#1090),#1109,.T.);
#1090 = FACE_BOUND('',#1091,.T.);
#1091 = EDGE_LOOP('',(#1092,#1101,#1102,#1103));
#1092 = ORIENTED_EDGE('',*,*,#1093,.F.);
#1093 = EDGE_CURVE('',#1070,#1094,#1096,.T.);
#1094 = VERTEX_POINT('',#1095);
#1095 = CARTESIAN_POINT('',(39.9,39.,32.3));
#1096 = CIRCLE('',#1097,1.);
#1097 = AXIS2_PLACEMENT_3D('',#1098,#1099,#1100);
#1098 = CARTESIAN_POINT('',(40.5,39.,33.1));
#1099 = DIRECTION('',(0.,-1.,2.22044604925E-16));
#1100 = DIRECTION('',(1.,0.,0.));
#1101 = ORIENTED_EDGE('',*,*,#1077,.T.);
#1102 = ORIENTED_EDGE('',*,*,#304,.T.);
#1103 = ORIENTED_EDGE('',*,*,#1104,.F.);
#1104 = EDGE_CURVE('',#1094,#296,#1105,.T.);
#1105 = LINE('',#1106,#1107);
#1106 = CARTESIAN_POINT('',(39.9,39.,32.3));
#1107 = VECTOR('',#1108,1.);
#1108 = DIRECTION('',(0.,1.,-2.22044604925E-16));
#1109 = CYLINDRICAL_SURFACE('',#1110,1.);
#1110 = AXIS2_PLACEMENT_3D('',#1111,#1112,#1113);
#1111 = CARTESIAN_POINT('',(40.5,39.,33.1));
#1112 = DIRECTION('',(0.,-1.,2.22044604925E-16));
#1113 = DIRECTION('',(1.,0.,0.));
#1114 = ADVANCED_FACE('',(#1115),#1134,.F.);
#1115 = FACE_BOUND('',#1116,.F.);
#1116 = EDGE_LOOP('',(#1117,#1126,#1132,#1133));
#1117 = ORIENTED_EDGE('',*,*,#1118,.F.);
#1118 = EDGE_CURVE('',#1119,#1094,#1121,.T.);
#1119 = VERTEX_POINT('',#1120);
#1120 = CARTESIAN_POINT('',(35.1,39.,32.3));
#1121 = CIRCLE('',#1122,4.);
#1122 = AXIS2_PLACEMENT_3D('',#1123,#1124,#1125);
#1123 = CARTESIAN_POINT('',(37.5,39.,29.1));
#1124 = DIRECTION('',(0.,-1.,2.22044604925E-16));
#1125 = DIRECTION('',(1.,0.,0.));
#1126 = ORIENTED_EDGE('',*,*,#1127,.T.);
#1127 = EDGE_CURVE('',#1119,#287,#1128,.T.);
#1128 = LINE('',#1129,#1130);
#1129 = CARTESIAN_POINT('',(35.1,39.,32.3));
#1130 = VECTOR('',#1131,1.);
#1131 = DIRECTION('',(0.,1.,-2.22044604925E-16));
#1132 = ORIENTED_EDGE('',*,*,#295,.T.);
#1133 = ORIENTED_EDGE('',*,*,#1104,.F.);
#1134 = CYLINDRICAL_SURFACE('',#1135,4.);
#1135 = AXIS2_PLACEMENT_3D('',#1136,#1137,#1138);
#1136 = CARTESIAN_POINT('',(37.5,39.,29.1));
#1137 = DIRECTION('',(0.,-1.,2.22044604925E-16));
#1138 = DIRECTION('',(1.,0.,0.));
#1139 = ADVANCED_FACE('',(#1140),#1152,.T.);
#1140 = FACE_BOUND('',#1141,.T.);
#1141 = EDGE_LOOP('',(#1142,#1149,#1150,#1151));
#1142 = ORIENTED_EDGE('',*,*,#1143,.F.);
#1143 = EDGE_CURVE('',#1119,#1016,#1144,.T.);
#1144 = CIRCLE('',#1145,1.);
#1145 = AXIS2_PLACEMENT_3D('',#1146,#1147,#1148);
#1146 = CARTESIAN_POINT('',(34.5,39.,33.1));
#1147 = DIRECTION('',(0.,-1.,2.22044604925E-16));
#1148 = DIRECTION('',(1.,0.,0.));
#1149 = ORIENTED_EDGE('',*,*,#1127,.T.);
#1150 = ORIENTED_EDGE('',*,*,#286,.T.);
#1151 = ORIENTED_EDGE('',*,*,#1030,.F.);
#1152 = CYLINDRICAL_SURFACE('',#1153,1.);
#1153 = AXIS2_PLACEMENT_3D('',#1154,#1155,#1156);
#1154 = CARTESIAN_POINT('',(34.5,39.,33.1));
#1155 = DIRECTION('',(0.,-1.,2.22044604925E-16));
#1156 = DIRECTION('',(1.,0.,0.));
#1157 = ADVANCED_FACE('',(#1158),#1262,.F.);
#1158 = FACE_BOUND('',#1159,.F.);
#1159 = EDGE_LOOP('',(#1160,#1171,#1179,#1188,#1194,#1195,#1196,#1205,
    #1213,#1222,#1230,#1239,#1247,#1254,#1255,#1256));
#1160 = ORIENTED_EDGE('',*,*,#1161,.T.);
#1161 = EDGE_CURVE('',#1162,#1164,#1166,.T.);
#1162 = VERTEX_POINT('',#1163);
#1163 = CARTESIAN_POINT('',(59.999999999999,-30.,4.037974683544));
#1164 = VERTEX_POINT('',#1165);
#1165 = CARTESIAN_POINT('',(49.999999999999,-40.,1.));
#1166 = ELLIPSE('',#1167,10.451281748085,10.);
#1167 = AXIS2_PLACEMENT_3D('',#1168,#1169,#1170);
#1168 = CARTESIAN_POINT('',(49.999999999999,-30.,4.037974683544));
#1169 = DIRECTION('',(0.,0.290679627319,-0.956820439927));
#1170 = DIRECTION('',(0.,-0.956820439927,-0.290679627319));
#1171 = ORIENTED_EDGE('',*,*,#1172,.T.);
#1172 = EDGE_CURVE('',#1164,#1173,#1175,.T.);
#1173 = VERTEX_POINT('',#1174);
#1174 = CARTESIAN_POINT('',(-50.,-40.,1.));
#1175 = LINE('',#1176,#1177);
#1176 = CARTESIAN_POINT('',(59.999999999999,-40.,1.));
#1177 = VECTOR('',#1178,1.);
#1178 = DIRECTION('',(-1.,-0.,-0.));
#1179 = ORIENTED_EDGE('',*,*,#1180,.T.);
#1180 = EDGE_CURVE('',#1173,#1181,#1183,.T.);
#1181 = VERTEX_POINT('',#1182);
#1182 = CARTESIAN_POINT('',(-60.,-30.,4.037974683544));
#1183 = ELLIPSE('',#1184,10.451281748085,10.);
#1184 = AXIS2_PLACEMENT_3D('',#1185,#1186,#1187);
#1185 = CARTESIAN_POINT('',(-50.,-30.,4.037974683544));
#1186 = DIRECTION('',(0.,0.290679627319,-0.956820439927));
#1187 = DIRECTION('',(0.,-0.956820439927,-0.290679627319));
#1188 = ORIENTED_EDGE('',*,*,#1189,.T.);
#1189 = EDGE_CURVE('',#1181,#463,#1190,.T.);
#1190 = LINE('',#1191,#1192);
#1191 = CARTESIAN_POINT('',(-60.,-8.096376705295,10.692239988265));
#1192 = VECTOR('',#1193,1.);
#1193 = DIRECTION('',(-0.,0.956820439927,0.290679627319));
#1194 = ORIENTED_EDGE('',*,*,#462,.T.);
#1195 = ORIENTED_EDGE('',*,*,#404,.F.);
#1196 = ORIENTED_EDGE('',*,*,#1197,.F.);
#1197 = EDGE_CURVE('',#1198,#405,#1200,.T.);
#1198 = VERTEX_POINT('',#1199);
#1199 = CARTESIAN_POINT('',(-59.,30.000000000002,22.265822784811));
#1200 = ELLIPSE('',#1201,9.406153573277,9.);
#1201 = AXIS2_PLACEMENT_3D('',#1202,#1203,#1204);
#1202 = CARTESIAN_POINT('',(-50.,30.,22.26582278481));
#1203 = DIRECTION('',(0.,0.290679627319,-0.956820439927));
#1204 = DIRECTION('',(0.,-0.956820439927,-0.290679627319));
#1205 = ORIENTED_EDGE('',*,*,#1206,.F.);
#1206 = EDGE_CURVE('',#1207,#1198,#1209,.T.);
#1207 = VERTEX_POINT('',#1208);
#1208 = CARTESIAN_POINT('',(-59.,-30.,4.037974683544));
#1209 = LINE('',#1210,#1211);
#1210 = CARTESIAN_POINT('',(-59.,-8.096376705295,10.692239988265));
#1211 = VECTOR('',#1212,1.);
#1212 = DIRECTION('',(-0.,0.956820439927,0.290679627319));
#1213 = ORIENTED_EDGE('',*,*,#1214,.F.);
#1214 = EDGE_CURVE('',#1215,#1207,#1217,.T.);
#1215 = VERTEX_POINT('',#1216);
#1216 = CARTESIAN_POINT('',(-50.,-39.,1.303797468354));
#1217 = ELLIPSE('',#1218,9.406153573277,9.);
#1218 = AXIS2_PLACEMENT_3D('',#1219,#1220,#1221);
#1219 = CARTESIAN_POINT('',(-50.,-30.,4.037974683544));
#1220 = DIRECTION('',(0.,0.290679627319,-0.956820439927));
#1221 = DIRECTION('',(0.,-0.956820439927,-0.290679627319));
#1222 = ORIENTED_EDGE('',*,*,#1223,.F.);
#1223 = EDGE_CURVE('',#1224,#1215,#1226,.T.);
#1224 = VERTEX_POINT('',#1225);
#1225 = CARTESIAN_POINT('',(49.999999999999,-39.,1.303797468354));
#1226 = LINE('',#1227,#1228);
#1227 = CARTESIAN_POINT('',(4.999999999999,-39.,1.303797468354));
#1228 = VECTOR('',#1229,1.);
#1229 = DIRECTION('',(-1.,0.,0.));
#1230 = ORIENTED_EDGE('',*,*,#1231,.F.);
#1231 = EDGE_CURVE('',#1232,#1224,#1234,.T.);
#1232 = VERTEX_POINT('',#1233);
#1233 = CARTESIAN_POINT('',(58.999999999999,-30.,4.037974683544));
#1234 = ELLIPSE('',#1235,9.406153573277,9.);
#1235 = AXIS2_PLACEMENT_3D('',#1236,#1237,#1238);
#1236 = CARTESIAN_POINT('',(49.999999999999,-30.,4.037974683544));
#1237 = DIRECTION('',(0.,0.290679627319,-0.956820439927));
#1238 = DIRECTION('',(0.,-0.956820439927,-0.290679627319));
#1239 = ORIENTED_EDGE('',*,*,#1240,.F.);
#1240 = EDGE_CURVE('',#1241,#1232,#1243,.T.);
#1241 = VERTEX_POINT('',#1242);
#1242 = CARTESIAN_POINT('',(58.999999999999,30.000000000002,
    22.265822784811));
#1243 = LINE('',#1244,#1245);
#1244 = CARTESIAN_POINT('',(58.999999999999,-35.56153733313,
    2.348393721578));
#1245 = VECTOR('',#1246,1.);
#1246 = DIRECTION('',(-0.,-0.956820439927,-0.290679627319));
#1247 = ORIENTED_EDGE('',*,*,#1248,.F.);
#1248 = EDGE_CURVE('',#652,#1241,#1249,.T.);
#1249 = ELLIPSE('',#1250,9.406153573277,9.);
#1250 = AXIS2_PLACEMENT_3D('',#1251,#1252,#1253);
#1251 = CARTESIAN_POINT('',(49.999999999999,30.,22.26582278481));
#1252 = DIRECTION('',(0.,0.290679627319,-0.956820439927));
#1253 = DIRECTION('',(0.,-0.956820439927,-0.290679627319));
#1254 = ORIENTED_EDGE('',*,*,#651,.F.);
#1255 = ORIENTED_EDGE('',*,*,#602,.T.);
#1256 = ORIENTED_EDGE('',*,*,#1257,.F.);
#1257 = EDGE_CURVE('',#1162,#595,#1258,.T.);
#1258 = LINE('',#1259,#1260);
#1259 = CARTESIAN_POINT('',(59.999999999999,-40.,1.));
#1260 = VECTOR('',#1261,1.);
#1261 = DIRECTION('',(0.,0.956820439927,0.290679627319));
#1262 = PLANE('',#1263);
#1263 = AXIS2_PLACEMENT_3D('',#1264,#1265,#1266);
#1264 = CARTESIAN_POINT('',(59.999999999999,-40.,1.));
#1265 = DIRECTION('',(0.,0.290679627319,-0.956820439927));
#1266 = DIRECTION('',(0.,0.956820439927,0.290679627319));
#1267 = ADVANCED_FACE('',(#1268),#1294,.F.);
#1268 = FACE_BOUND('',#1269,.T.);
#1269 = EDGE_LOOP('',(#1270,#1278,#1287,#1293));
#1270 = ORIENTED_EDGE('',*,*,#1271,.F.);
#1271 = EDGE_CURVE('',#1272,#652,#1274,.T.);
#1272 = VERTEX_POINT('',#1273);
#1273 = CARTESIAN_POINT('',(49.999999999999,39.,1.));
#1274 = LINE('',#1275,#1276);
#1275 = CARTESIAN_POINT('',(49.999999999999,39.,0.));
#1276 = VECTOR('',#1277,1.);
#1277 = DIRECTION('',(0.,0.,1.));
#1278 = ORIENTED_EDGE('',*,*,#1279,.T.);
#1279 = EDGE_CURVE('',#1272,#1280,#1282,.T.);
#1280 = VERTEX_POINT('',#1281);
#1281 = CARTESIAN_POINT('',(58.999999999999,30.000000000002,1.));
#1282 = CIRCLE('',#1283,9.);
#1283 = AXIS2_PLACEMENT_3D('',#1284,#1285,#1286);
#1284 = CARTESIAN_POINT('',(49.999999999999,30.,1.));
#1285 = DIRECTION('',(0.,0.,-1.));
#1286 = DIRECTION('',(1.,0.,0.));
#1287 = ORIENTED_EDGE('',*,*,#1288,.T.);
#1288 = EDGE_CURVE('',#1280,#1241,#1289,.T.);
#1289 = LINE('',#1290,#1291);
#1290 = CARTESIAN_POINT('',(58.999999999999,30.000000000002,0.));
#1291 = VECTOR('',#1292,1.);
#1292 = DIRECTION('',(0.,0.,1.));
#1293 = ORIENTED_EDGE('',*,*,#1248,.F.);
#1294 = CYLINDRICAL_SURFACE('',#1295,9.);
#1295 = AXIS2_PLACEMENT_3D('',#1296,#1297,#1298);
#1296 = CARTESIAN_POINT('',(49.999999999999,30.,0.));
#1297 = DIRECTION('',(-0.,-0.,-1.));
#1298 = DIRECTION('',(1.,0.,0.));
#1299 = ADVANCED_FACE('',(#1300),#1360,.T.);
#1300 = FACE_BOUND('',#1301,.T.);
#1301 = EDGE_LOOP('',(#1302,#1312,#1321,#1327,#1328,#1336,#1345,#1353));
#1302 = ORIENTED_EDGE('',*,*,#1303,.T.);
#1303 = EDGE_CURVE('',#1304,#1306,#1308,.T.);
#1304 = VERTEX_POINT('',#1305);
#1305 = CARTESIAN_POINT('',(-50.,-39.,1.));
#1306 = VERTEX_POINT('',#1307);
#1307 = CARTESIAN_POINT('',(49.999999999999,-39.,1.));
#1308 = LINE('',#1309,#1310);
#1309 = CARTESIAN_POINT('',(-25.,-39.,1.));
#1310 = VECTOR('',#1311,1.);
#1311 = DIRECTION('',(1.,0.,0.));
#1312 = ORIENTED_EDGE('',*,*,#1313,.F.);
#1313 = EDGE_CURVE('',#1314,#1306,#1316,.T.);
#1314 = VERTEX_POINT('',#1315);
#1315 = CARTESIAN_POINT('',(58.999999999999,-30.,1.));
#1316 = CIRCLE('',#1317,9.);
#1317 = AXIS2_PLACEMENT_3D('',#1318,#1319,#1320);
#1318 = CARTESIAN_POINT('',(49.999999999999,-30.,1.));
#1319 = DIRECTION('',(0.,0.,-1.));
#1320 = DIRECTION('',(1.,0.,0.));
#1321 = ORIENTED_EDGE('',*,*,#1322,.T.);
#1322 = EDGE_CURVE('',#1314,#1280,#1323,.T.);
#1323 = LINE('',#1324,#1325);
#1324 = CARTESIAN_POINT('',(58.999999999999,-15.,1.));
#1325 = VECTOR('',#1326,1.);
#1326 = DIRECTION('',(0.,1.,0.));
#1327 = ORIENTED_EDGE('',*,*,#1279,.F.);
#1328 = ORIENTED_EDGE('',*,*,#1329,.T.);
#1329 = EDGE_CURVE('',#1272,#1330,#1332,.T.);
#1330 = VERTEX_POINT('',#1331);
#1331 = CARTESIAN_POINT('',(-50.,39.,1.));
#1332 = LINE('',#1333,#1334);
#1333 = CARTESIAN_POINT('',(24.999999999999,39.,1.));
#1334 = VECTOR('',#1335,1.);
#1335 = DIRECTION('',(-1.,0.,0.));
#1336 = ORIENTED_EDGE('',*,*,#1337,.F.);
#1337 = EDGE_CURVE('',#1338,#1330,#1340,.T.);
#1338 = VERTEX_POINT('',#1339);
#1339 = CARTESIAN_POINT('',(-59.,30.000000000002,1.));
#1340 = CIRCLE('',#1341,9.);
#1341 = AXIS2_PLACEMENT_3D('',#1342,#1343,#1344);
#1342 = CARTESIAN_POINT('',(-50.,30.,1.));
#1343 = DIRECTION('',(0.,0.,-1.));
#1344 = DIRECTION('',(1.,0.,0.));
#1345 = ORIENTED_EDGE('',*,*,#1346,.T.);
#1346 = EDGE_CURVE('',#1338,#1347,#1349,.T.);
#1347 = VERTEX_POINT('',#1348);
#1348 = CARTESIAN_POINT('',(-59.,-30.,1.));
#1349 = LINE('',#1350,#1351);
#1350 = CARTESIAN_POINT('',(-59.,15.000000000001,1.));
#1351 = VECTOR('',#1352,1.);
#1352 = DIRECTION('',(0.,-1.,0.));
#1353 = ORIENTED_EDGE('',*,*,#1354,.F.);
#1354 = EDGE_CURVE('',#1304,#1347,#1355,.T.);
#1355 = CIRCLE('',#1356,9.);
#1356 = AXIS2_PLACEMENT_3D('',#1357,#1358,#1359);
#1357 = CARTESIAN_POINT('',(-50.,-30.,1.));
#1358 = DIRECTION('',(0.,0.,-1.));
#1359 = DIRECTION('',(1.,0.,0.));
#1360 = PLANE('',#1361);
#1361 = AXIS2_PLACEMENT_3D('',#1362,#1363,#1364);
#1362 = CARTESIAN_POINT('',(-5.637979976046E-13,-1.495403527947E-13,1.)
  );
#1363 = DIRECTION('',(0.,0.,1.));
#1364 = DIRECTION('',(1.,0.,0.));
#1365 = ADVANCED_FACE('',(#1366),#1382,.F.);
#1366 = FACE_BOUND('',#1367,.T.);
#1367 = EDGE_LOOP('',(#1368,#1374,#1375,#1381));
#1368 = ORIENTED_EDGE('',*,*,#1369,.F.);
#1369 = EDGE_CURVE('',#1338,#1198,#1370,.T.);
#1370 = LINE('',#1371,#1372);
#1371 = CARTESIAN_POINT('',(-59.,30.000000000002,0.));
#1372 = VECTOR('',#1373,1.);
#1373 = DIRECTION('',(0.,0.,1.));
#1374 = ORIENTED_EDGE('',*,*,#1337,.T.);
#1375 = ORIENTED_EDGE('',*,*,#1376,.T.);
#1376 = EDGE_CURVE('',#1330,#405,#1377,.T.);
#1377 = LINE('',#1378,#1379);
#1378 = CARTESIAN_POINT('',(-50.,39.,0.));
#1379 = VECTOR('',#1380,1.);
#1380 = DIRECTION('',(0.,0.,1.));
#1381 = ORIENTED_EDGE('',*,*,#1197,.F.);
#1382 = CYLINDRICAL_SURFACE('',#1383,9.);
#1383 = AXIS2_PLACEMENT_3D('',#1384,#1385,#1386);
#1384 = CARTESIAN_POINT('',(-50.,30.,0.));
#1385 = DIRECTION('',(-0.,-0.,-1.));
#1386 = DIRECTION('',(1.,0.,0.));
#1387 = ADVANCED_FACE('',(#1388),#1399,.F.);
#1388 = FACE_BOUND('',#1389,.F.);
#1389 = EDGE_LOOP('',(#1390,#1391,#1392,#1393));
#1390 = ORIENTED_EDGE('',*,*,#545,.F.);
#1391 = ORIENTED_EDGE('',*,*,#471,.T.);
#1392 = ORIENTED_EDGE('',*,*,#1189,.F.);
#1393 = ORIENTED_EDGE('',*,*,#1394,.F.);
#1394 = EDGE_CURVE('',#546,#1181,#1395,.T.);
#1395 = LINE('',#1396,#1397);
#1396 = CARTESIAN_POINT('',(-60.,-30.,0.));
#1397 = VECTOR('',#1398,1.);
#1398 = DIRECTION('',(0.,0.,1.));
#1399 = PLANE('',#1400);
#1400 = AXIS2_PLACEMENT_3D('',#1401,#1402,#1403);
#1401 = CARTESIAN_POINT('',(-60.,30.000000000002,0.));
#1402 = DIRECTION('',(1.,0.,0.));
#1403 = DIRECTION('',(0.,-1.,0.));
#1404 = ADVANCED_FACE('',(#1405),#1421,.F.);
#1405 = FACE_BOUND('',#1406,.F.);
#1406 = EDGE_LOOP('',(#1407,#1408,#1414,#1415));
#1407 = ORIENTED_EDGE('',*,*,#509,.F.);
#1408 = ORIENTED_EDGE('',*,*,#1409,.T.);
#1409 = EDGE_CURVE('',#510,#1173,#1410,.T.);
#1410 = LINE('',#1411,#1412);
#1411 = CARTESIAN_POINT('',(-50.,-40.,0.));
#1412 = VECTOR('',#1413,1.);
#1413 = DIRECTION('',(0.,0.,1.));
#1414 = ORIENTED_EDGE('',*,*,#1172,.F.);
#1415 = ORIENTED_EDGE('',*,*,#1416,.F.);
#1416 = EDGE_CURVE('',#512,#1164,#1417,.T.);
#1417 = LINE('',#1418,#1419);
#1418 = CARTESIAN_POINT('',(49.999999999999,-40.,0.));
#1419 = VECTOR('',#1420,1.);
#1420 = DIRECTION('',(0.,0.,1.));
#1421 = PLANE('',#1422);
#1422 = AXIS2_PLACEMENT_3D('',#1423,#1424,#1425);
#1423 = CARTESIAN_POINT('',(-50.,-40.,0.));
#1424 = DIRECTION('',(0.,1.,0.));
#1425 = DIRECTION('',(1.,0.,0.));
#1426 = ADVANCED_FACE('',(#1427),#1438,.T.);
#1427 = FACE_BOUND('',#1428,.F.);
#1428 = EDGE_LOOP('',(#1429,#1430,#1431,#1432));
#1429 = ORIENTED_EDGE('',*,*,#519,.F.);
#1430 = ORIENTED_EDGE('',*,*,#1416,.T.);
#1431 = ORIENTED_EDGE('',*,*,#1161,.F.);
#1432 = ORIENTED_EDGE('',*,*,#1433,.F.);
#1433 = EDGE_CURVE('',#520,#1162,#1434,.T.);
#1434 = LINE('',#1435,#1436);
#1435 = CARTESIAN_POINT('',(59.999999999999,-30.,0.));
#1436 = VECTOR('',#1437,1.);
#1437 = DIRECTION('',(0.,0.,1.));
#1438 = CYLINDRICAL_SURFACE('',#1439,10.);
#1439 = AXIS2_PLACEMENT_3D('',#1440,#1441,#1442);
#1440 = CARTESIAN_POINT('',(49.999999999999,-30.,0.));
#1441 = DIRECTION('',(-0.,-0.,-1.));
#1442 = DIRECTION('',(1.,0.,0.));
#1443 = ADVANCED_FACE('',(#1444),#1450,.F.);
#1444 = FACE_BOUND('',#1445,.F.);
#1445 = EDGE_LOOP('',(#1446,#1447,#1448,#1449));
#1446 = ORIENTED_EDGE('',*,*,#528,.F.);
#1447 = ORIENTED_EDGE('',*,*,#1433,.T.);
#1448 = ORIENTED_EDGE('',*,*,#1257,.T.);
#1449 = ORIENTED_EDGE('',*,*,#594,.F.);
#1450 = PLANE('',#1451);
#1451 = AXIS2_PLACEMENT_3D('',#1452,#1453,#1454);
#1452 = CARTESIAN_POINT('',(59.999999999999,-30.,0.));
#1453 = DIRECTION('',(-1.,0.,0.));
#1454 = DIRECTION('',(0.,1.,0.));
#1455 = ADVANCED_FACE('',(#1456),#1462,.T.);
#1456 = FACE_BOUND('',#1457,.F.);
#1457 = EDGE_LOOP('',(#1458,#1459,#1460,#1461));
#1458 = ORIENTED_EDGE('',*,*,#553,.F.);
#1459 = ORIENTED_EDGE('',*,*,#1394,.T.);
#1460 = ORIENTED_EDGE('',*,*,#1180,.F.);
#1461 = ORIENTED_EDGE('',*,*,#1409,.F.);
#1462 = CYLINDRICAL_SURFACE('',#1463,10.);
#1463 = AXIS2_PLACEMENT_3D('',#1464,#1465,#1466);
#1464 = CARTESIAN_POINT('',(-50.,-30.,0.));
#1465 = DIRECTION('',(-0.,-0.,-1.));
#1466 = DIRECTION('',(1.,0.,0.));
#1467 = ADVANCED_FACE('',(#1468),#1479,.T.);
#1468 = FACE_BOUND('',#1469,.T.);
#1469 = EDGE_LOOP('',(#1470,#1471,#1472,#1478));
#1470 = ORIENTED_EDGE('',*,*,#1288,.F.);
#1471 = ORIENTED_EDGE('',*,*,#1322,.F.);
#1472 = ORIENTED_EDGE('',*,*,#1473,.T.);
#1473 = EDGE_CURVE('',#1314,#1232,#1474,.T.);
#1474 = LINE('',#1475,#1476);
#1475 = CARTESIAN_POINT('',(58.999999999999,-30.,0.));
#1476 = VECTOR('',#1477,1.);
#1477 = DIRECTION('',(0.,0.,1.));
#1478 = ORIENTED_EDGE('',*,*,#1240,.F.);
#1479 = PLANE('',#1480);
#1480 = AXIS2_PLACEMENT_3D('',#1481,#1482,#1483);
#1481 = CARTESIAN_POINT('',(58.999999999999,-30.,0.));
#1482 = DIRECTION('',(-1.,0.,0.));
#1483 = DIRECTION('',(0.,1.,0.));
#1484 = ADVANCED_FACE('',(#1485),#1501,.T.);
#1485 = FACE_BOUND('',#1486,.T.);
#1486 = EDGE_LOOP('',(#1487,#1488,#1494,#1495));
#1487 = ORIENTED_EDGE('',*,*,#1303,.F.);
#1488 = ORIENTED_EDGE('',*,*,#1489,.T.);
#1489 = EDGE_CURVE('',#1304,#1215,#1490,.T.);
#1490 = LINE('',#1491,#1492);
#1491 = CARTESIAN_POINT('',(-50.,-39.,0.));
#1492 = VECTOR('',#1493,1.);
#1493 = DIRECTION('',(0.,0.,1.));
#1494 = ORIENTED_EDGE('',*,*,#1223,.F.);
#1495 = ORIENTED_EDGE('',*,*,#1496,.F.);
#1496 = EDGE_CURVE('',#1306,#1224,#1497,.T.);
#1497 = LINE('',#1498,#1499);
#1498 = CARTESIAN_POINT('',(49.999999999999,-39.,0.));
#1499 = VECTOR('',#1500,1.);
#1500 = DIRECTION('',(0.,0.,1.));
#1501 = PLANE('',#1502);
#1502 = AXIS2_PLACEMENT_3D('',#1503,#1504,#1505);
#1503 = CARTESIAN_POINT('',(-50.,-39.,0.));
#1504 = DIRECTION('',(0.,1.,0.));
#1505 = DIRECTION('',(1.,0.,0.));
#1506 = ADVANCED_FACE('',(#1507),#1513,.F.);
#1507 = FACE_BOUND('',#1508,.T.);
#1508 = EDGE_LOOP('',(#1509,#1510,#1511,#1512));
#1509 = ORIENTED_EDGE('',*,*,#1473,.F.);
#1510 = ORIENTED_EDGE('',*,*,#1313,.T.);
#1511 = ORIENTED_EDGE('',*,*,#1496,.T.);
#1512 = ORIENTED_EDGE('',*,*,#1231,.F.);
#1513 = CYLINDRICAL_SURFACE('',#1514,9.);
#1514 = AXIS2_PLACEMENT_3D('',#1515,#1516,#1517);
#1515 = CARTESIAN_POINT('',(49.999999999999,-30.,0.));
#1516 = DIRECTION('',(-0.,-0.,-1.));
#1517 = DIRECTION('',(1.,0.,0.));
#1518 = ADVANCED_FACE('',(#1519),#1530,.T.);
#1519 = FACE_BOUND('',#1520,.T.);
#1520 = EDGE_LOOP('',(#1521,#1527,#1528,#1529));
#1521 = ORIENTED_EDGE('',*,*,#1522,.F.);
#1522 = EDGE_CURVE('',#1347,#1207,#1523,.T.);
#1523 = LINE('',#1524,#1525);
#1524 = CARTESIAN_POINT('',(-59.,-30.,0.));
#1525 = VECTOR('',#1526,1.);
#1526 = DIRECTION('',(0.,0.,1.));
#1527 = ORIENTED_EDGE('',*,*,#1346,.F.);
#1528 = ORIENTED_EDGE('',*,*,#1369,.T.);
#1529 = ORIENTED_EDGE('',*,*,#1206,.F.);
#1530 = PLANE('',#1531);
#1531 = AXIS2_PLACEMENT_3D('',#1532,#1533,#1534);
#1532 = CARTESIAN_POINT('',(-59.,30.000000000002,0.));
#1533 = DIRECTION('',(1.,0.,0.));
#1534 = DIRECTION('',(0.,-1.,0.));
#1535 = ADVANCED_FACE('',(#1536),#1542,.F.);
#1536 = FACE_BOUND('',#1537,.T.);
#1537 = EDGE_LOOP('',(#1538,#1539,#1540,#1541));
#1538 = ORIENTED_EDGE('',*,*,#1522,.T.);
#1539 = ORIENTED_EDGE('',*,*,#1214,.F.);
#1540 = ORIENTED_EDGE('',*,*,#1489,.F.);
#1541 = ORIENTED_EDGE('',*,*,#1354,.T.);
#1542 = CYLINDRICAL_SURFACE('',#1543,9.);
#1543 = AXIS2_PLACEMENT_3D('',#1544,#1545,#1546);
#1544 = CARTESIAN_POINT('',(-50.,-30.,0.));
#1545 = DIRECTION('',(-0.,-0.,-1.));
#1546 = DIRECTION('',(1.,0.,0.));
#1547 = ADVANCED_FACE('',(#1548,#1570,#1578),#1586,.T.);
#1548 = FACE_BOUND('',#1549,.T.);
#1549 = EDGE_LOOP('',(#1550,#1551,#1552,#1553,#1554,#1555,#1556,#1557,
    #1558,#1559,#1560,#1561,#1562,#1563,#1564,#1565,#1566,#1567,#1568,
    #1569));
#1550 = ORIENTED_EDGE('',*,*,#1271,.T.);
#1551 = ORIENTED_EDGE('',*,*,#669,.T.);
#1552 = ORIENTED_EDGE('',*,*,#708,.T.);
#1553 = ORIENTED_EDGE('',*,*,#750,.T.);
#1554 = ORIENTED_EDGE('',*,*,#774,.T.);
#1555 = ORIENTED_EDGE('',*,*,#799,.F.);
#1556 = ORIENTED_EDGE('',*,*,#825,.F.);
#1557 = ORIENTED_EDGE('',*,*,#850,.F.);
#1558 = ORIENTED_EDGE('',*,*,#345,.F.);
#1559 = ORIENTED_EDGE('',*,*,#39,.T.);
#1560 = ORIENTED_EDGE('',*,*,#361,.T.);
#1561 = ORIENTED_EDGE('',*,*,#733,.T.);
#1562 = ORIENTED_EDGE('',*,*,#683,.F.);
#1563 = ORIENTED_EDGE('',*,*,#627,.F.);
#1564 = ORIENTED_EDGE('',*,*,#577,.F.);
#1565 = ORIENTED_EDGE('',*,*,#494,.F.);
#1566 = ORIENTED_EDGE('',*,*,#435,.F.);
#1567 = ORIENTED_EDGE('',*,*,#412,.T.);
#1568 = ORIENTED_EDGE('',*,*,#1376,.F.);
#1569 = ORIENTED_EDGE('',*,*,#1329,.F.);
#1570 = FACE_BOUND('',#1571,.T.);
#1571 = EDGE_LOOP('',(#1572,#1573,#1574,#1575,#1576,#1577));
#1572 = ORIENTED_EDGE('',*,*,#995,.F.);
#1573 = ORIENTED_EDGE('',*,*,#865,.T.);
#1574 = ORIENTED_EDGE('',*,*,#897,.F.);
#1575 = ORIENTED_EDGE('',*,*,#921,.F.);
#1576 = ORIENTED_EDGE('',*,*,#946,.T.);
#1577 = ORIENTED_EDGE('',*,*,#970,.T.);
#1578 = FACE_BOUND('',#1579,.T.);
#1579 = EDGE_LOOP('',(#1580,#1581,#1582,#1583,#1584,#1585));
#1580 = ORIENTED_EDGE('',*,*,#1013,.F.);
#1581 = ORIENTED_EDGE('',*,*,#1044,.F.);
#1582 = ORIENTED_EDGE('',*,*,#1069,.F.);
#1583 = ORIENTED_EDGE('',*,*,#1093,.T.);
#1584 = ORIENTED_EDGE('',*,*,#1118,.F.);
#1585 = ORIENTED_EDGE('',*,*,#1143,.T.);
#1586 = PLANE('',#1587);
#1587 = AXIS2_PLACEMENT_3D('',#1588,#1589,#1590);
#1588 = CARTESIAN_POINT('',(-5.322816220001E-13,39.,17.400554317873));
#1589 = DIRECTION('',(-0.,-1.,-0.));
#1590 = DIRECTION('',(0.,0.,-1.));
#1591 = ( GEOMETRIC_REPRESENTATION_CONTEXT(3) 
GLOBAL_UNCERTAINTY_ASSIGNED_CONTEXT((#1595)) 
GLOBAL_UNIT_ASSIGNED_CONTEXT((#1592,#1593,#1594)) REPRESENTATION_CONTEXT
('Context #1','3D Context with UNIT and UNCERTAINTY') );
#1592 = ( LENGTH_UNIT() NAMED_UNIT(*) SI_UNIT(.MILLI.,.METRE.) );
#1593 = ( NAMED_UNIT(*) PLANE_ANGLE_UNIT() SI_UNIT($,.RADIAN.) );
#1594 = ( NAMED_UNIT(*) SI_UNIT($,.STERADIAN.) SOLID_ANGLE_UNIT() );
#1595 = UNCERTAINTY_MEASURE_WITH_UNIT(LENGTH_MEASURE(2.E-05),#1592,
  'distance_accuracy_value','confusion accuracy');
#1596 = PRODUCT_RELATED_PRODUCT_CATEGORY('part',$,(#7));
#1597 = MECHANICAL_DESIGN_GEOMETRIC_PRESENTATION_REPRESENTATION('',(
    #1598),#1591);
#1598 = STYLED_ITEM('color',(#1599),#15);
#1599 = PRESENTATION_STYLE_ASSIGNMENT((#1600,#1606));
#1600 = SURFACE_STYLE_USAGE(.BOTH.,#1601);
#1601 = SURFACE_SIDE_STYLE('',(#1602));
#1602 = SURFACE_STYLE_FILL_AREA(#1603);
#1603 = FILL_AREA_STYLE('',(#1604));
#1604 = FILL_AREA_STYLE_COLOUR('',#1605);
#1605 = COLOUR_RGB('',0.447059003357,0.474510015008,0.501960993452);
#1606 = CURVE_STYLE('',#1607,POSITIVE_LENGTH_MEASURE(0.1),#1608);
#1607 = DRAUGHTING_PRE_DEFINED_CURVE_FONT('continuous');
#1608 = COLOUR_RGB('',9.803921802644E-02,9.803921802644E-02,
  9.803921802644E-02);
ENDSEC;
END-ISO-10303-21;
