solid OpenSCAD_Model
  facet normal 0 0 -1
    outer loop
      vertex 32 4.800000000000001 0
      vertex 4.800000000000001 -4.800000000000001 0
      vertex 4.800000000000001 0 0
    endloop
  endfacet
  facet normal 1 0 0
    outer loop
      vertex 32 4.800000000000001 16
      vertex 32 1.6 16
      vertex 32 1.6 3.2
    endloop
  endfacet
  facet normal 0 0 1
    outer loop
      vertex 32 1.6 16
      vertex 32 4.800000000000001 16
      vertex 4.800000000000001 4.800000000000001 16
    endloop
  endfacet
  facet normal 0 -1 0
    outer loop
      vertex 4.800000000000001 -4.800000000000001 16
      vertex 4.800000000000001 -4.800000000000001 0
      vertex 32 -4.800000000000001 0
    endloop
  endfacet
  facet normal 0 0 1
    outer loop
      vertex 32 1.6 16
      vertex 4.800000000000001 4.800000000000001 16
      vertex 4.800000000000001 1.6 16
    endloop
  endfacet
  facet normal 0 0 -1
    outer loop
      vertex 32 -4.800000000000001 0
      vertex 4.800000000000001 -4.800000000000001 0
      vertex 32 4.800000000000001 0
    endloop
  endfacet
  facet normal 1 0 0
    outer loop
      vertex 32 -4.800000000000001 0
      vertex 32 4.800000000000001 0
      vertex 32 -1.6 3.2
    endloop
  endfacet
  facet normal 0 1 0
    outer loop
      vertex 32 4.800000000000001 16
      vertex 4.800000000000001 4.800000000000001 0
      vertex 4.800000000000001 4.800000000000001 16
    endloop
  endfacet
  facet normal 1 0 0
    outer loop
      vertex 32 -4.800000000000001 0
      vertex 32 -1.6 3.2
      vertex 32 -1.6 16
    endloop
  endfacet
  facet normal 1 0 0
    outer loop
      vertex 32 4.800000000000001 0
      vertex 32 4.800000000000001 16
      vertex 32 1.6 3.2
    endloop
  endfacet
  facet normal 0 1 0
    outer loop
      vertex 32 4.800000000000001 0
      vertex 4.800000000000001 4.800000000000001 0
      vertex 32 4.800000000000001 16
    endloop
  endfacet
  facet normal 1 0 0
    outer loop
      vertex 32 4.800000000000001 0
      vertex 32 1.6 3.2
      vertex 32 -1.6 3.2
    endloop
  endfacet
  facet normal 0 0 1
    outer loop
      vertex 32 -4.800000000000001 16
      vertex 4.800000000000001 -1.6 16
      vertex 4.800000000000001 -4.800000000000001 16
    endloop
  endfacet
  facet normal 0 -1 0
    outer loop
      vertex 4.800000000000001 -4.800000000000001 16
      vertex 32 -4.800000000000001 0
      vertex 32 -4.800000000000001 16
    endloop
  endfacet
  facet normal 1 0 0
    outer loop
      vertex 32 -4.800000000000001 16
      vertex 32 -4.800000000000001 0
      vertex 32 -1.6 16
    endloop
  endfacet
  facet normal 0 0 1
    outer loop
      vertex 32 -4.800000000000001 16
      vertex 32 -1.6 16
      vertex 4.800000000000001 -1.6 16
    endloop
  endfacet
  facet normal 0 0 -1
    outer loop
      vertex 32 4.800000000000001 0
      vertex 4.800000000000001 0 0
      vertex 4.800000000000001 4.800000000000001 0
    endloop
  endfacet
  facet normal 0 1 0
    outer loop
      vertex -1.6 32 3.2
      vertex 4.800000000000001 32 0
      vertex -4.800000000000001 32 0
    endloop
  endfacet
  facet normal 0 0 -1
    outer loop
      vertex 4.800000000000001 4.800000000000001 0
      vertex 0 0 0
      vertex 4.800000000000001 32 0
    endloop
  endfacet
  facet normal 0 0 -1
    outer loop
      vertex 0 4.800000000000001 0
      vertex 4.800000000000001 32 0
      vertex 0 0 0
    endloop
  endfacet
  facet normal 0 0 -1
    outer loop
      vertex 4.800000000000001 0 0
      vertex 0 0 0
      vertex 4.800000000000001 4.800000000000001 0
    endloop
  endfacet
  facet normal 0 0 -1
    outer loop
      vertex 0 4.800000000000001 0
      vertex -4.800000000000001 32 0
      vertex 4.800000000000001 32 0
    endloop
  endfacet
  facet normal 0 1 0
    outer loop
      vertex -1.6 32 3.2
      vertex 1.6 32 3.2
      vertex 4.800000000000001 32 0
    endloop
  endfacet
  facet normal 1 0 0
    outer loop
      vertex 4.800000000000001 4.800000000000001 0
      vertex 4.800000000000001 32 0
      vertex 4.800000000000001 32 16
    endloop
  endfacet
  facet normal 0 1 0
    outer loop
      vertex 1.6 32 3.2
      vertex 1.6 32 16
      vertex 4.800000000000001 32 0
    endloop
  endfacet
  facet normal 1 0 0
    outer loop
      vertex 4.800000000000001 4.800000000000001 0
      vertex 4.800000000000001 32 16
      vertex 4.800000000000001 4.800000000000001 16
    endloop
  endfacet
  facet normal 0 0 1
    outer loop
      vertex 4.800000000000001 4.800000000000001 16
      vertex 1.6 1.6 16
      vertex 4.800000000000001 1.6 16
    endloop
  endfacet
  facet normal 0 0 1
    outer loop
      vertex 4.800000000000001 4.800000000000001 16
      vertex 4.800000000000001 32 16
      vertex 1.6 1.6 16
    endloop
  endfacet
  facet normal 0 1 0
    outer loop
      vertex 4.800000000000001 32 0
      vertex 1.6 32 16
      vertex 4.800000000000001 32 16
    endloop
  endfacet
  facet normal 0 0 1
    outer loop
      vertex 4.800000000000001 32 16
      vertex 1.6 32 16
      vertex 1.6 1.6 16
    endloop
  endfacet
  facet normal 0 0 1
    outer loop
      vertex -4.800000000000001 32 16
      vertex -4.800000000000001 4.800000000000001 16
      vertex -1.6 32 16
    endloop
  endfacet
  facet normal 0 1 0
    outer loop
      vertex -4.800000000000001 32 16
      vertex -1.6 32 16
      vertex -1.6 32 3.2
    endloop
  endfacet
  facet normal 0 0 1
    outer loop
      vertex -4.800000000000001 4.800000000000001 16
      vertex -1.6 4.800000000000001 16
      vertex -1.6 32 16
    endloop
  endfacet
  facet normal -1 0 0
    outer loop
      vertex -4.800000000000001 32 16
      vertex -4.800000000000001 4.800000000000001 0
      vertex -4.800000000000001 4.800000000000001 16
    endloop
  endfacet
  facet normal 0 0 -1
    outer loop
      vertex 0 4.800000000000001 0
      vertex -4.800000000000001 4.800000000000001 0
      vertex -4.800000000000001 32 0
    endloop
  endfacet
  facet normal 0 1 0
    outer loop
      vertex -1.6 32 3.2
      vertex -4.800000000000001 32 0
      vertex -4.800000000000001 32 16
    endloop
  endfacet
  facet normal -1 0 0
    outer loop
      vertex -4.800000000000001 32 0
      vertex -4.800000000000001 4.800000000000001 0
      vertex -4.800000000000001 32 16
    endloop
  endfacet
  facet normal -1 0 0
    outer loop
      vertex -32 -4.800000000000001 0
      vertex -32 -1.6 3.2
      vertex -32 1.6 3.2
    endloop
  endfacet
  facet normal -1 0 0
    outer loop
      vertex -32 4.800000000000001 0
      vertex -32 1.6 3.2
      vertex -32 1.6 16
    endloop
  endfacet
  facet normal -1 0 0
    outer loop
      vertex -32 -4.800000000000001 0
      vertex -32 -4.800000000000001 16
      vertex -32 -1.6 3.2
    endloop
  endfacet
  facet normal 0 -1 0
    outer loop
      vertex -32 -4.800000000000001 0
      vertex -4.800000000000001 -4.800000000000001 0
      vertex -32 -4.800000000000001 16
    endloop
  endfacet
  facet normal 0 0 1
    outer loop
      vertex -32 -4.800000000000001 16
      vertex -4.800000000000001 -4.800000000000001 16
      vertex -32 -1.6 16
    endloop
  endfacet
  facet normal -1 0 0
    outer loop
      vertex -32 4.800000000000001 16
      vertex -32 4.800000000000001 0
      vertex -32 1.6 16
    endloop
  endfacet
  facet normal 0 0 1
    outer loop
      vertex -4.800000000000001 -4.800000000000001 16
      vertex -4.800000000000001 -1.6 16
      vertex -32 -1.6 16
    endloop
  endfacet
  facet normal 0 0 1
    outer loop
      vertex -32 1.6 16
      vertex -1.6 1.6 16
      vertex -32 4.800000000000001 16
    endloop
  endfacet
  facet normal 0 1 0
    outer loop
      vertex -4.800000000000001 4.800000000000001 0
      vertex -32 4.800000000000001 16
      vertex -4.800000000000001 4.800000000000001 16
    endloop
  endfacet
  facet normal -1 0 0
    outer loop
      vertex -32 -4.800000000000001 16
      vertex -32 -1.6 16
      vertex -32 -1.6 3.2
    endloop
  endfacet
  facet normal -1 0 0
    outer loop
      vertex -32 4.800000000000001 0
      vertex -32 -4.800000000000001 0
      vertex -32 1.6 3.2
    endloop
  endfacet
  facet normal 0 0 -1
    outer loop
      vertex -4.800000000000001 -4.800000000000001 0
      vertex -32 -4.800000000000001 0
      vertex 0 0 0
    endloop
  endfacet
  facet normal 0 0 1
    outer loop
      vertex -1.6 1.6 16
      vertex -4.800000000000001 4.800000000000001 16
      vertex -32 4.800000000000001 16
    endloop
  endfacet
  facet normal 0 0 1
    outer loop
      vertex -4.800000000000001 4.800000000000001 16
      vertex -1.6 1.6 16
      vertex -1.6 4.800000000000001 16
    endloop
  endfacet
  facet normal 0 0 -1
    outer loop
      vertex 0 0 0
      vertex -32 -4.800000000000001 0
      vertex 0 4.800000000000001 0
    endloop
  endfacet
  facet normal 0 0 -1
    outer loop
      vertex -32 -4.800000000000001 0
      vertex -4.800000000000001 4.800000000000001 0
      vertex 0 4.800000000000001 0
    endloop
  endfacet
  facet normal 0 1 0
    outer loop
      vertex -4.800000000000001 4.800000000000001 0
      vertex -32 4.800000000000001 0
      vertex -32 4.800000000000001 16
    endloop
  endfacet
  facet normal 0 0 -1
    outer loop
      vertex -32 -4.800000000000001 0
      vertex -32 4.800000000000001 0
      vertex -4.800000000000001 4.800000000000001 0
    endloop
  endfacet
  facet normal 0 -1 0
    outer loop
      vertex -32 -4.800000000000001 16
      vertex -4.800000000000001 -4.800000000000001 0
      vertex -4.800000000000001 -4.800000000000001 16
    endloop
  endfacet
  facet normal 0 0 1
    outer loop
      vertex -4.800000000000001 -32 16
      vertex -1.6 -32 16
      vertex -1.6 -1.6 16
    endloop
  endfacet
  facet normal 0 0 1
    outer loop
      vertex 1.6 -1.6 16
      vertex 1.6 -32 16
      vertex 4.800000000000001 -4.800000000000001 16
    endloop
  endfacet
  facet normal 0 -1 0
    outer loop
      vertex -4.800000000000001 -32 0
      vertex -1.6 -32 16
      vertex -4.800000000000001 -32 16
    endloop
  endfacet
  facet normal 0 0 -1
    outer loop
      vertex 4.800000000000001 -4.800000000000001 0
      vertex -4.800000000000001 -32 0
      vertex 4.800000000000001 0 0
    endloop
  endfacet
  facet normal -1 0 0
    outer loop
      vertex -4.800000000000001 -4.800000000000001 16
      vertex -4.800000000000001 -4.800000000000001 0
      vertex -4.800000000000001 -32 16
    endloop
  endfacet
  facet normal 0 0 -1
    outer loop
      vertex 4.800000000000001 0 0
      vertex -4.800000000000001 -4.800000000000001 0
      vertex 0 0 0
    endloop
  endfacet
  facet normal 0 0 -1
    outer loop
      vertex -4.800000000000001 -32 0
      vertex 4.800000000000001 -4.800000000000001 0
      vertex 4.800000000000001 -32 0
    endloop
  endfacet
  facet normal 1 0 0
    outer loop
      vertex 4.800000000000001 -32 0
      vertex 4.800000000000001 -4.800000000000001 0
      vertex 4.800000000000001 -4.800000000000001 16
    endloop
  endfacet
  facet normal 0 0 -1
    outer loop
      vertex -4.800000000000001 -32 0
      vertex -4.800000000000001 -4.800000000000001 0
      vertex 4.800000000000001 0 0
    endloop
  endfacet
  facet normal 0 -1 0
    outer loop
      vertex 1.6 -32 3.2
      vertex -4.800000000000001 -32 0
      vertex 4.800000000000001 -32 0
    endloop
  endfacet
  facet normal 0 -1 0
    outer loop
      vertex 1.6 -32 3.2
      vertex -1.6 -32 3.2
      vertex -4.800000000000001 -32 0
    endloop
  endfacet
  facet normal 0 -1 0
    outer loop
      vertex -1.6 -32 3.2
      vertex -1.6 -32 16
      vertex -4.800000000000001 -32 0
    endloop
  endfacet
  facet normal 0 0 1
    outer loop
      vertex -1.6 -1.6 16
      vertex -4.800000000000001 -4.800000000000001 16
      vertex -4.800000000000001 -32 16
    endloop
  endfacet
  facet normal 0 0 1
    outer loop
      vertex -4.800000000000001 -4.800000000000001 16
      vertex -1.6 -1.6 16
      vertex -4.800000000000001 -1.6 16
    endloop
  endfacet
  facet normal 0 -1 0
    outer loop
      vertex 4.800000000000001 -32 16
      vertex 1.6 -32 16
      vertex 1.6 -32 3.2
    endloop
  endfacet
  facet normal 1 0 0
    outer loop
      vertex 4.800000000000001 -32 16
      vertex 4.800000000000001 -32 0
      vertex 4.800000000000001 -4.800000000000001 16
    endloop
  endfacet
  facet normal 0 0 1
    outer loop
      vertex 1.6 -32 16
      vertex 4.800000000000001 -32 16
      vertex 4.800000000000001 -4.800000000000001 16
    endloop
  endfacet
  facet normal -1 0 0
    outer loop
      vertex -4.800000000000001 -32 0
      vertex -4.800000000000001 -32 16
      vertex -4.800000000000001 -4.800000000000001 0
    endloop
  endfacet
  facet normal 0 0 1
    outer loop
      vertex 1.6 -1.6 16
      vertex 4.800000000000001 -4.800000000000001 16
      vertex 4.800000000000001 -1.6 16
    endloop
  endfacet
  facet normal 0 -1 0
    outer loop
      vertex 1.6 -32 3.2
      vertex 4.800000000000001 -32 0
      vertex 4.800000000000001 -32 16
    endloop
  endfacet
  facet normal 0 1 0
    outer loop
      vertex 32 -1.6 16
      vertex 1.6 -1.6 3.2
      vertex 4.800000000000001 -1.6 16
    endloop
  endfacet
  facet normal 0 1 0
    outer loop
      vertex 1.6 -1.6 3.2
      vertex 1.6 -1.6 16
      vertex 4.800000000000001 -1.6 16
    endloop
  endfacet
  facet normal 0 1 0
    outer loop
      vertex 32 -1.6 16
      vertex 32 -1.6 3.2
      vertex 1.6 -1.6 3.2
    endloop
  endfacet
  facet normal 0 -1 0
    outer loop
      vertex 1.6 1.6 3.2
      vertex 32 1.6 16
      vertex 4.800000000000001 1.6 16
    endloop
  endfacet
  facet normal 0 0 1
    outer loop
      vertex 32 1.6 3.2
      vertex 1.6 -1.6 3.2
      vertex 32 -1.6 3.2
    endloop
  endfacet
  facet normal 0 0 1
    outer loop
      vertex 0 0 3.2
      vertex 32 1.6 3.2
      vertex 1.6 1.6 3.2
    endloop
  endfacet
  facet normal 0 -1 0
    outer loop
      vertex 1.6 1.6 3.2
      vertex 32 1.6 3.2
      vertex 32 1.6 16
    endloop
  endfacet
  facet normal 0 0 1
    outer loop
      vertex 0 -1.6 3.2
      vertex 32 1.6 3.2
      vertex 0 0 3.2
    endloop
  endfacet
  facet normal 0 -1 0
    outer loop
      vertex 4.800000000000001 1.6 16
      vertex 1.6 1.6 16
      vertex 1.6 1.6 3.2
    endloop
  endfacet
  facet normal 0 0 1
    outer loop
      vertex 32 1.6 3.2
      vertex 0 -1.6 3.2
      vertex 1.6 -1.6 3.2
    endloop
  endfacet
  facet normal 0 0 1
    outer loop
      vertex -1.6 1.6 3.2
      vertex 1.6 32 3.2
      vertex -1.6 32 3.2
    endloop
  endfacet
  facet normal 0 0 1
    outer loop
      vertex 1.6 32 3.2
      vertex -1.6 0 3.2
      vertex 1.6 1.6 3.2
    endloop
  endfacet
  facet normal 1 0 0
    outer loop
      vertex -1.6 1.6 3.2
      vertex -1.6 32 3.2
      vertex -1.6 32 16
    endloop
  endfacet
  facet normal 0 0 1
    outer loop
      vertex -1.6 0 3.2
      vertex 0 0 3.2
      vertex 1.6 1.6 3.2
    endloop
  endfacet
  facet normal -1 0 0
    outer loop
      vertex 1.6 32 3.2
      vertex 1.6 1.6 16
      vertex 1.6 32 16
    endloop
  endfacet
  facet normal -1 0 0
    outer loop
      vertex 1.6 32 3.2
      vertex 1.6 1.6 3.2
      vertex 1.6 1.6 16
    endloop
  endfacet
  facet normal 0 0 1
    outer loop
      vertex -1.6 0 3.2
      vertex 1.6 32 3.2
      vertex -1.6 1.6 3.2
    endloop
  endfacet
  facet normal 1 0 0
    outer loop
      vertex -1.6 4.800000000000001 16
      vertex -1.6 1.6 16
      vertex -1.6 1.6 3.2
    endloop
  endfacet
  facet normal 1 0 0
    outer loop
      vertex -1.6 4.800000000000001 16
      vertex -1.6 1.6 3.2
      vertex -1.6 32 16
    endloop
  endfacet
  facet normal 0 0 1
    outer loop
      vertex -1.6 0 3.2
      vertex -32 -1.6 3.2
      vertex -1.6 -1.6 3.2
    endloop
  endfacet
  facet normal 0 0 1
    outer loop
      vertex -1.6 1.6 3.2
      vertex -32 1.6 3.2
      vertex -32 -1.6 3.2
    endloop
  endfacet
  facet normal 0 0 1
    outer loop
      vertex -1.6 1.6 3.2
      vertex -32 -1.6 3.2
      vertex -1.6 0 3.2
    endloop
  endfacet
  facet normal 0 -1 0
    outer loop
      vertex -1.6 1.6 16
      vertex -32 1.6 16
      vertex -32 1.6 3.2
    endloop
  endfacet
  facet normal 0 1 0
    outer loop
      vertex -4.800000000000001 -1.6 16
      vertex -1.6 -1.6 16
      vertex -1.6 -1.6 3.2
    endloop
  endfacet
  facet normal 0 1 0
    outer loop
      vertex -32 -1.6 3.2
      vertex -32 -1.6 16
      vertex -1.6 -1.6 3.2
    endloop
  endfacet
  facet normal 0 1 0
    outer loop
      vertex -32 -1.6 16
      vertex -4.800000000000001 -1.6 16
      vertex -1.6 -1.6 3.2
    endloop
  endfacet
  facet normal 0 -1 0
    outer loop
      vertex -1.6 1.6 16
      vertex -32 1.6 3.2
      vertex -1.6 1.6 3.2
    endloop
  endfacet
  facet normal 0 0 1
    outer loop
      vertex -1.6 -32 3.2
      vertex 0 -1.6 3.2
      vertex -1.6 -1.6 3.2
    endloop
  endfacet
  facet normal 0 0 1
    outer loop
      vertex 0 -1.6 3.2
      vertex 1.6 -32 3.2
      vertex 1.6 -1.6 3.2
    endloop
  endfacet
  facet normal 0 0 1
    outer loop
      vertex -1.6 0 3.2
      vertex -1.6 -1.6 3.2
      vertex 0 0 3.2
    endloop
  endfacet
  facet normal -1 0 0
    outer loop
      vertex 1.6 -32 16
      vertex 1.6 -1.6 3.2
      vertex 1.6 -32 3.2
    endloop
  endfacet
  facet normal 0 0 1
    outer loop
      vertex -1.6 -1.6 3.2
      vertex 0 -1.6 3.2
      vertex 0 0 3.2
    endloop
  endfacet
  facet normal 1 0 0
    outer loop
      vertex -1.6 -32 3.2
      vertex -1.6 -1.6 3.2
      vertex -1.6 -32 16
    endloop
  endfacet
  facet normal -1 0 0
    outer loop
      vertex 1.6 -32 16
      vertex 1.6 -1.6 16
      vertex 1.6 -1.6 3.2
    endloop
  endfacet
  facet normal 1 0 0
    outer loop
      vertex -1.6 -1.6 3.2
      vertex -1.6 -1.6 16
      vertex -1.6 -32 16
    endloop
  endfacet
  facet normal 0 0 1
    outer loop
      vertex 0 -1.6 3.2
      vertex -1.6 -32 3.2
      vertex 1.6 -32 3.2
    endloop
  endfacet
endsolid OpenSCAD_Model
