ISO-10303-21;
HEADER;
FILE_DESCRIPTION(('FreeCAD Model'),'2;1');
FILE_NAME('Open CASCADE Shape Model','2026-03-06T21:59:05',(''),(''),
  'Open CASCADE STEP processor 7.8','FreeCAD','Unknown');
FILE_SCHEMA(('AUTOMOTIVE_DESIGN { 1 0 10303 214 1 1 1 1 }'));
ENDSEC;
DATA;
#1 = APPLICATION_PROTOCOL_DEFINITION('international standard',
  'automotive_design',2000,#2);
#2 = APPLICATION_CONTEXT(
  'core data for automotive mechanical design processes');
#3 = SHAPE_DEFINITION_REPRESENTATION(#4,#10);
#4 = PRODUCT_DEFINITION_SHAPE('','',#5);
#5 = PRODUCT_DEFINITION('design','',#6,#9);
#6 = PRODUCT_DEFINITION_FORMATION('','',#7);
#7 = PRODUCT('Body','Body','',(#8));
#8 = PRODUCT_CONTEXT('',#2,'mechanical');
#9 = PRODUCT_DEFINITION_CONTEXT('part definition',#2,'design');
#10 = ADVANCED_BREP_SHAPE_REPRESENTATION('',(#11,#15),#1035);
#11 = AXIS2_PLACEMENT_3D('',#12,#13,#14);
#12 = CARTESIAN_POINT('',(0.,0.,0.));
#13 = DIRECTION('',(0.,0.,1.));
#14 = DIRECTION('',(1.,0.,-0.));
#15 = MANIFOLD_SOLID_BREP('',#16);
#16 = CLOSED_SHELL('',(#17,#68,#163,#187,#211,#292,#317,#403,#420,#437,
    #449,#466,#483,#500,#581,#601,#618,#635,#652,#669,#697,#778,#802,
    #876,#893,#918,#940,#957,#969,#986,#1003,#1020));
#17 = ADVANCED_FACE('',(#18,#52),#63,.T.);
#18 = FACE_BOUND('',#19,.T.);
#19 = EDGE_LOOP('',(#20,#30,#38,#46));
#20 = ORIENTED_EDGE('',*,*,#21,.T.);
#21 = EDGE_CURVE('',#22,#24,#26,.T.);
#22 = VERTEX_POINT('',#23);
#23 = CARTESIAN_POINT('',(-67.,0.,-0.));
#24 = VERTEX_POINT('',#25);
#25 = CARTESIAN_POINT('',(-67.,-28.7,6.372680161348E-15));
#26 = LINE('',#27,#28);
#27 = CARTESIAN_POINT('',(-67.,0.,0.));
#28 = VECTOR('',#29,1.);
#29 = DIRECTION('',(0.,-1.,2.22044604925E-16));
#30 = ORIENTED_EDGE('',*,*,#31,.T.);
#31 = EDGE_CURVE('',#24,#32,#34,.T.);
#32 = VERTEX_POINT('',#33);
#33 = CARTESIAN_POINT('',(-35.,-28.7,6.372680161348E-15));
#34 = LINE('',#35,#36);
#35 = CARTESIAN_POINT('',(-67.,-28.7,7.105427357601E-15));
#36 = VECTOR('',#37,1.);
#37 = DIRECTION('',(1.,0.,0.));
#38 = ORIENTED_EDGE('',*,*,#39,.F.);
#39 = EDGE_CURVE('',#40,#32,#42,.T.);
#40 = VERTEX_POINT('',#41);
#41 = CARTESIAN_POINT('',(-35.,0.,-0.));
#42 = LINE('',#43,#44);
#43 = CARTESIAN_POINT('',(-35.,0.,0.));
#44 = VECTOR('',#45,1.);
#45 = DIRECTION('',(0.,-1.,2.22044604925E-16));
#46 = ORIENTED_EDGE('',*,*,#47,.F.);
#47 = EDGE_CURVE('',#22,#40,#48,.T.);
#48 = LINE('',#49,#50);
#49 = CARTESIAN_POINT('',(-67.,0.,0.));
#50 = VECTOR('',#51,1.);
#51 = DIRECTION('',(1.,0.,0.));
#52 = FACE_BOUND('',#53,.T.);
#53 = EDGE_LOOP('',(#54));
#54 = ORIENTED_EDGE('',*,*,#55,.T.);
#55 = EDGE_CURVE('',#56,#56,#58,.T.);
#56 = VERTEX_POINT('',#57);
#57 = CARTESIAN_POINT('',(-50.25,-14.35,3.474998067077E-15));
#58 = CIRCLE('',#59,1.75);
#59 = AXIS2_PLACEMENT_3D('',#60,#61,#62);
#60 = CARTESIAN_POINT('',(-52.,-14.35,3.474998067077E-15));
#61 = DIRECTION('',(0.,0.,-1.));
#62 = DIRECTION('',(1.,0.,0.));
#63 = PLANE('',#64);
#64 = AXIS2_PLACEMENT_3D('',#65,#66,#67);
#65 = CARTESIAN_POINT('',(-67.,0.,0.));
#66 = DIRECTION('',(0.,2.22044604925E-16,1.));
#67 = DIRECTION('',(1.,0.,0.));
#68 = ADVANCED_FACE('',(#69),#158,.T.);
#69 = FACE_BOUND('',#70,.T.);
#70 = EDGE_LOOP('',(#71,#81,#89,#97,#105,#113,#121,#127,#128,#136,#144,
    #152));
#71 = ORIENTED_EDGE('',*,*,#72,.F.);
#72 = EDGE_CURVE('',#73,#75,#77,.T.);
#73 = VERTEX_POINT('',#74);
#74 = CARTESIAN_POINT('',(-67.,-8.881784197001E-16,-4.));
#75 = VERTEX_POINT('',#76);
#76 = CARTESIAN_POINT('',(-67.,-6.383782391595E-16,-2.75));
#77 = LINE('',#78,#79);
#78 = CARTESIAN_POINT('',(-67.,-8.881784197001E-16,-4.));
#79 = VECTOR('',#80,1.);
#80 = DIRECTION('',(0.,2.22044604925E-16,1.));
#81 = ORIENTED_EDGE('',*,*,#82,.T.);
#82 = EDGE_CURVE('',#73,#83,#85,.T.);
#83 = VERTEX_POINT('',#84);
#84 = CARTESIAN_POINT('',(-67.,-28.7,-4.));
#85 = LINE('',#86,#87);
#86 = CARTESIAN_POINT('',(-67.,-8.881784197001E-16,-4.));
#87 = VECTOR('',#88,1.);
#88 = DIRECTION('',(0.,-1.,2.22044604925E-16));
#89 = ORIENTED_EDGE('',*,*,#90,.T.);
#90 = EDGE_CURVE('',#83,#91,#93,.T.);
#91 = VERTEX_POINT('',#92);
#92 = CARTESIAN_POINT('',(-67.,-28.7,-2.75));
#93 = LINE('',#94,#95);
#94 = CARTESIAN_POINT('',(-67.,-28.7,-4.));
#95 = VECTOR('',#96,1.);
#96 = DIRECTION('',(0.,2.22044604925E-16,1.));
#97 = ORIENTED_EDGE('',*,*,#98,.F.);
#98 = EDGE_CURVE('',#99,#91,#101,.T.);
#99 = VERTEX_POINT('',#100);
#100 = CARTESIAN_POINT('',(-67.,-27.19999999999,-2.75));
#101 = LINE('',#102,#103);
#102 = CARTESIAN_POINT('',(-67.,-14.35,-2.75));
#103 = VECTOR('',#104,1.);
#104 = DIRECTION('',(0.,-1.,0.));
#105 = ORIENTED_EDGE('',*,*,#106,.F.);
#106 = EDGE_CURVE('',#107,#99,#109,.T.);
#107 = VERTEX_POINT('',#108);
#108 = CARTESIAN_POINT('',(-67.,-27.19999999999,-0.999999999998));
#109 = LINE('',#110,#111);
#110 = CARTESIAN_POINT('',(-67.,-27.19999999999,-3.375));
#111 = VECTOR('',#112,1.);
#112 = DIRECTION('',(0.,0.,-1.));
#113 = ORIENTED_EDGE('',*,*,#114,.F.);
#114 = EDGE_CURVE('',#115,#107,#117,.T.);
#115 = VERTEX_POINT('',#116);
#116 = CARTESIAN_POINT('',(-67.,-28.7,-0.999999999998));
#117 = LINE('',#118,#119);
#118 = CARTESIAN_POINT('',(-67.,-13.59999999999,-0.999999999998));
#119 = VECTOR('',#120,1.);
#120 = DIRECTION('',(-0.,1.,0.));
#121 = ORIENTED_EDGE('',*,*,#122,.T.);
#122 = EDGE_CURVE('',#115,#24,#123,.T.);
#123 = LINE('',#124,#125);
#124 = CARTESIAN_POINT('',(-67.,-28.7,-4.));
#125 = VECTOR('',#126,1.);
#126 = DIRECTION('',(0.,2.22044604925E-16,1.));
#127 = ORIENTED_EDGE('',*,*,#21,.F.);
#128 = ORIENTED_EDGE('',*,*,#129,.F.);
#129 = EDGE_CURVE('',#130,#22,#132,.T.);
#130 = VERTEX_POINT('',#131);
#131 = CARTESIAN_POINT('',(-67.,-4.440892098501E-16,-1.));
#132 = LINE('',#133,#134);
#133 = CARTESIAN_POINT('',(-67.,-8.881784197001E-16,-4.));
#134 = VECTOR('',#135,1.);
#135 = DIRECTION('',(0.,2.22044604925E-16,1.));
#136 = ORIENTED_EDGE('',*,*,#137,.F.);
#137 = EDGE_CURVE('',#138,#130,#140,.T.);
#138 = VERTEX_POINT('',#139);
#139 = CARTESIAN_POINT('',(-67.,-1.5,-1.));
#140 = LINE('',#141,#142);
#141 = CARTESIAN_POINT('',(-67.,-7.771561172376E-16,-1.));
#142 = VECTOR('',#143,1.);
#143 = DIRECTION('',(-0.,1.,0.));
#144 = ORIENTED_EDGE('',*,*,#145,.F.);
#145 = EDGE_CURVE('',#146,#138,#148,.T.);
#146 = VERTEX_POINT('',#147);
#147 = CARTESIAN_POINT('',(-67.,-1.5,-2.75));
#148 = LINE('',#149,#150);
#149 = CARTESIAN_POINT('',(-67.,-1.5,-2.5));
#150 = VECTOR('',#151,1.);
#151 = DIRECTION('',(0.,0.,1.));
#152 = ORIENTED_EDGE('',*,*,#153,.F.);
#153 = EDGE_CURVE('',#75,#146,#154,.T.);
#154 = LINE('',#155,#156);
#155 = CARTESIAN_POINT('',(-67.,-0.75,-2.75));
#156 = VECTOR('',#157,1.);
#157 = DIRECTION('',(0.,-1.,0.));
#158 = PLANE('',#159);
#159 = AXIS2_PLACEMENT_3D('',#160,#161,#162);
#160 = CARTESIAN_POINT('',(-67.,-8.881784197001E-16,-4.));
#161 = DIRECTION('',(-1.,0.,0.));
#162 = DIRECTION('',(0.,2.22044604925E-16,1.));
#163 = ADVANCED_FACE('',(#164),#182,.T.);
#164 = FACE_BOUND('',#165,.T.);
#165 = EDGE_LOOP('',(#166,#167,#168,#176));
#166 = ORIENTED_EDGE('',*,*,#129,.T.);
#167 = ORIENTED_EDGE('',*,*,#47,.T.);
#168 = ORIENTED_EDGE('',*,*,#169,.T.);
#169 = EDGE_CURVE('',#40,#170,#172,.T.);
#170 = VERTEX_POINT('',#171);
#171 = CARTESIAN_POINT('',(-35.,-4.440892098501E-16,-1.));
#172 = LINE('',#173,#174);
#173 = CARTESIAN_POINT('',(-35.,0.,0.));
#174 = VECTOR('',#175,1.);
#175 = DIRECTION('',(0.,-2.22044604925E-16,-1.));
#176 = ORIENTED_EDGE('',*,*,#177,.T.);
#177 = EDGE_CURVE('',#170,#130,#178,.T.);
#178 = LINE('',#179,#180);
#179 = CARTESIAN_POINT('',(67.,-6.661338147751E-16,-1.));
#180 = VECTOR('',#181,1.);
#181 = DIRECTION('',(-1.,0.,2.22044604925E-16));
#182 = PLANE('',#183);
#183 = AXIS2_PLACEMENT_3D('',#184,#185,#186);
#184 = CARTESIAN_POINT('',(-2.273736754432E-15,-3.983480212355E-15,
    -17.94));
#185 = DIRECTION('',(0.,1.,0.));
#186 = DIRECTION('',(0.,0.,1.));
#187 = ADVANCED_FACE('',(#188),#206,.F.);
#188 = FACE_BOUND('',#189,.F.);
#189 = EDGE_LOOP('',(#190,#191,#192,#200));
#190 = ORIENTED_EDGE('',*,*,#122,.T.);
#191 = ORIENTED_EDGE('',*,*,#31,.T.);
#192 = ORIENTED_EDGE('',*,*,#193,.T.);
#193 = EDGE_CURVE('',#32,#194,#196,.T.);
#194 = VERTEX_POINT('',#195);
#195 = CARTESIAN_POINT('',(-35.,-28.7,-0.999999999998));
#196 = LINE('',#197,#198);
#197 = CARTESIAN_POINT('',(-35.,-28.7,7.105427357601E-15));
#198 = VECTOR('',#199,1.);
#199 = DIRECTION('',(0.,-2.22044604925E-16,-1.));
#200 = ORIENTED_EDGE('',*,*,#201,.T.);
#201 = EDGE_CURVE('',#194,#115,#202,.T.);
#202 = LINE('',#203,#204);
#203 = CARTESIAN_POINT('',(67.,-28.7,-0.999999999998));
#204 = VECTOR('',#205,1.);
#205 = DIRECTION('',(-1.,0.,2.22044604925E-16));
#206 = PLANE('',#207);
#207 = AXIS2_PLACEMENT_3D('',#208,#209,#210);
#208 = CARTESIAN_POINT('',(-2.273736754432E-15,-28.7,-17.94));
#209 = DIRECTION('',(0.,1.,0.));
#210 = DIRECTION('',(0.,0.,1.));
#211 = ADVANCED_FACE('',(#212),#287,.T.);
#212 = FACE_BOUND('',#213,.T.);
#213 = EDGE_LOOP('',(#214,#215,#216,#217,#225,#233,#241,#249,#257,#265,
    #273,#281));
#214 = ORIENTED_EDGE('',*,*,#169,.F.);
#215 = ORIENTED_EDGE('',*,*,#39,.T.);
#216 = ORIENTED_EDGE('',*,*,#193,.T.);
#217 = ORIENTED_EDGE('',*,*,#218,.F.);
#218 = EDGE_CURVE('',#219,#194,#221,.T.);
#219 = VERTEX_POINT('',#220);
#220 = CARTESIAN_POINT('',(-35.,-27.19999999999,-0.999999999998));
#221 = LINE('',#222,#223);
#222 = CARTESIAN_POINT('',(-35.,-13.59999999999,-0.999999999998));
#223 = VECTOR('',#224,1.);
#224 = DIRECTION('',(0.,-1.,0.));
#225 = ORIENTED_EDGE('',*,*,#226,.F.);
#226 = EDGE_CURVE('',#227,#219,#229,.T.);
#227 = VERTEX_POINT('',#228);
#228 = CARTESIAN_POINT('',(-35.,-27.19999999999,-2.75));
#229 = LINE('',#230,#231);
#230 = CARTESIAN_POINT('',(-35.,-27.19999999999,-1.375));
#231 = VECTOR('',#232,1.);
#232 = DIRECTION('',(0.,0.,1.));
#233 = ORIENTED_EDGE('',*,*,#234,.F.);
#234 = EDGE_CURVE('',#235,#227,#237,.T.);
#235 = VERTEX_POINT('',#236);
#236 = CARTESIAN_POINT('',(-35.,-28.7,-2.75));
#237 = LINE('',#238,#239);
#238 = CARTESIAN_POINT('',(-35.,-14.35,-2.75));
#239 = VECTOR('',#240,1.);
#240 = DIRECTION('',(0.,1.,0.));
#241 = ORIENTED_EDGE('',*,*,#242,.T.);
#242 = EDGE_CURVE('',#235,#243,#245,.T.);
#243 = VERTEX_POINT('',#244);
#244 = CARTESIAN_POINT('',(-35.,-28.7,-32.));
#245 = LINE('',#246,#247);
#246 = CARTESIAN_POINT('',(-35.,-28.7,7.105427357601E-15));
#247 = VECTOR('',#248,1.);
#248 = DIRECTION('',(0.,-2.22044604925E-16,-1.));
#249 = ORIENTED_EDGE('',*,*,#250,.F.);
#250 = EDGE_CURVE('',#251,#243,#253,.T.);
#251 = VERTEX_POINT('',#252);
#252 = CARTESIAN_POINT('',(-35.,-7.105427357601E-15,-32.));
#253 = LINE('',#254,#255);
#254 = CARTESIAN_POINT('',(-35.,-7.105427357601E-15,-32.));
#255 = VECTOR('',#256,1.);
#256 = DIRECTION('',(0.,-1.,2.22044604925E-16));
#257 = ORIENTED_EDGE('',*,*,#258,.F.);
#258 = EDGE_CURVE('',#259,#251,#261,.T.);
#259 = VERTEX_POINT('',#260);
#260 = CARTESIAN_POINT('',(-35.,-6.383782391595E-16,-2.75));
#261 = LINE('',#262,#263);
#262 = CARTESIAN_POINT('',(-35.,0.,0.));
#263 = VECTOR('',#264,1.);
#264 = DIRECTION('',(0.,-2.22044604925E-16,-1.));
#265 = ORIENTED_EDGE('',*,*,#266,.F.);
#266 = EDGE_CURVE('',#267,#259,#269,.T.);
#267 = VERTEX_POINT('',#268);
#268 = CARTESIAN_POINT('',(-35.,-1.5,-2.75));
#269 = LINE('',#270,#271);
#270 = CARTESIAN_POINT('',(-35.,-0.75,-2.75));
#271 = VECTOR('',#272,1.);
#272 = DIRECTION('',(0.,1.,0.));
#273 = ORIENTED_EDGE('',*,*,#274,.F.);
#274 = EDGE_CURVE('',#275,#267,#277,.T.);
#275 = VERTEX_POINT('',#276);
#276 = CARTESIAN_POINT('',(-35.,-1.5,-1.));
#277 = LINE('',#278,#279);
#278 = CARTESIAN_POINT('',(-35.,-1.5,-0.5));
#279 = VECTOR('',#280,1.);
#280 = DIRECTION('',(0.,0.,-1.));
#281 = ORIENTED_EDGE('',*,*,#282,.F.);
#282 = EDGE_CURVE('',#170,#275,#283,.T.);
#283 = LINE('',#284,#285);
#284 = CARTESIAN_POINT('',(-35.,-3.330669073875E-16,-1.));
#285 = VECTOR('',#286,1.);
#286 = DIRECTION('',(0.,-1.,0.));
#287 = PLANE('',#288);
#288 = AXIS2_PLACEMENT_3D('',#289,#290,#291);
#289 = CARTESIAN_POINT('',(-35.,0.,0.));
#290 = DIRECTION('',(1.,0.,0.));
#291 = DIRECTION('',(0.,-2.22044604925E-16,-1.));
#292 = ADVANCED_FACE('',(#293),#312,.F.);
#293 = FACE_BOUND('',#294,.F.);
#294 = EDGE_LOOP('',(#295,#304,#310,#311));
#295 = ORIENTED_EDGE('',*,*,#296,.F.);
#296 = EDGE_CURVE('',#297,#297,#299,.T.);
#297 = VERTEX_POINT('',#298);
#298 = CARTESIAN_POINT('',(-50.25,-14.35,-4.));
#299 = CIRCLE('',#300,1.75);
#300 = AXIS2_PLACEMENT_3D('',#301,#302,#303);
#301 = CARTESIAN_POINT('',(-52.,-14.35,-4.));
#302 = DIRECTION('',(0.,0.,-1.));
#303 = DIRECTION('',(1.,0.,0.));
#304 = ORIENTED_EDGE('',*,*,#305,.T.);
#305 = EDGE_CURVE('',#297,#56,#306,.T.);
#306 = LINE('',#307,#308);
#307 = CARTESIAN_POINT('',(-50.25,-14.35,-4.));
#308 = VECTOR('',#309,1.);
#309 = DIRECTION('',(0.,0.,1.));
#310 = ORIENTED_EDGE('',*,*,#55,.T.);
#311 = ORIENTED_EDGE('',*,*,#305,.F.);
#312 = CYLINDRICAL_SURFACE('',#313,1.75);
#313 = AXIS2_PLACEMENT_3D('',#314,#315,#316);
#314 = CARTESIAN_POINT('',(-52.,-14.35,-4.));
#315 = DIRECTION('',(0.,0.,-1.));
#316 = DIRECTION('',(1.,0.,0.));
#317 = ADVANCED_FACE('',(#318),#398,.T.);
#318 = FACE_BOUND('',#319,.T.);
#319 = EDGE_LOOP('',(#320,#321,#327,#328,#336,#344,#352,#360,#368,#376,
    #384,#392));
#320 = ORIENTED_EDGE('',*,*,#72,.T.);
#321 = ORIENTED_EDGE('',*,*,#322,.F.);
#322 = EDGE_CURVE('',#259,#75,#323,.T.);
#323 = LINE('',#324,#325);
#324 = CARTESIAN_POINT('',(67.,-6.661338147751E-16,-2.75));
#325 = VECTOR('',#326,1.);
#326 = DIRECTION('',(-1.,0.,2.22044604925E-16));
#327 = ORIENTED_EDGE('',*,*,#258,.T.);
#328 = ORIENTED_EDGE('',*,*,#329,.T.);
#329 = EDGE_CURVE('',#251,#330,#332,.T.);
#330 = VERTEX_POINT('',#331);
#331 = CARTESIAN_POINT('',(35.,-7.105427357601E-15,-32.));
#332 = LINE('',#333,#334);
#333 = CARTESIAN_POINT('',(-35.,-7.105427357601E-15,-32.));
#334 = VECTOR('',#335,1.);
#335 = DIRECTION('',(1.,0.,0.));
#336 = ORIENTED_EDGE('',*,*,#337,.T.);
#337 = EDGE_CURVE('',#330,#338,#340,.T.);
#338 = VERTEX_POINT('',#339);
#339 = CARTESIAN_POINT('',(35.,-6.383782391595E-16,-2.75));
#340 = LINE('',#341,#342);
#341 = CARTESIAN_POINT('',(35.,-7.105427357601E-15,-32.));
#342 = VECTOR('',#343,1.);
#343 = DIRECTION('',(0.,2.22044604925E-16,1.));
#344 = ORIENTED_EDGE('',*,*,#345,.F.);
#345 = EDGE_CURVE('',#346,#338,#348,.T.);
#346 = VERTEX_POINT('',#347);
#347 = CARTESIAN_POINT('',(67.,-6.661338147751E-16,-2.75));
#348 = LINE('',#349,#350);
#349 = CARTESIAN_POINT('',(67.,-6.661338147751E-16,-2.75));
#350 = VECTOR('',#351,1.);
#351 = DIRECTION('',(-1.,0.,2.22044604925E-16));
#352 = ORIENTED_EDGE('',*,*,#353,.T.);
#353 = EDGE_CURVE('',#346,#354,#356,.T.);
#354 = VERTEX_POINT('',#355);
#355 = CARTESIAN_POINT('',(67.,-8.881784197001E-16,-4.));
#356 = LINE('',#357,#358);
#357 = CARTESIAN_POINT('',(67.,0.,0.));
#358 = VECTOR('',#359,1.);
#359 = DIRECTION('',(0.,-2.22044604925E-16,-1.));
#360 = ORIENTED_EDGE('',*,*,#361,.T.);
#361 = EDGE_CURVE('',#354,#362,#364,.T.);
#362 = VERTEX_POINT('',#363);
#363 = CARTESIAN_POINT('',(37.,-8.881784197001E-16,-4.));
#364 = LINE('',#365,#366);
#365 = CARTESIAN_POINT('',(67.,-8.881784197001E-16,-4.));
#366 = VECTOR('',#367,1.);
#367 = DIRECTION('',(-1.,0.,0.));
#368 = ORIENTED_EDGE('',*,*,#369,.T.);
#369 = EDGE_CURVE('',#362,#370,#372,.T.);
#370 = VERTEX_POINT('',#371);
#371 = CARTESIAN_POINT('',(37.,-7.549516567451E-15,-34.));
#372 = LINE('',#373,#374);
#373 = CARTESIAN_POINT('',(37.,-8.881784197001E-16,-4.));
#374 = VECTOR('',#375,1.);
#375 = DIRECTION('',(0.,-2.22044604925E-16,-1.));
#376 = ORIENTED_EDGE('',*,*,#377,.T.);
#377 = EDGE_CURVE('',#370,#378,#380,.T.);
#378 = VERTEX_POINT('',#379);
#379 = CARTESIAN_POINT('',(-37.,-7.549516567451E-15,-34.));
#380 = LINE('',#381,#382);
#381 = CARTESIAN_POINT('',(37.,-7.549516567451E-15,-34.));
#382 = VECTOR('',#383,1.);
#383 = DIRECTION('',(-1.,0.,0.));
#384 = ORIENTED_EDGE('',*,*,#385,.T.);
#385 = EDGE_CURVE('',#378,#386,#388,.T.);
#386 = VERTEX_POINT('',#387);
#387 = CARTESIAN_POINT('',(-37.,-8.881784197001E-16,-4.));
#388 = LINE('',#389,#390);
#389 = CARTESIAN_POINT('',(-37.,-7.549516567451E-15,-34.));
#390 = VECTOR('',#391,1.);
#391 = DIRECTION('',(0.,2.22044604925E-16,1.));
#392 = ORIENTED_EDGE('',*,*,#393,.T.);
#393 = EDGE_CURVE('',#386,#73,#394,.T.);
#394 = LINE('',#395,#396);
#395 = CARTESIAN_POINT('',(-37.,-8.881784197001E-16,-4.));
#396 = VECTOR('',#397,1.);
#397 = DIRECTION('',(-1.,0.,0.));
#398 = PLANE('',#399);
#399 = AXIS2_PLACEMENT_3D('',#400,#401,#402);
#400 = CARTESIAN_POINT('',(-2.273736754432E-15,-3.983480212355E-15,
    -17.94));
#401 = DIRECTION('',(0.,1.,0.));
#402 = DIRECTION('',(0.,0.,1.));
#403 = ADVANCED_FACE('',(#404),#415,.F.);
#404 = FACE_BOUND('',#405,.F.);
#405 = EDGE_LOOP('',(#406,#407,#413,#414));
#406 = ORIENTED_EDGE('',*,*,#266,.F.);
#407 = ORIENTED_EDGE('',*,*,#408,.T.);
#408 = EDGE_CURVE('',#267,#146,#409,.T.);
#409 = LINE('',#410,#411);
#410 = CARTESIAN_POINT('',(67.,-1.5,-2.75));
#411 = VECTOR('',#412,1.);
#412 = DIRECTION('',(-1.,0.,2.22044604925E-16));
#413 = ORIENTED_EDGE('',*,*,#153,.F.);
#414 = ORIENTED_EDGE('',*,*,#322,.F.);
#415 = PLANE('',#416);
#416 = AXIS2_PLACEMENT_3D('',#417,#418,#419);
#417 = CARTESIAN_POINT('',(67.,-1.5,-2.75));
#418 = DIRECTION('',(-2.22044604925E-16,0.,-1.));
#419 = DIRECTION('',(0.,1.,0.));
#420 = ADVANCED_FACE('',(#421),#432,.F.);
#421 = FACE_BOUND('',#422,.F.);
#422 = EDGE_LOOP('',(#423,#424,#430,#431));
#423 = ORIENTED_EDGE('',*,*,#274,.F.);
#424 = ORIENTED_EDGE('',*,*,#425,.T.);
#425 = EDGE_CURVE('',#275,#138,#426,.T.);
#426 = LINE('',#427,#428);
#427 = CARTESIAN_POINT('',(67.,-1.5,-1.));
#428 = VECTOR('',#429,1.);
#429 = DIRECTION('',(-1.,0.,2.22044604925E-16));
#430 = ORIENTED_EDGE('',*,*,#145,.F.);
#431 = ORIENTED_EDGE('',*,*,#408,.F.);
#432 = PLANE('',#433);
#433 = AXIS2_PLACEMENT_3D('',#434,#435,#436);
#434 = CARTESIAN_POINT('',(67.,-1.5,-1.));
#435 = DIRECTION('',(0.,-1.,0.));
#436 = DIRECTION('',(-2.22044604925E-16,0.,-1.));
#437 = ADVANCED_FACE('',(#438),#444,.F.);
#438 = FACE_BOUND('',#439,.F.);
#439 = EDGE_LOOP('',(#440,#441,#442,#443));
#440 = ORIENTED_EDGE('',*,*,#282,.F.);
#441 = ORIENTED_EDGE('',*,*,#177,.T.);
#442 = ORIENTED_EDGE('',*,*,#137,.F.);
#443 = ORIENTED_EDGE('',*,*,#425,.F.);
#444 = PLANE('',#445);
#445 = AXIS2_PLACEMENT_3D('',#446,#447,#448);
#446 = CARTESIAN_POINT('',(67.,-6.661338147751E-16,-1.));
#447 = DIRECTION('',(2.22044604925E-16,0.,1.));
#448 = DIRECTION('',(0.,-1.,0.));
#449 = ADVANCED_FACE('',(#450),#461,.F.);
#450 = FACE_BOUND('',#451,.F.);
#451 = EDGE_LOOP('',(#452,#453,#459,#460));
#452 = ORIENTED_EDGE('',*,*,#218,.F.);
#453 = ORIENTED_EDGE('',*,*,#454,.T.);
#454 = EDGE_CURVE('',#219,#107,#455,.T.);
#455 = LINE('',#456,#457);
#456 = CARTESIAN_POINT('',(67.,-27.19999999999,-0.999999999998));
#457 = VECTOR('',#458,1.);
#458 = DIRECTION('',(-1.,0.,2.22044604925E-16));
#459 = ORIENTED_EDGE('',*,*,#114,.F.);
#460 = ORIENTED_EDGE('',*,*,#201,.F.);
#461 = PLANE('',#462);
#462 = AXIS2_PLACEMENT_3D('',#463,#464,#465);
#463 = CARTESIAN_POINT('',(67.,-27.19999999999,-0.999999999998));
#464 = DIRECTION('',(2.22044604925E-16,0.,1.));
#465 = DIRECTION('',(0.,-1.,0.));
#466 = ADVANCED_FACE('',(#467),#478,.F.);
#467 = FACE_BOUND('',#468,.F.);
#468 = EDGE_LOOP('',(#469,#470,#476,#477));
#469 = ORIENTED_EDGE('',*,*,#226,.F.);
#470 = ORIENTED_EDGE('',*,*,#471,.T.);
#471 = EDGE_CURVE('',#227,#99,#472,.T.);
#472 = LINE('',#473,#474);
#473 = CARTESIAN_POINT('',(67.,-27.19999999999,-2.75));
#474 = VECTOR('',#475,1.);
#475 = DIRECTION('',(-1.,0.,2.22044604925E-16));
#476 = ORIENTED_EDGE('',*,*,#106,.F.);
#477 = ORIENTED_EDGE('',*,*,#454,.F.);
#478 = PLANE('',#479);
#479 = AXIS2_PLACEMENT_3D('',#480,#481,#482);
#480 = CARTESIAN_POINT('',(67.,-27.19999999999,-2.75));
#481 = DIRECTION('',(0.,1.,0.));
#482 = DIRECTION('',(2.22044604925E-16,0.,1.));
#483 = ADVANCED_FACE('',(#484),#495,.F.);
#484 = FACE_BOUND('',#485,.F.);
#485 = EDGE_LOOP('',(#486,#487,#493,#494));
#486 = ORIENTED_EDGE('',*,*,#234,.F.);
#487 = ORIENTED_EDGE('',*,*,#488,.T.);
#488 = EDGE_CURVE('',#235,#91,#489,.T.);
#489 = LINE('',#490,#491);
#490 = CARTESIAN_POINT('',(67.,-28.7,-2.75));
#491 = VECTOR('',#492,1.);
#492 = DIRECTION('',(-1.,0.,2.22044604925E-16));
#493 = ORIENTED_EDGE('',*,*,#98,.F.);
#494 = ORIENTED_EDGE('',*,*,#471,.F.);
#495 = PLANE('',#496);
#496 = AXIS2_PLACEMENT_3D('',#497,#498,#499);
#497 = CARTESIAN_POINT('',(67.,-28.7,-2.75));
#498 = DIRECTION('',(-2.22044604925E-16,0.,-1.));
#499 = DIRECTION('',(0.,1.,0.));
#500 = ADVANCED_FACE('',(#501),#576,.F.);
#501 = FACE_BOUND('',#502,.F.);
#502 = EDGE_LOOP('',(#503,#504,#505,#506,#514,#522,#530,#538,#546,#554,
    #562,#570));
#503 = ORIENTED_EDGE('',*,*,#90,.T.);
#504 = ORIENTED_EDGE('',*,*,#488,.F.);
#505 = ORIENTED_EDGE('',*,*,#242,.T.);
#506 = ORIENTED_EDGE('',*,*,#507,.T.);
#507 = EDGE_CURVE('',#243,#508,#510,.T.);
#508 = VERTEX_POINT('',#509);
#509 = CARTESIAN_POINT('',(35.,-28.7,-32.));
#510 = LINE('',#511,#512);
#511 = CARTESIAN_POINT('',(-35.,-28.7,-32.));
#512 = VECTOR('',#513,1.);
#513 = DIRECTION('',(1.,0.,0.));
#514 = ORIENTED_EDGE('',*,*,#515,.T.);
#515 = EDGE_CURVE('',#508,#516,#518,.T.);
#516 = VERTEX_POINT('',#517);
#517 = CARTESIAN_POINT('',(35.,-28.7,-2.75));
#518 = LINE('',#519,#520);
#519 = CARTESIAN_POINT('',(35.,-28.7,-32.));
#520 = VECTOR('',#521,1.);
#521 = DIRECTION('',(0.,2.22044604925E-16,1.));
#522 = ORIENTED_EDGE('',*,*,#523,.F.);
#523 = EDGE_CURVE('',#524,#516,#526,.T.);
#524 = VERTEX_POINT('',#525);
#525 = CARTESIAN_POINT('',(67.,-28.7,-2.75));
#526 = LINE('',#527,#528);
#527 = CARTESIAN_POINT('',(67.,-28.7,-2.75));
#528 = VECTOR('',#529,1.);
#529 = DIRECTION('',(-1.,0.,2.22044604925E-16));
#530 = ORIENTED_EDGE('',*,*,#531,.T.);
#531 = EDGE_CURVE('',#524,#532,#534,.T.);
#532 = VERTEX_POINT('',#533);
#533 = CARTESIAN_POINT('',(67.,-28.7,-4.));
#534 = LINE('',#535,#536);
#535 = CARTESIAN_POINT('',(67.,-28.7,7.105427357601E-15));
#536 = VECTOR('',#537,1.);
#537 = DIRECTION('',(0.,-2.22044604925E-16,-1.));
#538 = ORIENTED_EDGE('',*,*,#539,.T.);
#539 = EDGE_CURVE('',#532,#540,#542,.T.);
#540 = VERTEX_POINT('',#541);
#541 = CARTESIAN_POINT('',(37.,-28.7,-4.));
#542 = LINE('',#543,#544);
#543 = CARTESIAN_POINT('',(67.,-28.7,-4.));
#544 = VECTOR('',#545,1.);
#545 = DIRECTION('',(-1.,0.,0.));
#546 = ORIENTED_EDGE('',*,*,#547,.T.);
#547 = EDGE_CURVE('',#540,#548,#550,.T.);
#548 = VERTEX_POINT('',#549);
#549 = CARTESIAN_POINT('',(37.,-28.7,-34.));
#550 = LINE('',#551,#552);
#551 = CARTESIAN_POINT('',(37.,-28.7,-4.));
#552 = VECTOR('',#553,1.);
#553 = DIRECTION('',(0.,-2.22044604925E-16,-1.));
#554 = ORIENTED_EDGE('',*,*,#555,.T.);
#555 = EDGE_CURVE('',#548,#556,#558,.T.);
#556 = VERTEX_POINT('',#557);
#557 = CARTESIAN_POINT('',(-37.,-28.7,-34.));
#558 = LINE('',#559,#560);
#559 = CARTESIAN_POINT('',(37.,-28.7,-34.));
#560 = VECTOR('',#561,1.);
#561 = DIRECTION('',(-1.,0.,0.));
#562 = ORIENTED_EDGE('',*,*,#563,.T.);
#563 = EDGE_CURVE('',#556,#564,#566,.T.);
#564 = VERTEX_POINT('',#565);
#565 = CARTESIAN_POINT('',(-37.,-28.7,-4.));
#566 = LINE('',#567,#568);
#567 = CARTESIAN_POINT('',(-37.,-28.7,-34.));
#568 = VECTOR('',#569,1.);
#569 = DIRECTION('',(0.,2.22044604925E-16,1.));
#570 = ORIENTED_EDGE('',*,*,#571,.T.);
#571 = EDGE_CURVE('',#564,#83,#572,.T.);
#572 = LINE('',#573,#574);
#573 = CARTESIAN_POINT('',(-37.,-28.7,-4.));
#574 = VECTOR('',#575,1.);
#575 = DIRECTION('',(-1.,0.,0.));
#576 = PLANE('',#577);
#577 = AXIS2_PLACEMENT_3D('',#578,#579,#580);
#578 = CARTESIAN_POINT('',(-2.273736754432E-15,-28.7,-17.94));
#579 = DIRECTION('',(0.,1.,0.));
#580 = DIRECTION('',(0.,0.,1.));
#581 = ADVANCED_FACE('',(#582,#593),#596,.T.);
#582 = FACE_BOUND('',#583,.T.);
#583 = EDGE_LOOP('',(#584,#590,#591,#592));
#584 = ORIENTED_EDGE('',*,*,#585,.T.);
#585 = EDGE_CURVE('',#386,#564,#586,.T.);
#586 = LINE('',#587,#588);
#587 = CARTESIAN_POINT('',(-37.,-8.881784197001E-16,-4.));
#588 = VECTOR('',#589,1.);
#589 = DIRECTION('',(0.,-1.,2.22044604925E-16));
#590 = ORIENTED_EDGE('',*,*,#571,.T.);
#591 = ORIENTED_EDGE('',*,*,#82,.F.);
#592 = ORIENTED_EDGE('',*,*,#393,.F.);
#593 = FACE_BOUND('',#594,.T.);
#594 = EDGE_LOOP('',(#595));
#595 = ORIENTED_EDGE('',*,*,#296,.F.);
#596 = PLANE('',#597);
#597 = AXIS2_PLACEMENT_3D('',#598,#599,#600);
#598 = CARTESIAN_POINT('',(-37.,-8.881784197001E-16,-4.));
#599 = DIRECTION('',(0.,-2.22044604925E-16,-1.));
#600 = DIRECTION('',(-1.,0.,0.));
#601 = ADVANCED_FACE('',(#602),#613,.T.);
#602 = FACE_BOUND('',#603,.T.);
#603 = EDGE_LOOP('',(#604,#605,#606,#612));
#604 = ORIENTED_EDGE('',*,*,#250,.T.);
#605 = ORIENTED_EDGE('',*,*,#507,.T.);
#606 = ORIENTED_EDGE('',*,*,#607,.F.);
#607 = EDGE_CURVE('',#330,#508,#608,.T.);
#608 = LINE('',#609,#610);
#609 = CARTESIAN_POINT('',(35.,-7.105427357601E-15,-32.));
#610 = VECTOR('',#611,1.);
#611 = DIRECTION('',(0.,-1.,2.22044604925E-16));
#612 = ORIENTED_EDGE('',*,*,#329,.F.);
#613 = PLANE('',#614);
#614 = AXIS2_PLACEMENT_3D('',#615,#616,#617);
#615 = CARTESIAN_POINT('',(-35.,-7.105427357601E-15,-32.));
#616 = DIRECTION('',(0.,2.22044604925E-16,1.));
#617 = DIRECTION('',(1.,0.,0.));
#618 = ADVANCED_FACE('',(#619),#630,.T.);
#619 = FACE_BOUND('',#620,.T.);
#620 = EDGE_LOOP('',(#621,#627,#628,#629));
#621 = ORIENTED_EDGE('',*,*,#622,.T.);
#622 = EDGE_CURVE('',#378,#556,#623,.T.);
#623 = LINE('',#624,#625);
#624 = CARTESIAN_POINT('',(-37.,-7.549516567451E-15,-34.));
#625 = VECTOR('',#626,1.);
#626 = DIRECTION('',(0.,-1.,2.22044604925E-16));
#627 = ORIENTED_EDGE('',*,*,#563,.T.);
#628 = ORIENTED_EDGE('',*,*,#585,.F.);
#629 = ORIENTED_EDGE('',*,*,#385,.F.);
#630 = PLANE('',#631);
#631 = AXIS2_PLACEMENT_3D('',#632,#633,#634);
#632 = CARTESIAN_POINT('',(-37.,-7.549516567451E-15,-34.));
#633 = DIRECTION('',(-1.,0.,0.));
#634 = DIRECTION('',(0.,2.22044604925E-16,1.));
#635 = ADVANCED_FACE('',(#636),#647,.T.);
#636 = FACE_BOUND('',#637,.T.);
#637 = EDGE_LOOP('',(#638,#644,#645,#646));
#638 = ORIENTED_EDGE('',*,*,#639,.T.);
#639 = EDGE_CURVE('',#370,#548,#640,.T.);
#640 = LINE('',#641,#642);
#641 = CARTESIAN_POINT('',(37.,-7.549516567451E-15,-34.));
#642 = VECTOR('',#643,1.);
#643 = DIRECTION('',(0.,-1.,2.22044604925E-16));
#644 = ORIENTED_EDGE('',*,*,#555,.T.);
#645 = ORIENTED_EDGE('',*,*,#622,.F.);
#646 = ORIENTED_EDGE('',*,*,#377,.F.);
#647 = PLANE('',#648);
#648 = AXIS2_PLACEMENT_3D('',#649,#650,#651);
#649 = CARTESIAN_POINT('',(37.,-7.549516567451E-15,-34.));
#650 = DIRECTION('',(0.,-2.22044604925E-16,-1.));
#651 = DIRECTION('',(-1.,0.,0.));
#652 = ADVANCED_FACE('',(#653),#664,.T.);
#653 = FACE_BOUND('',#654,.T.);
#654 = EDGE_LOOP('',(#655,#661,#662,#663));
#655 = ORIENTED_EDGE('',*,*,#656,.T.);
#656 = EDGE_CURVE('',#362,#540,#657,.T.);
#657 = LINE('',#658,#659);
#658 = CARTESIAN_POINT('',(37.,-8.881784197001E-16,-4.));
#659 = VECTOR('',#660,1.);
#660 = DIRECTION('',(0.,-1.,2.22044604925E-16));
#661 = ORIENTED_EDGE('',*,*,#547,.T.);
#662 = ORIENTED_EDGE('',*,*,#639,.F.);
#663 = ORIENTED_EDGE('',*,*,#369,.F.);
#664 = PLANE('',#665);
#665 = AXIS2_PLACEMENT_3D('',#666,#667,#668);
#666 = CARTESIAN_POINT('',(37.,-8.881784197001E-16,-4.));
#667 = DIRECTION('',(1.,0.,0.));
#668 = DIRECTION('',(0.,-2.22044604925E-16,-1.));
#669 = ADVANCED_FACE('',(#670,#681),#692,.T.);
#670 = FACE_BOUND('',#671,.T.);
#671 = EDGE_LOOP('',(#672,#678,#679,#680));
#672 = ORIENTED_EDGE('',*,*,#673,.T.);
#673 = EDGE_CURVE('',#354,#532,#674,.T.);
#674 = LINE('',#675,#676);
#675 = CARTESIAN_POINT('',(67.,-8.881784197001E-16,-4.));
#676 = VECTOR('',#677,1.);
#677 = DIRECTION('',(0.,-1.,2.22044604925E-16));
#678 = ORIENTED_EDGE('',*,*,#539,.T.);
#679 = ORIENTED_EDGE('',*,*,#656,.F.);
#680 = ORIENTED_EDGE('',*,*,#361,.F.);
#681 = FACE_BOUND('',#682,.T.);
#682 = EDGE_LOOP('',(#683));
#683 = ORIENTED_EDGE('',*,*,#684,.F.);
#684 = EDGE_CURVE('',#685,#685,#687,.T.);
#685 = VERTEX_POINT('',#686);
#686 = CARTESIAN_POINT('',(53.75,-14.35,-4.));
#687 = CIRCLE('',#688,1.75);
#688 = AXIS2_PLACEMENT_3D('',#689,#690,#691);
#689 = CARTESIAN_POINT('',(52.,-14.35,-4.));
#690 = DIRECTION('',(0.,0.,-1.));
#691 = DIRECTION('',(1.,0.,0.));
#692 = PLANE('',#693);
#693 = AXIS2_PLACEMENT_3D('',#694,#695,#696);
#694 = CARTESIAN_POINT('',(67.,-8.881784197001E-16,-4.));
#695 = DIRECTION('',(0.,-2.22044604925E-16,-1.));
#696 = DIRECTION('',(-1.,0.,0.));
#697 = ADVANCED_FACE('',(#698),#773,.T.);
#698 = FACE_BOUND('',#699,.T.);
#699 = EDGE_LOOP('',(#700,#710,#718,#726,#734,#742,#748,#749,#750,#751,
    #759,#767));
#700 = ORIENTED_EDGE('',*,*,#701,.F.);
#701 = EDGE_CURVE('',#702,#704,#706,.T.);
#702 = VERTEX_POINT('',#703);
#703 = CARTESIAN_POINT('',(67.,0.,0.));
#704 = VERTEX_POINT('',#705);
#705 = CARTESIAN_POINT('',(67.,-6.661338147751E-16,-1.));
#706 = LINE('',#707,#708);
#707 = CARTESIAN_POINT('',(67.,0.,0.));
#708 = VECTOR('',#709,1.);
#709 = DIRECTION('',(0.,-2.22044604925E-16,-1.));
#710 = ORIENTED_EDGE('',*,*,#711,.T.);
#711 = EDGE_CURVE('',#702,#712,#714,.T.);
#712 = VERTEX_POINT('',#713);
#713 = CARTESIAN_POINT('',(67.,-28.7,6.372680161348E-15));
#714 = LINE('',#715,#716);
#715 = CARTESIAN_POINT('',(67.,0.,0.));
#716 = VECTOR('',#717,1.);
#717 = DIRECTION('',(0.,-1.,2.22044604925E-16));
#718 = ORIENTED_EDGE('',*,*,#719,.T.);
#719 = EDGE_CURVE('',#712,#720,#722,.T.);
#720 = VERTEX_POINT('',#721);
#721 = CARTESIAN_POINT('',(67.,-28.7,-0.999999999998));
#722 = LINE('',#723,#724);
#723 = CARTESIAN_POINT('',(67.,-28.7,7.105427357601E-15));
#724 = VECTOR('',#725,1.);
#725 = DIRECTION('',(0.,-2.22044604925E-16,-1.));
#726 = ORIENTED_EDGE('',*,*,#727,.F.);
#727 = EDGE_CURVE('',#728,#720,#730,.T.);
#728 = VERTEX_POINT('',#729);
#729 = CARTESIAN_POINT('',(67.,-27.19999999999,-0.999999999998));
#730 = LINE('',#731,#732);
#731 = CARTESIAN_POINT('',(67.,-27.19999999999,-0.999999999998));
#732 = VECTOR('',#733,1.);
#733 = DIRECTION('',(0.,-1.,1.094764425254E-47));
#734 = ORIENTED_EDGE('',*,*,#735,.F.);
#735 = EDGE_CURVE('',#736,#728,#738,.T.);
#736 = VERTEX_POINT('',#737);
#737 = CARTESIAN_POINT('',(67.,-27.19999999999,-2.75));
#738 = LINE('',#739,#740);
#739 = CARTESIAN_POINT('',(67.,-27.19999999999,-2.75));
#740 = VECTOR('',#741,1.);
#741 = DIRECTION('',(2.22044604925E-16,-1.094764425254E-47,1.));
#742 = ORIENTED_EDGE('',*,*,#743,.F.);
#743 = EDGE_CURVE('',#524,#736,#744,.T.);
#744 = LINE('',#745,#746);
#745 = CARTESIAN_POINT('',(67.,-28.7,-2.75));
#746 = VECTOR('',#747,1.);
#747 = DIRECTION('',(0.,1.,-1.094764425254E-47));
#748 = ORIENTED_EDGE('',*,*,#531,.T.);
#749 = ORIENTED_EDGE('',*,*,#673,.F.);
#750 = ORIENTED_EDGE('',*,*,#353,.F.);
#751 = ORIENTED_EDGE('',*,*,#752,.F.);
#752 = EDGE_CURVE('',#753,#346,#755,.T.);
#753 = VERTEX_POINT('',#754);
#754 = CARTESIAN_POINT('',(67.,-1.5,-2.75));
#755 = LINE('',#756,#757);
#756 = CARTESIAN_POINT('',(67.,-1.5,-2.75));
#757 = VECTOR('',#758,1.);
#758 = DIRECTION('',(0.,1.,-1.094764425254E-47));
#759 = ORIENTED_EDGE('',*,*,#760,.F.);
#760 = EDGE_CURVE('',#761,#753,#763,.T.);
#761 = VERTEX_POINT('',#762);
#762 = CARTESIAN_POINT('',(67.,-1.5,-1.));
#763 = LINE('',#764,#765);
#764 = CARTESIAN_POINT('',(67.,-1.5,-1.));
#765 = VECTOR('',#766,1.);
#766 = DIRECTION('',(-2.22044604925E-16,1.094764425254E-47,-1.));
#767 = ORIENTED_EDGE('',*,*,#768,.F.);
#768 = EDGE_CURVE('',#704,#761,#769,.T.);
#769 = LINE('',#770,#771);
#770 = CARTESIAN_POINT('',(67.,-6.661338147751E-16,-1.));
#771 = VECTOR('',#772,1.);
#772 = DIRECTION('',(0.,-1.,1.094764425254E-47));
#773 = PLANE('',#774);
#774 = AXIS2_PLACEMENT_3D('',#775,#776,#777);
#775 = CARTESIAN_POINT('',(67.,0.,0.));
#776 = DIRECTION('',(1.,0.,0.));
#777 = DIRECTION('',(0.,-2.22044604925E-16,-1.));
#778 = ADVANCED_FACE('',(#779),#797,.F.);
#779 = FACE_BOUND('',#780,.F.);
#780 = EDGE_LOOP('',(#781,#782,#790,#796));
#781 = ORIENTED_EDGE('',*,*,#752,.F.);
#782 = ORIENTED_EDGE('',*,*,#783,.T.);
#783 = EDGE_CURVE('',#753,#784,#786,.T.);
#784 = VERTEX_POINT('',#785);
#785 = CARTESIAN_POINT('',(35.,-1.5,-2.75));
#786 = LINE('',#787,#788);
#787 = CARTESIAN_POINT('',(67.,-1.5,-2.75));
#788 = VECTOR('',#789,1.);
#789 = DIRECTION('',(-1.,0.,2.22044604925E-16));
#790 = ORIENTED_EDGE('',*,*,#791,.F.);
#791 = EDGE_CURVE('',#338,#784,#792,.T.);
#792 = LINE('',#793,#794);
#793 = CARTESIAN_POINT('',(35.,-0.75,-2.75));
#794 = VECTOR('',#795,1.);
#795 = DIRECTION('',(0.,-1.,0.));
#796 = ORIENTED_EDGE('',*,*,#345,.F.);
#797 = PLANE('',#798);
#798 = AXIS2_PLACEMENT_3D('',#799,#800,#801);
#799 = CARTESIAN_POINT('',(67.,-1.5,-2.75));
#800 = DIRECTION('',(-2.22044604925E-16,0.,-1.));
#801 = DIRECTION('',(0.,1.,0.));
#802 = ADVANCED_FACE('',(#803),#871,.T.);
#803 = FACE_BOUND('',#804,.T.);
#804 = EDGE_LOOP('',(#805,#806,#807,#808,#816,#824,#832,#840,#848,#856,
    #864,#870));
#805 = ORIENTED_EDGE('',*,*,#337,.F.);
#806 = ORIENTED_EDGE('',*,*,#607,.T.);
#807 = ORIENTED_EDGE('',*,*,#515,.T.);
#808 = ORIENTED_EDGE('',*,*,#809,.F.);
#809 = EDGE_CURVE('',#810,#516,#812,.T.);
#810 = VERTEX_POINT('',#811);
#811 = CARTESIAN_POINT('',(35.,-27.19999999999,-2.75));
#812 = LINE('',#813,#814);
#813 = CARTESIAN_POINT('',(35.,-14.35,-2.75));
#814 = VECTOR('',#815,1.);
#815 = DIRECTION('',(0.,-1.,0.));
#816 = ORIENTED_EDGE('',*,*,#817,.F.);
#817 = EDGE_CURVE('',#818,#810,#820,.T.);
#818 = VERTEX_POINT('',#819);
#819 = CARTESIAN_POINT('',(35.,-27.19999999999,-0.999999999998));
#820 = LINE('',#821,#822);
#821 = CARTESIAN_POINT('',(35.,-27.19999999999,-17.375));
#822 = VECTOR('',#823,1.);
#823 = DIRECTION('',(0.,0.,-1.));
#824 = ORIENTED_EDGE('',*,*,#825,.F.);
#825 = EDGE_CURVE('',#826,#818,#828,.T.);
#826 = VERTEX_POINT('',#827);
#827 = CARTESIAN_POINT('',(35.,-28.7,-0.999999999998));
#828 = LINE('',#829,#830);
#829 = CARTESIAN_POINT('',(35.,-13.59999999999,-0.999999999998));
#830 = VECTOR('',#831,1.);
#831 = DIRECTION('',(-0.,1.,0.));
#832 = ORIENTED_EDGE('',*,*,#833,.T.);
#833 = EDGE_CURVE('',#826,#834,#836,.T.);
#834 = VERTEX_POINT('',#835);
#835 = CARTESIAN_POINT('',(35.,-28.7,6.372680161348E-15));
#836 = LINE('',#837,#838);
#837 = CARTESIAN_POINT('',(35.,-28.7,-32.));
#838 = VECTOR('',#839,1.);
#839 = DIRECTION('',(0.,2.22044604925E-16,1.));
#840 = ORIENTED_EDGE('',*,*,#841,.F.);
#841 = EDGE_CURVE('',#842,#834,#844,.T.);
#842 = VERTEX_POINT('',#843);
#843 = CARTESIAN_POINT('',(35.,0.,0.));
#844 = LINE('',#845,#846);
#845 = CARTESIAN_POINT('',(35.,0.,0.));
#846 = VECTOR('',#847,1.);
#847 = DIRECTION('',(0.,-1.,2.22044604925E-16));
#848 = ORIENTED_EDGE('',*,*,#849,.F.);
#849 = EDGE_CURVE('',#850,#842,#852,.T.);
#850 = VERTEX_POINT('',#851);
#851 = CARTESIAN_POINT('',(35.,-4.440892098501E-16,-1.));
#852 = LINE('',#853,#854);
#853 = CARTESIAN_POINT('',(35.,-7.105427357601E-15,-32.));
#854 = VECTOR('',#855,1.);
#855 = DIRECTION('',(0.,2.22044604925E-16,1.));
#856 = ORIENTED_EDGE('',*,*,#857,.F.);
#857 = EDGE_CURVE('',#858,#850,#860,.T.);
#858 = VERTEX_POINT('',#859);
#859 = CARTESIAN_POINT('',(35.,-1.5,-1.));
#860 = LINE('',#861,#862);
#861 = CARTESIAN_POINT('',(35.,-3.885780586188E-15,-1.));
#862 = VECTOR('',#863,1.);
#863 = DIRECTION('',(-0.,1.,0.));
#864 = ORIENTED_EDGE('',*,*,#865,.F.);
#865 = EDGE_CURVE('',#784,#858,#866,.T.);
#866 = LINE('',#867,#868);
#867 = CARTESIAN_POINT('',(35.,-1.5,-16.5));
#868 = VECTOR('',#869,1.);
#869 = DIRECTION('',(0.,0.,1.));
#870 = ORIENTED_EDGE('',*,*,#791,.F.);
#871 = PLANE('',#872);
#872 = AXIS2_PLACEMENT_3D('',#873,#874,#875);
#873 = CARTESIAN_POINT('',(35.,-7.105427357601E-15,-32.));
#874 = DIRECTION('',(-1.,0.,0.));
#875 = DIRECTION('',(0.,2.22044604925E-16,1.));
#876 = ADVANCED_FACE('',(#877),#888,.F.);
#877 = FACE_BOUND('',#878,.F.);
#878 = EDGE_LOOP('',(#879,#880,#881,#882));
#879 = ORIENTED_EDGE('',*,*,#743,.F.);
#880 = ORIENTED_EDGE('',*,*,#523,.T.);
#881 = ORIENTED_EDGE('',*,*,#809,.F.);
#882 = ORIENTED_EDGE('',*,*,#883,.F.);
#883 = EDGE_CURVE('',#736,#810,#884,.T.);
#884 = LINE('',#885,#886);
#885 = CARTESIAN_POINT('',(67.,-27.19999999999,-2.75));
#886 = VECTOR('',#887,1.);
#887 = DIRECTION('',(-1.,0.,2.22044604925E-16));
#888 = PLANE('',#889);
#889 = AXIS2_PLACEMENT_3D('',#890,#891,#892);
#890 = CARTESIAN_POINT('',(67.,-28.7,-2.75));
#891 = DIRECTION('',(-2.22044604925E-16,0.,-1.));
#892 = DIRECTION('',(0.,1.,0.));
#893 = ADVANCED_FACE('',(#894),#913,.F.);
#894 = FACE_BOUND('',#895,.F.);
#895 = EDGE_LOOP('',(#896,#897,#905,#912));
#896 = ORIENTED_EDGE('',*,*,#684,.F.);
#897 = ORIENTED_EDGE('',*,*,#898,.T.);
#898 = EDGE_CURVE('',#685,#899,#901,.T.);
#899 = VERTEX_POINT('',#900);
#900 = CARTESIAN_POINT('',(53.75,-14.35,3.474998067077E-15));
#901 = LINE('',#902,#903);
#902 = CARTESIAN_POINT('',(53.75,-14.35,-4.));
#903 = VECTOR('',#904,1.);
#904 = DIRECTION('',(0.,0.,1.));
#905 = ORIENTED_EDGE('',*,*,#906,.T.);
#906 = EDGE_CURVE('',#899,#899,#907,.T.);
#907 = CIRCLE('',#908,1.75);
#908 = AXIS2_PLACEMENT_3D('',#909,#910,#911);
#909 = CARTESIAN_POINT('',(52.,-14.35,3.474998067077E-15));
#910 = DIRECTION('',(0.,0.,-1.));
#911 = DIRECTION('',(1.,0.,0.));
#912 = ORIENTED_EDGE('',*,*,#898,.F.);
#913 = CYLINDRICAL_SURFACE('',#914,1.75);
#914 = AXIS2_PLACEMENT_3D('',#915,#916,#917);
#915 = CARTESIAN_POINT('',(52.,-14.35,-4.));
#916 = DIRECTION('',(0.,0.,-1.));
#917 = DIRECTION('',(1.,0.,0.));
#918 = ADVANCED_FACE('',(#919),#935,.T.);
#919 = FACE_BOUND('',#920,.T.);
#920 = EDGE_LOOP('',(#921,#927,#928,#934));
#921 = ORIENTED_EDGE('',*,*,#922,.T.);
#922 = EDGE_CURVE('',#704,#850,#923,.T.);
#923 = LINE('',#924,#925);
#924 = CARTESIAN_POINT('',(67.,-6.661338147751E-16,-1.));
#925 = VECTOR('',#926,1.);
#926 = DIRECTION('',(-1.,0.,2.22044604925E-16));
#927 = ORIENTED_EDGE('',*,*,#849,.T.);
#928 = ORIENTED_EDGE('',*,*,#929,.T.);
#929 = EDGE_CURVE('',#842,#702,#930,.T.);
#930 = LINE('',#931,#932);
#931 = CARTESIAN_POINT('',(35.,0.,0.));
#932 = VECTOR('',#933,1.);
#933 = DIRECTION('',(1.,0.,0.));
#934 = ORIENTED_EDGE('',*,*,#701,.T.);
#935 = PLANE('',#936);
#936 = AXIS2_PLACEMENT_3D('',#937,#938,#939);
#937 = CARTESIAN_POINT('',(-2.273736754432E-15,-3.983480212355E-15,
    -17.94));
#938 = DIRECTION('',(0.,1.,0.));
#939 = DIRECTION('',(0.,0.,1.));
#940 = ADVANCED_FACE('',(#941),#952,.F.);
#941 = FACE_BOUND('',#942,.F.);
#942 = EDGE_LOOP('',(#943,#944,#945,#946));
#943 = ORIENTED_EDGE('',*,*,#768,.F.);
#944 = ORIENTED_EDGE('',*,*,#922,.T.);
#945 = ORIENTED_EDGE('',*,*,#857,.F.);
#946 = ORIENTED_EDGE('',*,*,#947,.F.);
#947 = EDGE_CURVE('',#761,#858,#948,.T.);
#948 = LINE('',#949,#950);
#949 = CARTESIAN_POINT('',(67.,-1.5,-1.));
#950 = VECTOR('',#951,1.);
#951 = DIRECTION('',(-1.,0.,2.22044604925E-16));
#952 = PLANE('',#953);
#953 = AXIS2_PLACEMENT_3D('',#954,#955,#956);
#954 = CARTESIAN_POINT('',(67.,-6.661338147751E-16,-1.));
#955 = DIRECTION('',(2.22044604925E-16,0.,1.));
#956 = DIRECTION('',(0.,-1.,0.));
#957 = ADVANCED_FACE('',(#958),#964,.F.);
#958 = FACE_BOUND('',#959,.F.);
#959 = EDGE_LOOP('',(#960,#961,#962,#963));
#960 = ORIENTED_EDGE('',*,*,#760,.F.);
#961 = ORIENTED_EDGE('',*,*,#947,.T.);
#962 = ORIENTED_EDGE('',*,*,#865,.F.);
#963 = ORIENTED_EDGE('',*,*,#783,.F.);
#964 = PLANE('',#965);
#965 = AXIS2_PLACEMENT_3D('',#966,#967,#968);
#966 = CARTESIAN_POINT('',(67.,-1.5,-1.));
#967 = DIRECTION('',(0.,-1.,0.));
#968 = DIRECTION('',(-2.22044604925E-16,0.,-1.));
#969 = ADVANCED_FACE('',(#970),#981,.F.);
#970 = FACE_BOUND('',#971,.F.);
#971 = EDGE_LOOP('',(#972,#973,#974,#975));
#972 = ORIENTED_EDGE('',*,*,#735,.F.);
#973 = ORIENTED_EDGE('',*,*,#883,.T.);
#974 = ORIENTED_EDGE('',*,*,#817,.F.);
#975 = ORIENTED_EDGE('',*,*,#976,.F.);
#976 = EDGE_CURVE('',#728,#818,#977,.T.);
#977 = LINE('',#978,#979);
#978 = CARTESIAN_POINT('',(67.,-27.19999999999,-0.999999999998));
#979 = VECTOR('',#980,1.);
#980 = DIRECTION('',(-1.,0.,2.22044604925E-16));
#981 = PLANE('',#982);
#982 = AXIS2_PLACEMENT_3D('',#983,#984,#985);
#983 = CARTESIAN_POINT('',(67.,-27.19999999999,-2.75));
#984 = DIRECTION('',(0.,1.,0.));
#985 = DIRECTION('',(2.22044604925E-16,0.,1.));
#986 = ADVANCED_FACE('',(#987),#998,.F.);
#987 = FACE_BOUND('',#988,.F.);
#988 = EDGE_LOOP('',(#989,#990,#991,#992));
#989 = ORIENTED_EDGE('',*,*,#727,.F.);
#990 = ORIENTED_EDGE('',*,*,#976,.T.);
#991 = ORIENTED_EDGE('',*,*,#825,.F.);
#992 = ORIENTED_EDGE('',*,*,#993,.F.);
#993 = EDGE_CURVE('',#720,#826,#994,.T.);
#994 = LINE('',#995,#996);
#995 = CARTESIAN_POINT('',(67.,-28.7,-0.999999999998));
#996 = VECTOR('',#997,1.);
#997 = DIRECTION('',(-1.,0.,2.22044604925E-16));
#998 = PLANE('',#999);
#999 = AXIS2_PLACEMENT_3D('',#1000,#1001,#1002);
#1000 = CARTESIAN_POINT('',(67.,-27.19999999999,-0.999999999998));
#1001 = DIRECTION('',(2.22044604925E-16,0.,1.));
#1002 = DIRECTION('',(0.,-1.,0.));
#1003 = ADVANCED_FACE('',(#1004),#1015,.F.);
#1004 = FACE_BOUND('',#1005,.F.);
#1005 = EDGE_LOOP('',(#1006,#1007,#1008,#1014));
#1006 = ORIENTED_EDGE('',*,*,#993,.T.);
#1007 = ORIENTED_EDGE('',*,*,#833,.T.);
#1008 = ORIENTED_EDGE('',*,*,#1009,.T.);
#1009 = EDGE_CURVE('',#834,#712,#1010,.T.);
#1010 = LINE('',#1011,#1012);
#1011 = CARTESIAN_POINT('',(35.,-28.7,7.105427357601E-15));
#1012 = VECTOR('',#1013,1.);
#1013 = DIRECTION('',(1.,0.,0.));
#1014 = ORIENTED_EDGE('',*,*,#719,.T.);
#1015 = PLANE('',#1016);
#1016 = AXIS2_PLACEMENT_3D('',#1017,#1018,#1019);
#1017 = CARTESIAN_POINT('',(-2.273736754432E-15,-28.7,-17.94));
#1018 = DIRECTION('',(0.,1.,0.));
#1019 = DIRECTION('',(0.,0.,1.));
#1020 = ADVANCED_FACE('',(#1021,#1027),#1030,.T.);
#1021 = FACE_BOUND('',#1022,.T.);
#1022 = EDGE_LOOP('',(#1023,#1024,#1025,#1026));
#1023 = ORIENTED_EDGE('',*,*,#841,.T.);
#1024 = ORIENTED_EDGE('',*,*,#1009,.T.);
#1025 = ORIENTED_EDGE('',*,*,#711,.F.);
#1026 = ORIENTED_EDGE('',*,*,#929,.F.);
#1027 = FACE_BOUND('',#1028,.T.);
#1028 = EDGE_LOOP('',(#1029));
#1029 = ORIENTED_EDGE('',*,*,#906,.T.);
#1030 = PLANE('',#1031);
#1031 = AXIS2_PLACEMENT_3D('',#1032,#1033,#1034);
#1032 = CARTESIAN_POINT('',(35.,0.,0.));
#1033 = DIRECTION('',(0.,2.22044604925E-16,1.));
#1034 = DIRECTION('',(1.,0.,0.));
#1035 = ( GEOMETRIC_REPRESENTATION_CONTEXT(3) 
GLOBAL_UNCERTAINTY_ASSIGNED_CONTEXT((#1039)) 
GLOBAL_UNIT_ASSIGNED_CONTEXT((#1036,#1037,#1038)) REPRESENTATION_CONTEXT
('Context #1','3D Context with UNIT and UNCERTAINTY') );
#1036 = ( LENGTH_UNIT() NAMED_UNIT(*) SI_UNIT(.MILLI.,.METRE.) );
#1037 = ( NAMED_UNIT(*) PLANE_ANGLE_UNIT() SI_UNIT($,.RADIAN.) );
#1038 = ( NAMED_UNIT(*) SI_UNIT($,.STERADIAN.) SOLID_ANGLE_UNIT() );
#1039 = UNCERTAINTY_MEASURE_WITH_UNIT(LENGTH_MEASURE(5.E-05),#1036,
  'distance_accuracy_value','confusion accuracy');
#1040 = PRODUCT_RELATED_PRODUCT_CATEGORY('part',$,(#7));
#1041 = MECHANICAL_DESIGN_GEOMETRIC_PRESENTATION_REPRESENTATION('',(
    #1042),#1035);
#1042 = STYLED_ITEM('color',(#1043),#15);
#1043 = PRESENTATION_STYLE_ASSIGNMENT((#1044,#1050));
#1044 = SURFACE_STYLE_USAGE(.BOTH.,#1045);
#1045 = SURFACE_SIDE_STYLE('',(#1046));
#1046 = SURFACE_STYLE_FILL_AREA(#1047);
#1047 = FILL_AREA_STYLE('',(#1048));
#1048 = FILL_AREA_STYLE_COLOUR('',#1049);
#1049 = COLOUR_RGB('',0.447058818107,0.474509808674,0.501960817233);
#1050 = CURVE_STYLE('',#1051,POSITIVE_LENGTH_MEASURE(0.1),#1052);
#1051 = DRAUGHTING_PRE_DEFINED_CURVE_FONT('continuous');
#1052 = COLOUR_RGB('',9.803921802644E-02,9.803921802644E-02,
  9.803921802644E-02);
ENDSEC;
END-ISO-10303-21;
