solid OpenSCAD_Model
  facet normal 0 0 -1
    outer loop
      vertex -57.857142858207226 -33.403837002813816 0
      vertex 0 -66.80767400562763 0
      vertex -61.857142858207226 -35.71323808282614 0
    endloop
  endfacet
  facet normal 0 0 -1
    outer loop
      vertex -47.857142858207226 -27.630334310233593 0
      vertex 0 -55.260668620467186 0
      vertex -51.857142858207226 -29.939735390245914 0
    endloop
  endfacet
  facet normal 0.49999999998973066 0.8660254037903676 -1.4250103117140767e-16
    outer loop
      vertex 0 -66.80767400562763 0
      vertex -57.857142858207226 -33.403837002813816 0
      vertex -57.857142858207226 -33.403837002813816 10
    endloop
  endfacet
  facet normal -0.49999999992741057 -0.8660254038263481 -1.2199953352244525e-16
    outer loop
      vertex 0 -59.87947077304125 0
      vertex -51.857142858207226 -29.939735390245914 10
      vertex -51.857142858207226 -29.939735390245914 0
    endloop
  endfacet
  facet normal -0.49999999994632743 -0.8660254038154265 0
    outer loop
      vertex -61.857142858207226 -35.71323808282614 0
      vertex 0 -71.4264761582017 0
      vertex -61.857142858207226 -35.71323808282614 14
    endloop
  endfacet
  facet normal 0.4999999999783021 0.866025403796966 -3.33648376552763e-17
    outer loop
      vertex 0 -55.260668620467186 0
      vertex -47.857142858207226 -27.630334310233593 0
      vertex -47.857142858207226 -27.630334310233593 14
    endloop
  endfacet
  facet normal 0 0 -1
    outer loop
      vertex -61.857142858207226 -35.71323808282614 0
      vertex -61.857142858207226 35.71323808282614 0
      vertex -57.857142858207226 -33.403837002813816 0
    endloop
  endfacet
  facet normal 0 0 -1
    outer loop
      vertex -51.857142858207226 29.939735390245914 0
      vertex -47.857142858207226 -27.630334310233593 0
      vertex -51.857142858207226 -29.939735390245914 0
    endloop
  endfacet
  facet normal 1 0 0
    outer loop
      vertex -57.857142858207226 -33.403837002813816 0
      vertex -57.857142858207226 33.403837002813816 10
      vertex -57.857142858207226 -33.403837002813816 10
    endloop
  endfacet
  facet normal -1 0 0
    outer loop
      vertex -51.857142858207226 29.939735390245914 10
      vertex -51.857142858207226 -29.939735390245914 0
      vertex -51.857142858207226 -29.939735390245914 10
    endloop
  endfacet
  facet normal 0 0 -1
    outer loop
      vertex 0 -71.4264761582017 0
      vertex -61.857142858207226 -35.71323808282614 0
      vertex 0 -66.80767400562763 0
    endloop
  endfacet
  facet normal 0 0 -1
    outer loop
      vertex 0 -59.87947077304125 0
      vertex -51.857142858207226 -29.939735390245914 0
      vertex 0 -55.260668620467186 0
    endloop
  endfacet
  facet normal 0.49999999998973066 0.8660254037903676 0
    outer loop
      vertex 0 -66.80767400562763 0
      vertex -57.857142858207226 -33.403837002813816 10
      vertex 0 -66.80767400562763 10
    endloop
  endfacet
  facet normal -0.49999999992741057 -0.8660254038263481 0
    outer loop
      vertex 0 -59.87947077304125 10
      vertex -51.857142858207226 -29.939735390245914 10
      vertex 0 -59.87947077304125 0
    endloop
  endfacet
  facet normal 0 0 -1
    outer loop
      vertex 0 -66.80767400562763 10
      vertex -57.857142858207226 -33.403837002813816 10
      vertex -51.857142858207226 -29.939735390245914 10
    endloop
  endfacet
  facet normal 0 0 1
    outer loop
      vertex -61.857142858207226 -35.71323808282614 14
      vertex 0 -71.4264761582017 14
      vertex -47.857142858207226 -27.630334310233593 14
    endloop
  endfacet
  facet normal -1 0 0
    outer loop
      vertex -61.857142858207226 -35.71323808282614 0
      vertex -61.857142858207226 -35.71323808282614 14
      vertex -61.857142858207226 35.71323808282614 14
    endloop
  endfacet
  facet normal 1 0 0
    outer loop
      vertex -47.857142858207226 -27.630334310233593 14
      vertex -47.857142858207226 -27.630334310233593 0
      vertex -47.857142858207226 27.630334310233593 14
    endloop
  endfacet
  facet normal 0 0 -1
    outer loop
      vertex -51.857142858207226 29.939735390245914 10
      vertex -51.857142858207226 -29.939735390245914 10
      vertex -57.857142858207226 -33.403837002813816 10
    endloop
  endfacet
  facet normal 0 0 1
    outer loop
      vertex -61.857142858207226 -35.71323808282614 14
      vertex -47.857142858207226 -27.630334310233593 14
      vertex -47.857142858207226 27.630334310233593 14
    endloop
  endfacet
  facet normal -0.49999999994632743 -0.8660254038154265 0
    outer loop
      vertex 0 -71.4264761582017 14
      vertex -61.857142858207226 -35.71323808282614 14
      vertex 0 -71.4264761582017 0
    endloop
  endfacet
  facet normal 0.4999999999783021 0.866025403796966 0
    outer loop
      vertex 0 -55.260668620467186 0
      vertex -47.857142858207226 -27.630334310233593 14
      vertex 0 -55.260668620467186 14
    endloop
  endfacet
  facet normal 0 0 -1
    outer loop
      vertex -51.857142858207226 -29.939735390245914 10
      vertex 0 -59.87947077304125 10
      vertex 0 -66.80767400562763 10
    endloop
  endfacet
  facet normal 0 0 1
    outer loop
      vertex 0 -55.260668620467186 14
      vertex -47.857142858207226 -27.630334310233593 14
      vertex 0 -71.4264761582017 14
    endloop
  endfacet
  facet normal 0 0 -1
    outer loop
      vertex -57.857142858207226 -33.403837002813816 0
      vertex -61.857142858207226 35.71323808282614 0
      vertex -57.857142858207226 33.403837002813816 0
    endloop
  endfacet
  facet normal 0 0 -1
    outer loop
      vertex -47.857142858207226 27.630334310233593 0
      vertex -47.857142858207226 -27.630334310233593 0
      vertex -51.857142858207226 29.939735390245914 0
    endloop
  endfacet
  facet normal 1 0 0
    outer loop
      vertex -57.857142858207226 -33.403837002813816 0
      vertex -57.857142858207226 33.403837002813816 0
      vertex -57.857142858207226 33.403837002813816 10
    endloop
  endfacet
  facet normal -1 0 0
    outer loop
      vertex -51.857142858207226 29.939735390245914 0
      vertex -51.857142858207226 -29.939735390245914 0
      vertex -51.857142858207226 29.939735390245914 10
    endloop
  endfacet
  facet normal -1 0 0
    outer loop
      vertex -61.857142858207226 35.71323808282614 0
      vertex -61.857142858207226 -35.71323808282614 0
      vertex -61.857142858207226 35.71323808282614 14
    endloop
  endfacet
  facet normal 1 0 0
    outer loop
      vertex -47.857142858207226 27.630334310233593 14
      vertex -47.857142858207226 -27.630334310233593 0
      vertex -47.857142858207226 27.630334310233593 0
    endloop
  endfacet
  facet normal 0 0 -1
    outer loop
      vertex -61.857142858207226 35.71323808282614 0
      vertex 0 71.4264761582017 0
      vertex -57.857142858207226 33.403837002813816 0
    endloop
  endfacet
  facet normal 0 0 -1
    outer loop
      vertex -51.857142858207226 29.939735390245914 0
      vertex 0 59.87947077304125 0
      vertex -47.857142858207226 27.630334310233593 0
    endloop
  endfacet
  facet normal 0.49999999998973066 -0.8660254037903676 0
    outer loop
      vertex -57.857142858207226 33.403837002813816 0
      vertex 0 66.80767400562763 10
      vertex -57.857142858207226 33.403837002813816 10
    endloop
  endfacet
  facet normal -0.49999999992741057 0.8660254038263481 1.2199953352244525e-16
    outer loop
      vertex 0 59.87947077304125 10
      vertex -51.857142858207226 29.939735390245914 0
      vertex -51.857142858207226 29.939735390245914 10
    endloop
  endfacet
  facet normal 0 0 -1
    outer loop
      vertex -47.857142858207226 27.630334310233593 0
      vertex 0 59.87947077304125 0
      vertex 0 55.260668620467186 0
    endloop
  endfacet
  facet normal -0.49999999992741057 0.8660254038263481 1.2199953352244525e-16
    outer loop
      vertex -51.857142858207226 29.939735390245914 0
      vertex 0 59.87947077304125 10
      vertex 0 59.87947077304125 0
    endloop
  endfacet
  facet normal 0 0 -1
    outer loop
      vertex 0 71.4264761582017 0
      vertex 0 66.80767400562763 0
      vertex -57.857142858207226 33.403837002813816 0
    endloop
  endfacet
  facet normal 0.49999999998973066 -0.8660254037903676 1.4250103117140767e-16
    outer loop
      vertex -57.857142858207226 33.403837002813816 0
      vertex 0 66.80767400562763 0
      vertex 0 66.80767400562763 10
    endloop
  endfacet
  facet normal 0.4999999999783021 -0.866025403796966 3.33648376552763e-17
    outer loop
      vertex -47.857142858207226 27.630334310233593 0
      vertex 0 55.260668620467186 0
      vertex 0 55.260668620467186 14
    endloop
  endfacet
  facet normal -0.49999999994632743 0.8660254038154265 0
    outer loop
      vertex 0 71.4264761582017 0
      vertex -61.857142858207226 35.71323808282614 0
      vertex 0 71.4264761582017 14
    endloop
  endfacet
  facet normal 0 0 -1
    outer loop
      vertex -57.857142858207226 -33.403837002813816 10
      vertex -57.857142858207226 33.403837002813816 10
      vertex -51.857142858207226 29.939735390245914 10
    endloop
  endfacet
  facet normal 0 0 1
    outer loop
      vertex -61.857142858207226 35.71323808282614 14
      vertex -61.857142858207226 -35.71323808282614 14
      vertex -47.857142858207226 27.630334310233593 14
    endloop
  endfacet
  facet normal -0.49999999994632743 0.8660254038154265 -8.493455283549372e-17
    outer loop
      vertex 0 71.4264761582017 14
      vertex -61.857142858207226 35.71323808282614 0
      vertex -61.857142858207226 35.71323808282614 14
    endloop
  endfacet
  facet normal 0.4999999999783021 -0.866025403796966 0
    outer loop
      vertex -47.857142858207226 27.630334310233593 14
      vertex -47.857142858207226 27.630334310233593 0
      vertex 0 55.260668620467186 14
    endloop
  endfacet
  facet normal 0 0 -1
    outer loop
      vertex -51.857142858207226 29.939735390245914 10
      vertex -57.857142858207226 33.403837002813816 10
      vertex 0 59.87947077304125 10
    endloop
  endfacet
  facet normal 0 0 1
    outer loop
      vertex -61.857142858207226 35.71323808282614 14
      vertex -47.857142858207226 27.630334310233593 14
      vertex 0 55.260668620467186 14
    endloop
  endfacet
  facet normal 0 0 -1
    outer loop
      vertex -57.857142858207226 33.403837002813816 10
      vertex 0 66.80767400562763 10
      vertex 0 59.87947077304125 10
    endloop
  endfacet
  facet normal 0 0 1
    outer loop
      vertex 0 71.4264761582017 14
      vertex -61.857142858207226 35.71323808282614 14
      vertex 0 55.260668620467186 14
    endloop
  endfacet
  facet normal 0 0 -1
    outer loop
      vertex 0 -66.80767400562763 0
      vertex 57.857142858207226 -33.403837002813816 0
      vertex 0 -71.4264761582017 0
    endloop
  endfacet
  facet normal -0.49999999998973066 0.8660254037903676 1.4250103117140767e-16
    outer loop
      vertex 57.857142858207226 -33.403837002813816 0
      vertex 0 -66.80767400562763 0
      vertex 0 -66.80767400562763 10
    endloop
  endfacet
  facet normal 0 0 -1
    outer loop
      vertex 0 -59.87947077304125 0
      vertex 0 -55.260668620467186 0
      vertex 47.857142858207226 -27.630334310233593 0
    endloop
  endfacet
  facet normal 0.49999999992741057 -0.8660254038263481 0
    outer loop
      vertex 0 -59.87947077304125 0
      vertex 51.857142858207226 -29.939735390245914 0
      vertex 0 -59.87947077304125 10
    endloop
  endfacet
  facet normal 0.49999999994632743 -0.8660254038154265 0
    outer loop
      vertex 0 -71.4264761582017 14
      vertex 0 -71.4264761582017 0
      vertex 61.857142858207226 -35.71323808282614 0
    endloop
  endfacet
  facet normal -0.4999999999783021 0.866025403796966 3.33648376552763e-17
    outer loop
      vertex 47.857142858207226 -27.630334310233593 0
      vertex 0 -55.260668620467186 0
      vertex 0 -55.260668620467186 14
    endloop
  endfacet
  facet normal 0 0 -1
    outer loop
      vertex 51.857142858207226 -29.939735390245914 0
      vertex 0 -59.87947077304125 0
      vertex 47.857142858207226 -27.630334310233593 0
    endloop
  endfacet
  facet normal 0 0 -1
    outer loop
      vertex 61.857142858207226 -35.71323808282614 0
      vertex 0 -71.4264761582017 0
      vertex 57.857142858207226 -33.403837002813816 0
    endloop
  endfacet
  facet normal 0.49999999992741057 -0.8660254038263481 1.2199953352244525e-16
    outer loop
      vertex 0 -59.87947077304125 10
      vertex 51.857142858207226 -29.939735390245914 0
      vertex 51.857142858207226 -29.939735390245914 10
    endloop
  endfacet
  facet normal -0.49999999998973066 0.8660254037903676 0
    outer loop
      vertex 57.857142858207226 -33.403837002813816 0
      vertex 0 -66.80767400562763 10
      vertex 57.857142858207226 -33.403837002813816 10
    endloop
  endfacet
  facet normal 0 0 -1
    outer loop
      vertex 47.857142858207226 -27.630334310233593 0
      vertex 47.857142858207226 27.630334310233593 0
      vertex 51.857142858207226 -29.939735390245914 0
    endloop
  endfacet
  facet normal 0 0 -1
    outer loop
      vertex 57.857142858207226 33.403837002813816 0
      vertex 61.857142858207226 -35.71323808282614 0
      vertex 57.857142858207226 -33.403837002813816 0
    endloop
  endfacet
  facet normal 1 0 0
    outer loop
      vertex 51.857142858207226 -29.939735390245914 0
      vertex 51.857142858207226 29.939735390245914 0
      vertex 51.857142858207226 -29.939735390245914 10
    endloop
  endfacet
  facet normal -1 0 0
    outer loop
      vertex 57.857142858207226 -33.403837002813816 0
      vertex 57.857142858207226 -33.403837002813816 10
      vertex 57.857142858207226 33.403837002813816 0
    endloop
  endfacet
  facet normal -1 0 0
    outer loop
      vertex 47.857142858207226 27.630334310233593 0
      vertex 47.857142858207226 -27.630334310233593 0
      vertex 47.857142858207226 -27.630334310233593 14
    endloop
  endfacet
  facet normal 1 0 0
    outer loop
      vertex 61.857142858207226 -35.71323808282614 0
      vertex 61.857142858207226 35.71323808282614 0
      vertex 61.857142858207226 -35.71323808282614 14
    endloop
  endfacet
  facet normal 0 0 -1
    outer loop
      vertex 0 -66.80767400562763 10
      vertex 0 -59.87947077304125 10
      vertex 57.857142858207226 -33.403837002813816 10
    endloop
  endfacet
  facet normal 0 0 1
    outer loop
      vertex 0 -55.260668620467186 14
      vertex 0 -71.4264761582017 14
      vertex 61.857142858207226 -35.71323808282614 14
    endloop
  endfacet
  facet normal -0.4999999999783021 0.866025403796966 0
    outer loop
      vertex 47.857142858207226 -27.630334310233593 14
      vertex 47.857142858207226 -27.630334310233593 0
      vertex 0 -55.260668620467186 14
    endloop
  endfacet
  facet normal 0 0 -1
    outer loop
      vertex 0 -59.87947077304125 10
      vertex 51.857142858207226 -29.939735390245914 10
      vertex 57.857142858207226 -33.403837002813816 10
    endloop
  endfacet
  facet normal 0.49999999994632743 -0.8660254038154265 -8.493455283549372e-17
    outer loop
      vertex 0 -71.4264761582017 14
      vertex 61.857142858207226 -35.71323808282614 0
      vertex 61.857142858207226 -35.71323808282614 14
    endloop
  endfacet
  facet normal 0 0 1
    outer loop
      vertex 47.857142858207226 -27.630334310233593 14
      vertex 0 -55.260668620467186 14
      vertex 61.857142858207226 -35.71323808282614 14
    endloop
  endfacet
  facet normal 0 0 -1
    outer loop
      vertex 57.857142858207226 33.403837002813816 10
      vertex 57.857142858207226 -33.403837002813816 10
      vertex 51.857142858207226 -29.939735390245914 10
    endloop
  endfacet
  facet normal 0 0 1
    outer loop
      vertex 47.857142858207226 -27.630334310233593 14
      vertex 61.857142858207226 -35.71323808282614 14
      vertex 61.857142858207226 35.71323808282614 14
    endloop
  endfacet
  facet normal 0 0 -1
    outer loop
      vertex 0 59.87947077304125 0
      vertex 51.857142858207226 29.939735390245914 0
      vertex 0 55.260668620467186 0
    endloop
  endfacet
  facet normal 0 0 -1
    outer loop
      vertex 0 71.4264761582017 0
      vertex 61.857142858207226 35.71323808282614 0
      vertex 0 66.80767400562763 0
    endloop
  endfacet
  facet normal 0.49999999992741057 0.8660254038263481 -1.2199953352244525e-16
    outer loop
      vertex 51.857142858207226 29.939735390245914 10
      vertex 0 59.87947077304125 0
      vertex 0 59.87947077304125 10
    endloop
  endfacet
  facet normal -0.49999999998973066 -0.8660254037903676 0
    outer loop
      vertex 0 66.80767400562763 0
      vertex 57.857142858207226 33.403837002813816 10
      vertex 0 66.80767400562763 10
    endloop
  endfacet
  facet normal 0 0 -1
    outer loop
      vertex 51.857142858207226 -29.939735390245914 0
      vertex 47.857142858207226 27.630334310233593 0
      vertex 51.857142858207226 29.939735390245914 0
    endloop
  endfacet
  facet normal 0 0 -1
    outer loop
      vertex 61.857142858207226 35.71323808282614 0
      vertex 61.857142858207226 -35.71323808282614 0
      vertex 57.857142858207226 33.403837002813816 0
    endloop
  endfacet
  facet normal 1 0 0
    outer loop
      vertex 51.857142858207226 -29.939735390245914 10
      vertex 51.857142858207226 29.939735390245914 0
      vertex 51.857142858207226 29.939735390245914 10
    endloop
  endfacet
  facet normal -1 0 0
    outer loop
      vertex 57.857142858207226 33.403837002813816 0
      vertex 57.857142858207226 -33.403837002813816 10
      vertex 57.857142858207226 33.403837002813816 10
    endloop
  endfacet
  facet normal 0 0 -1
    outer loop
      vertex 47.857142858207226 27.630334310233593 0
      vertex 0 55.260668620467186 0
      vertex 51.857142858207226 29.939735390245914 0
    endloop
  endfacet
  facet normal 0 0 -1
    outer loop
      vertex 57.857142858207226 33.403837002813816 0
      vertex 0 66.80767400562763 0
      vertex 61.857142858207226 35.71323808282614 0
    endloop
  endfacet
  facet normal 0.49999999992741057 0.8660254038263481 0
    outer loop
      vertex 51.857142858207226 29.939735390245914 0
      vertex 0 59.87947077304125 0
      vertex 51.857142858207226 29.939735390245914 10
    endloop
  endfacet
  facet normal -0.49999999998973066 -0.8660254037903676 -1.4250103117140767e-16
    outer loop
      vertex 0 66.80767400562763 0
      vertex 57.857142858207226 33.403837002813816 0
      vertex 57.857142858207226 33.403837002813816 10
    endloop
  endfacet
  facet normal -0.4999999999783021 -0.866025403796966 -3.33648376552763e-17
    outer loop
      vertex 0 55.260668620467186 0
      vertex 47.857142858207226 27.630334310233593 0
      vertex 47.857142858207226 27.630334310233593 14
    endloop
  endfacet
  facet normal 0.49999999994632743 0.8660254038154265 0
    outer loop
      vertex 61.857142858207226 35.71323808282614 0
      vertex 0 71.4264761582017 0
      vertex 61.857142858207226 35.71323808282614 14
    endloop
  endfacet
  facet normal -0.4999999999783021 -0.866025403796966 0
    outer loop
      vertex 0 55.260668620467186 14
      vertex 0 55.260668620467186 0
      vertex 47.857142858207226 27.630334310233593 14
    endloop
  endfacet
  facet normal 0 0 -1
    outer loop
      vertex 0 59.87947077304125 10
      vertex 0 66.80767400562763 10
      vertex 51.857142858207226 29.939735390245914 10
    endloop
  endfacet
  facet normal 0.49999999994632743 0.8660254038154265 8.493455283549372e-17
    outer loop
      vertex 61.857142858207226 35.71323808282614 14
      vertex 0 71.4264761582017 0
      vertex 0 71.4264761582017 14
    endloop
  endfacet
  facet normal 0 0 1
    outer loop
      vertex 0 71.4264761582017 14
      vertex 0 55.260668620467186 14
      vertex 47.857142858207226 27.630334310233593 14
    endloop
  endfacet
  facet normal -1 0 0
    outer loop
      vertex 47.857142858207226 27.630334310233593 0
      vertex 47.857142858207226 -27.630334310233593 14
      vertex 47.857142858207226 27.630334310233593 14
    endloop
  endfacet
  facet normal 0 0 -1
    outer loop
      vertex 51.857142858207226 -29.939735390245914 10
      vertex 51.857142858207226 29.939735390245914 10
      vertex 57.857142858207226 33.403837002813816 10
    endloop
  endfacet
  facet normal 1 0 0
    outer loop
      vertex 61.857142858207226 35.71323808282614 14
      vertex 61.857142858207226 -35.71323808282614 14
      vertex 61.857142858207226 35.71323808282614 0
    endloop
  endfacet
  facet normal 0 0 1
    outer loop
      vertex 47.857142858207226 27.630334310233593 14
      vertex 47.857142858207226 -27.630334310233593 14
      vertex 61.857142858207226 35.71323808282614 14
    endloop
  endfacet
  facet normal 0 0 -1
    outer loop
      vertex 0 66.80767400562763 10
      vertex 57.857142858207226 33.403837002813816 10
      vertex 51.857142858207226 29.939735390245914 10
    endloop
  endfacet
  facet normal 0 0 1
    outer loop
      vertex 61.857142858207226 35.71323808282614 14
      vertex 0 71.4264761582017 14
      vertex 47.857142858207226 27.630334310233593 14
    endloop
  endfacet
endsolid OpenSCAD_Model
